<svg width="79" height="77" viewBox="0 0 79 77" fill="none" xmlns="http://www.w3.org/2000/svg">
<path fill-rule="evenodd" clip-rule="evenodd" d="M68.6674 26.499L78.3928 42.1901C60.2471 70.8691 39.2738 91.283 18.2695 63.2566L31.6303 45.3594C38.1863 52.0708 39.2738 53.003 48.5953 56.1101L68.6674 26.499Z" fill="#01ACED"/>
<path fill-rule="evenodd" clip-rule="evenodd" d="M48.625 56.079C59.0339 56.7005 62.7936 55.1469 71.9597 51.7912C74.1347 48.7462 76.2786 45.5148 78.3915 42.1901L68.6661 26.499L48.625 56.079Z" fill="#215686"/>
<path fill-rule="evenodd" clip-rule="evenodd" d="M10.4388 49.3058L1.14844 33.335C20.071 5.1843 41.6035 -14.6393 61.831 13.9464L47.7867 31.3465C41.4171 24.4486 40.516 23.6097 31.2878 20.285L10.4388 49.3058Z" fill="#01ACED"/>
<path fill-rule="evenodd" clip-rule="evenodd" d="M31.2878 20.2851C20.8788 19.353 17.0881 20.7822 7.8288 23.9205C5.59166 26.9033 3.35451 30.0726 1.14844 33.3351L10.4388 49.3058L31.2878 20.2851Z" fill="#215686"/>
<path fill-rule="evenodd" clip-rule="evenodd" d="M24.9193 17.7062H37.3479L52.9768 42.9983L71.2779 17.644H76.0008L48.6268 56.1105L37.2547 37.7162L23.7075 56.1105L0 17.7062H12.4286L28.0886 42.9983L35.0175 34.0808L24.9193 17.7062Z" fill="#CE4040"/>
</svg>
