<svg width="198" height="253" fill="none" xmlns="http://www.w3.org/2000/svg"><mask id="a" style="mask-type:luminance" maskUnits="userSpaceOnUse" x="0" y="68" width="48" height="86"><path d="M47.142 68.11H0v85.444h47.142V68.109Z" fill="#fff"/></mask><g mask="url(#a)"><path d="M17.083 120.75c-2.357 0-4.321-1.964-4.321-4.321 0-11.786 3.535-22.785 10.214-32.214 5.696-8.25 12.767-13.16 17.481-15.32 2.161-.983 4.715 0 5.697 2.16.982 2.16 0 4.714-2.16 5.696-5.697 2.554-22.197 15.321-22.393 39.481 0 2.554-1.964 4.518-4.518 4.518Z" fill="#000"/></g><mask id="b" style="mask-type:luminance" maskUnits="userSpaceOnUse" x="0" y="68" width="48" height="86"><path d="M47.142 68.11H0v85.444h47.142V68.109Z" fill="#fff"/></mask><g mask="url(#b)"><path d="M34.178 134.697c-.197-1.179-.59-2.357-1.179-3.339-.982-2.161-2.16-4.125-3.535-6.09-.393-.392-.786-.982-1.179-1.375-.393-.392-.785-.589-1.178-.785 1.178-1.572 1.964-4.518-.393-6.875-2.554-2.554-10.607-4.321-15.714-2.357-3.34 1.178-4.518 3.143-4.714 4.518-.393 1.375 0 2.946.982 4.321H7.07c-1.767.786-2.946 2.357-3.928 3.732-1.768 3.143-2.75 6.482-2.946 10.018-.197 1.767 0 3.535 0 5.107.196 1.767.196 3.535.785 5.303.197.982.59 1.768 1.375 2.554.786.785 1.768 1.178 2.75 1.374 1.572.393 3.143.197 4.518-.589.196.197.196.589.393.786.393.786 1.178 1.571 2.16 1.768a7.044 7.044 0 0 0 4.911 0c1.179-.393 2.357-1.179 3.143-2.357.393.196.59.392.982.392 1.571.59 3.143.393 4.714-.392 1.572-.786 2.357-2.357 2.554-3.929a10.673 10.673 0 0 0 0-3.535c1.964-1.179 3.732-2.554 4.91-4.715.59-.785.982-2.16.786-3.535Zm-2.554 2.75c-.785 1.375-2.16 2.553-3.535 3.535l-.59-2.357c-.589-2.553-1.374-5.107-1.57-7.66 0-.393-.394-.59-.59-.59-.393 0-.59.197-.59.59 0 2.75.393 5.303.983 7.857.196 1.375.589 2.553.785 3.732.197 1.178.393 2.357.197 3.535-.197 1.179-.786 1.965-1.572 2.554-.785.393-1.964.589-2.946.196-.59-.196-.982-.393-1.375-.785-.393-.393-.59-.59-.786-1.375-.392-1.179-.589-2.358-.785-3.732 0-.393-.393-.59-.59-.59-.392 0-.589.197-.589.59 0 1.374 0 2.749.393 4.124 0 .393.197.786.393 1.179 0 .196.196.196.196.393-.589.786-1.375 1.571-2.16 1.768a5.462 5.462 0 0 1-3.536 0c-.786-.197-1.571-1.375-1.964-2.554-.393-1.178-.786-2.553-.982-3.928 0-.197-.393-.59-.59-.59-.392 0-.589.197-.589.59 0 1.375 0 2.75.393 4.125-.59.392-1.571.589-2.357.589-.393 0-.786 0-1.375-.197-.59-.196-1.375-.589-1.768-.982a3.798 3.798 0 0 1-.982-1.768c-.393-1.375-.59-3.142-.59-4.714a20.53 20.53 0 0 1 0-4.91c.197-3.143.983-6.482 2.554-9.232.786-1.375 1.768-2.554 2.947-3.339.196-.197.392-.197.589-.393.393-.197.786-.393 1.178-.393.982-.196 1.768-.393 2.75-.589.393 0 .59-.393.59-.59 0-.392-.393-.589-.786-.589-.982.197-1.964.197-2.75.393-.786-.982-1.179-2.161-.982-2.946.196-1.179 1.571-2.161 3.535-2.947 4.518-1.571 11.59 0 13.357 1.964 1.768 1.768.393 3.733 0 4.518-.589-.196-1.375-.196-1.964-.393-.196 0-.59.197-.59.393-.196.393 0 .59.394.786.982.393 2.16.786 2.946 1.178.786.393 1.375 1.179 2.16 1.965.786.785 1.376 1.768 1.768 2.75.59.982.983 1.964 1.375 2.946.393.982.786 1.964.982 2.946-.196 1.375-.392 2.161-.982 2.947Z" fill="#000"/></g><mask id="c" style="mask-type:luminance" maskUnits="userSpaceOnUse" x="0" y="68" width="48" height="86"><path d="M47.142 68.11H0v85.444h47.142V68.109Z" fill="#fff"/></mask><g mask="url(#c)"><path d="M32.21 134.894c-.197-.982-.59-1.965-.983-2.947s-.982-1.964-1.375-2.946c-.59-.982-1.179-1.964-1.768-2.75-.785-.786-1.375-1.571-2.16-1.964-.786-.589-1.768-.786-2.947-1.179-.393-.196-.59-.393-.393-.785 0-.197.393-.393.59-.393.589 0 1.375.196 1.964.393.59-.59 1.768-2.75 0-4.518-1.768-1.964-8.84-3.536-13.357-1.964-1.964.785-3.143 1.767-3.536 2.946-.196.982.197 1.964.983 2.946.982-.196 1.964-.393 2.75-.393.392 0 .589.197.785.59 0 .393-.196.589-.59.589-.981.196-1.963.393-2.75.589-.392.197-.785.197-1.178.393-.196 0-.392.197-.589.393-1.178.786-2.357 1.964-2.946 3.339-1.572 2.75-2.357 6.089-2.554 9.232v4.911c.197 1.571.197 3.339.59 4.714.196.786.589 1.375.982 1.768a3.81 3.81 0 0 0 1.767.982c.393.196.786.196 1.375.196.786 0 1.572-.196 2.358-.589-.197-1.375-.393-2.75-.393-4.125 0-.393.393-.589.589-.589.393 0 .59.196.59.589.392 1.375.588 2.75.981 3.928.393 1.179.982 2.358 1.965 2.554a5.449 5.449 0 0 0 3.535 0c.982-.393 1.768-.982 2.16-1.768 0-.196-.196-.196-.196-.393-.196-.393-.196-.785-.392-1.178-.197-1.375-.393-2.75-.393-4.125 0-.393.393-.589.589-.589.393 0 .59.196.59.589.196 1.178.392 2.553.785 3.732.196.589.393.982.786 1.375s.785.589 1.375.786c.982.392 2.16.196 2.946-.197s1.375-1.375 1.571-2.553c.197-1.179.197-2.161-.196-3.536-.197-1.179-.59-2.553-.786-3.732-.589-2.554-.982-5.303-.982-7.857 0-.393.197-.589.59-.589.392 0 .589.196.589.589.196 2.554.982 5.107 1.571 7.661l.59 2.357c1.374-.982 2.75-2.161 3.535-3.536.982-1.179 1.179-1.964.982-2.946Zm-14.143-8.643c0 .196-.197.196-.393.393-1.179.393-2.16.589-3.34.589-1.178 0-2.16 0-3.339-.196-.196 0-.393-.393-.393-.59 0-.196.197-.196.197-.392.982-.59 2.16-.786 3.34-.983h1.767c.59 0 1.178.197 1.768.393.393.197.589.59.393.786Z" fill="#fff"/></g><mask id="d" style="mask-type:luminance" maskUnits="userSpaceOnUse" x="0" y="68" width="48" height="86"><path d="M47.142 68.11H0v85.444h47.142V68.109Z" fill="#fff"/></mask><g mask="url(#d)"><path d="M18.073 126.251c0 .196-.196.196-.392.393-1.179.393-2.161.589-3.34.589-1.178 0-2.16 0-3.339-.197-.196 0-.393-.392-.393-.589 0-.196.197-.196.197-.393.982-.589 2.16-.785 3.339-.982h1.768c.589 0 1.178.197 1.768.393.392.197.589.589.392.786Z" fill="#000"/></g><mask id="e" style="mask-type:luminance" maskUnits="userSpaceOnUse" x="150" y="0" width="48" height="86"><path d="M150.714 85.444h47.141V0h-47.141v85.444Z" fill="#fff"/></mask><g mask="url(#e)"><path d="M180.765 32.804c2.357 0 4.321 1.964 4.321 4.321 0 11.785-3.536 22.785-10.214 32.213-5.696 8.25-12.768 13.16-17.482 15.321-2.16.982-4.714 0-5.696-2.16-.982-2.16 0-4.714 2.161-5.697 5.696-2.553 22.195-15.32 22.392-39.48 0-2.554 1.964-4.518 4.518-4.518Z" fill="#000"/></g><mask id="f" style="mask-type:luminance" maskUnits="userSpaceOnUse" x="150" y="0" width="48" height="86"><path d="M150.714 85.444h47.141V0h-47.141v85.444Z" fill="#fff"/></mask><g mask="url(#f)"><path d="M163.678 18.857c.196 1.178.589 2.357 1.178 3.34.982 2.16 2.161 4.124 3.536 6.088.393.393.785.982 1.178 1.375.393.393.786.59 1.179.786-1.179 1.571-1.964 4.518.393 6.875 2.553 2.553 10.606 4.321 15.714 2.357 3.339-1.179 4.517-3.143 4.714-4.518.393-1.375 0-2.946-.982-4.321h.196c1.768-.786 2.946-2.357 3.928-3.732 1.768-3.143 2.75-6.482 2.947-10.018.196-1.768 0-3.535 0-5.107-.197-1.768-.197-3.535-.786-5.303-.196-.982-.589-1.768-1.375-2.554-.786-.785-1.768-1.178-2.75-1.375-1.571-.393-3.143-.196-4.518.59-.196-.197-.196-.59-.392-.786-.393-.786-1.179-1.572-2.161-1.768a7.042 7.042 0 0 0-4.911 0c-1.178.393-2.357 1.179-3.142 2.357-.393-.196-.59-.393-.983-.393-1.571-.589-3.142-.393-4.714.393-1.571.786-2.357 2.357-2.553 3.929a10.65 10.65 0 0 0 0 3.535c-1.964 1.179-3.732 2.554-4.911 4.714-.589.786-.982 2.161-.785 3.536Zm2.553-2.75c.786-1.375 2.161-2.553 3.536-3.536l.589 2.357c.589 2.554 1.375 5.107 1.571 7.661 0 .393.393.59.59.59.392 0 .589-.197.589-.59 0-2.75-.393-5.303-.982-7.857-.197-1.375-.59-2.553-.786-3.732-.196-1.179-.393-2.357-.196-3.536.196-1.178.785-1.964 1.571-2.553.786-.393 1.964-.59 2.946-.197.59.197.982.393 1.375.786s.59.59.786 1.375c.393 1.179.589 2.357.786 3.732 0 .393.393.59.589.59.393 0 .589-.197.589-.59 0-1.375 0-2.75-.393-4.125 0-.393-.196-.785-.392-1.178 0-.197-.197-.197-.197-.393.589-.786 1.375-1.571 2.161-1.768a5.449 5.449 0 0 1 3.535 0c.786.197 1.572 1.375 1.965 2.554.392 1.178.785 2.553.982 3.928 0 .196.393.59.589.59.393 0 .589-.197.589-.59 0-1.375 0-2.75-.393-4.125.59-.393 1.572-.59 2.358-.59.392 0 .785 0 1.375.197.589.197 1.374.59 1.767.982.393.393.786.983.982 1.768.393 1.375.59 3.143.59 4.714.196 1.572.196 3.34 0 4.911-.197 3.143-.982 6.482-2.554 9.232-.785 1.375-1.768 2.553-2.946 3.34-.197.196-.393.196-.589.392-.393.196-.786.393-1.179.393-.982.196-1.768.393-2.75.59-.393 0-.589.392-.589.588 0 .393.393.59.786.59.982-.197 1.964-.197 2.749-.393.786.982 1.179 2.16.983 2.946-.197 1.179-1.572 2.16-3.536 2.947-4.518 1.57-11.589 0-13.357-1.965-1.768-1.768-.393-3.732 0-4.518.589.197 1.375.197 1.964.393.197 0 .59-.196.59-.393.196-.392 0-.589-.393-.785-.982-.393-2.161-.786-2.947-1.179-.785-.393-1.374-1.178-2.16-1.964s-1.375-1.768-1.768-2.75c-.589-.982-.982-1.964-1.375-2.946-.393-.982-.786-1.965-.982-2.947.196-1.375.393-2.16.982-2.946Z" fill="#000"/></g><mask id="g" style="mask-type:luminance" maskUnits="userSpaceOnUse" x="150" y="0" width="48" height="86"><path d="M150.714 85.444h47.141V0h-47.141v85.444Z" fill="#fff"/></mask><g mask="url(#g)"><path d="M165.639 18.66c.196.982.589 1.964.982 2.946.393.982.982 1.965 1.375 2.947.589.982 1.178 1.964 1.767 2.75.786.785 1.375 1.571 2.161 1.964.786.59 1.768.786 2.947 1.178.392.197.589.393.392.786 0 .197-.393.393-.589.393-.589 0-1.375-.196-1.964-.393-.589.59-1.768 2.75 0 4.518 1.768 1.964 8.839 3.535 13.357 1.964 1.964-.786 3.142-1.768 3.535-2.946.197-.982-.196-1.965-.982-2.947-.982.197-1.964.393-2.75.393-.393 0-.589-.196-.785-.589 0-.393.196-.59.589-.59.982-.196 1.964-.392 2.75-.589.393-.196.785-.196 1.178-.392.197 0 .393-.197.59-.393 1.178-.786 2.357-1.965 2.946-3.34 1.571-2.75 2.357-6.089 2.553-9.231v-4.91c-.196-1.572-.196-3.34-.589-4.715a3.793 3.793 0 0 0-.982-1.768 3.798 3.798 0 0 0-1.768-.982c-.393-.196-.785-.196-1.375-.196-.785 0-1.571.196-2.357.589.197 1.375.393 2.75.393 4.125 0 .393-.393.589-.589.589-.393 0-.59-.196-.59-.59-.392-1.374-.589-2.75-.982-3.928-.392-1.178-.982-2.357-1.964-2.553a5.452 5.452 0 0 0-3.536 0c-.982.393-1.767.982-2.16 1.768 0 .196.196.196.196.392.197.393.197.786.393 1.179.197 1.375.393 2.75.393 4.125 0 .393-.393.59-.589.59-.393 0-.59-.197-.59-.59-.196-1.179-.392-2.554-.785-3.732-.197-.59-.393-.982-.786-1.375s-.786-.59-1.375-.786c-.982-.393-2.161-.196-2.946.197-.786.392-1.375 1.375-1.572 2.553-.196 1.179-.196 2.16.197 3.536.196 1.178.589 2.553.785 3.732.59 2.553.983 5.303.983 7.857 0 .392-.197.589-.59.589-.393 0-.589-.197-.589-.59-.196-2.553-.982-5.106-1.571-7.66l-.59-2.357c-1.375.982-2.75 2.16-3.535 3.536-.982 1.178-1.179 1.964-.982 2.946Zm14.142 8.643c0-.197.197-.197.393-.393 1.179-.393 2.161-.59 3.339-.59 1.179 0 2.161 0 3.339.197.197 0 .393.393.393.59 0 .196-.196.196-.196.392-.982.59-2.161.786-3.339.982h-1.768c-.59 0-1.179-.196-1.768-.393-.393-.196-.589-.589-.393-.785Z" fill="#fff"/></g><mask id="h" style="mask-type:luminance" maskUnits="userSpaceOnUse" x="150" y="0" width="48" height="86"><path d="M150.714 85.444h47.141V0h-47.141v85.444Z" fill="#fff"/></mask><g mask="url(#h)"><path d="M179.782 27.303c0-.197.196-.197.393-.393 1.178-.393 2.161-.59 3.339-.59 1.179 0 2.161 0 3.339.197.197 0 .393.393.393.59 0 .196-.196.196-.196.392-.982.59-2.161.786-3.34.982h-1.767c-.59 0-1.179-.196-1.768-.392-.393-.197-.589-.59-.393-.786Z" fill="#000"/></g><mask id="i" style="mask-type:luminance" maskUnits="userSpaceOnUse" x="2" y="121" width="165" height="132"><path d="M166.574 121.928H2.954v131.014h163.62V121.928Z" fill="#fff"/></mask><g mask="url(#i)"><path fill-rule="evenodd" clip-rule="evenodd" d="M75.037 127.036s-7.071 42.427-18.268 82.694c-.785 2.946.983 5.893 3.733 6.678 2.946.786 5.892-.982 6.678-3.732C78.376 171.82 85.644 129 85.644 129c.589-2.947-1.572-5.893-4.518-6.286-2.75-.785-5.5 1.179-6.09 4.322Z" fill="#000"/></g><mask id="j" style="mask-type:luminance" maskUnits="userSpaceOnUse" x="2" y="121" width="165" height="132"><path d="M166.574 121.928H2.954v131.014h163.62V121.928Z" fill="#fff"/></mask><g mask="url(#j)"><path fill-rule="evenodd" clip-rule="evenodd" d="M48.718 213.068s-1.768-5.696 3.535-7.268c5.107-1.571 11.786 1.179 15.518 3.536 3.732 2.357 5.893 7.268 2.16 10.607 0 0 .59 15.517-.785 22.785-1.375 7.268.59 8.839-17.678 6.875-18.464-1.964-35.946-8.25-42.82-14.928-5.5-5.107-5.5-15.911 2.946-22.786 8.446-6.874 22.785-5.303 30.642 3.732-.197.197 2.75.393 6.482-2.553Zm85.051-14.535s-3.928 6.678.982 10.803c0 0-.393 6.678-4.321 10.41 0 0-7.071-.589-13.357 5.304-6.285 5.893-6.482 18.071-2.161 22.981 3.733 4.125 10.804 4.715 20.625 4.518 10.018-.196 17.482-4.125 21.606-11.392 4.125-7.268 9.232-29.66 8.447-34.964-.786-5.303-9.821-10.214-13.75-11.785 0 0-.786-2.947-3.928-3.732-3.536-1.179-9.036.393-14.143 7.857Z" fill="#fff"/></g><mask id="k" style="mask-type:luminance" maskUnits="userSpaceOnUse" x="2" y="121" width="165" height="132"><path d="M166.574 121.928H2.954v131.014h163.62V121.928Z" fill="#fff"/></mask><g mask="url(#k)"><path fill-rule="evenodd" clip-rule="evenodd" d="M16.508 224.461c-6.482-3.536-10.214-2.161-11.196-1.768-.197 1.179-.197 2.554-.197 3.732l11.393-1.964Zm1.571.982L5.312 227.8c.393 1.964 1.178 3.929 2.357 5.304.982-.197 9.625-1.375 15.321-3.34-1.571-1.767-3.34-3.142-4.91-4.321Zm5.697 5.304c-4.91 1.767-12.571 2.946-15.125 3.339l.196.196c1.572 1.572 3.733 2.947 6.286 4.321 0 0 6.875-.785 13.357-2.749-.59-.59-1.179-1.375-1.768-1.965-.982-.982-1.964-2.16-2.946-3.142Zm5.696 6.285c-4.91 1.375-10.018 2.357-12.571 2.554 2.946 1.375 6.089 2.75 9.821 4.124 0 0 4.321-.785 8.053-1.571a44.2 44.2 0 0 1-5.303-5.107Zm6.09 5.893c-2.358.589-5.108 1.178-6.876 1.571 4.714 1.375 9.625 2.75 14.928 3.536a37.43 37.43 0 0 1-8.053-5.107Zm34.373-23.571c2.947-3.143.982-7.268-2.357-9.428-3.732-2.357-10.018-5.107-15.125-3.536-3.732 1.179-3.535 4.714-3.142 6.089 1.178-.196 3.732-.589 7.267.589.393 0 .393.393.393.786s-.393.393-.785.393c-3.929-1.179-6.679-.589-7.072-.393-2.357 1.964-4.517 2.554-5.892 2.554 1.178 1.375 3.142 4.517 3.732 8.446 0 .393-.197.589-.59.589-.392 0-.589-.196-.589-.589-.786-5.107-4.125-8.643-4.125-8.643-7.66-8.839-21.606-10.41-29.856-3.732-2.357 1.964-4.125 4.321-5.107 6.679 1.768-.393 5.303-.786 10.017 1.178 6.09 2.357 10.41 7.661 14.34 12.375 3.928 4.518 7.66 7.857 12.178 10.214.196.196.392.589.196.785-.196.197-.59.393-.786.197-4.517-2.357-8.446-5.696-12.374-10.411-3.732-4.321-7.857-9.624-13.75-11.981-5.696-2.161-9.232-1.179-10.214-.786-.196.393-.196.589-.196.982 1.767-.589 5.892-1.178 11.981 2.357.393.197.59.393.982.589 3.143 2.161 5.893 5.304 9.036 9.036 5.107 5.696 11.196 12.375 21.214 15.517.785.197 1.768.197 2.553.393 6.482.786 10.41.982 12.964.589 1.375-.196 2.357-.589 2.75-1.178.197-.393.393-.589.59-1.179-3.143.59-10.411.786-18.268-1.178-.393 0-.59-.393-.393-.786 0-.393.393-.589.786-.393 8.25 1.965 15.91 1.768 18.267.982.197-.982.393-2.16.59-3.535 1.178-6.679.785-20.625.785-22.392-.59-.59-2.75-2.554-7.464-4.322-.393-.196-.393-.393-.393-.785.197-.393.393-.393.786-.393 3.732 1.571 6.09 3.535 7.071 4.321ZM4.33 222.3c-.982 5.107.589 9.821 3.732 12.964 7.071 6.679 24.75 13.161 43.213 15.125l-2.553-.393c.785.196 1.767.196 2.553.393 6.678.786 10.607.982 13.16.589 1.768-.196 2.947-.786 3.536-1.571.393-.59.786-1.179.982-2.161v-.393c.197-.982.393-2.357.59-3.928 1.178-6.679.785-20.625.785-22.589 3.928-3.732 1.768-8.839-2.357-11.392-3.928-2.554-10.803-5.5-16.107-3.733-4.91 1.572-4.321 6.286-3.928 7.661-2.75 2.161-5.107 2.357-5.893 2.357-8.25-9.035-22.785-10.607-31.231-3.536-3.732 2.947-5.697 6.875-6.482 10.607Zm146.924-27.892s-.785-2.75-3.535-3.339c-1.572-.393-3.732-.196-6.089.786a25.422 25.422 0 0 0 1.571 1.178c2.357 1.964 1.964 4.714 0 7.071-2.161 2.554-4.518 3.34-6.875 1.375 0 0-.982-.785-2.357-1.964-.393.589-.785 1.768-.982 2.947-.393 1.964-.196 4.517 1.964 6.285.197.197 1.768 1.179 4.125.786 1.768-.197 3.929-.982 6.482-3.339.197-.197.589-.197.786 0 .196.196.196.589 0 .785-2.75 2.554-5.107 3.34-7.071 3.536-1.768.196-3.34-.196-4.125-.589-.197 1.767-.982 6.089-3.536 9.035 2.554.393 8.643 1.572 13.161 7.071.196.197.196.59 0 .786-.197.196-.59.196-.786 0-5.304-6.482-13.357-6.678-13.357-6.678-.196 0-6.875-.59-12.964 5.107-3.536 3.339-5.107 9.035-4.91 13.946.196 2.357.589 4.517 1.374 6.089 1.179.393 7.661 2.75 19.054 2.553 6.678-.196 12.178-1.178 16.303-4.517 2.75-2.161 5.107-5.5 7.071-10.214l1.178-2.947c.197-.393.393-.393.786-.393.393.197.393.393.393.786l-1.179 2.946c-1.964 4.911-4.517 8.447-7.464 10.804-4.517 3.535-10.017 4.517-17.088 4.714-9.232.196-15.322-1.179-18.071-2.161.196.197.196.393.392.393 1.768 1.964 4.322 3.143 7.661 3.732 3.339.589 7.66.786 12.571.589 9.625-.196 17.089-3.928 21.214-11.196 2.553-4.321 5.303-14.142 6.875-22.392.982-5.107 1.571-9.625 1.571-11.982-.589 5.107-2.161 12.375-4.911 20.035-.196.393-.392.393-.785.393-.393-.196-.393-.393-.393-.785 3.143-9.036 4.714-17.482 5.107-22.393-.786-1.178-1.768-2.357-2.946-3.339-2.75-2.357-6.286-4.321-8.643-5.303 0 1.178-.197 3.142-1.768 5.892-.196.197-.589.393-.786.197-.196-.197-.392-.59-.196-.786 1.768-3.339 1.178-5.5 1.178-5.5Zm-18.267 4.322c-.393.589-.982 1.964-1.178 3.535-.393 2.357-.197 5.107 2.16 7.268-.196 1.178-.785 6.482-3.928 9.625-1.375 0-7.857 0-13.553 5.499-3.929 3.536-5.5 9.625-5.304 14.929.197 2.553.589 4.91 1.572 6.678v.196c.392.786.785 1.375 1.374 1.965 1.965 2.16 4.715 3.339 8.447 4.125 3.535.589 7.857.785 12.767.589 10.214-.197 17.875-4.322 22.196-11.786 2.554-4.517 5.303-14.339 7.071-22.588 1.179-5.697 1.768-10.607 1.375-12.768-.393-2.16-1.964-4.518-4.125-6.285-3.142-2.75-7.071-4.715-9.624-5.697-.393-.785-1.375-3.142-4.125-3.928-1.964-.589-4.518-.393-7.268 1.178-2.75-2.357-7.66-6.678-12.178-11.392-4.125-4.321-8.25-9.036-9.625-12.768-1.571-4.125-.982-10.607-.196-16.892 1.375-10.411 4.125-20.428 4.125-20.428.785-2.946-.786-5.893-3.733-6.679-2.946-.785-5.892.786-6.678 3.733 0 0-4.125 14.731-5.107 27.695-.393 6.286-.196 12.178 1.375 16.303 1.375 3.536 4.518 8.054 8.25 12.571 5.303 5.893 11.982 11.982 15.91 15.322Z" fill="#000"/></g><path fill-rule="evenodd" clip-rule="evenodd" d="m145.176 53.26 16.61 26.798c-30.991 48.981-66.811 83.846-102.684 35.98L81.92 85.471c11.197 11.463 13.055 13.055 28.975 18.361l34.281-50.572Z" fill="#01ACED"/><path fill-rule="evenodd" clip-rule="evenodd" d="M110.949 103.779c17.778 1.062 24.199-1.592 39.853-7.323 3.715-5.2 7.377-10.72 10.985-16.398l-16.61-26.798-34.228 50.519Z" fill="#215686"/><path fill-rule="evenodd" clip-rule="evenodd" d="M45.726 92.212 29.86 64.936C62.177 16.857 98.952-17 133.5 31.822l-23.987 29.717C98.634 49.76 97.095 48.326 81.334 42.647L45.726 92.213Z" fill="#01ACED"/><path fill-rule="evenodd" clip-rule="evenodd" d="M81.334 42.646c-17.777-1.592-24.251.85-40.065 6.21-3.821 5.093-7.642 10.506-11.41 16.078L45.726 92.21l35.608-49.564Z" fill="#215686"/><path fill-rule="evenodd" clip-rule="evenodd" d="M70.458 38.244h21.227l26.692 43.196 31.256-43.302h8.066l-46.751 65.696-19.423-31.415-23.137 31.415-40.49-65.59h21.227L75.871 81.44l11.834-15.23-17.247-27.966Z" fill="#CE4040"/></svg>