<svg width="24" height="24" viewBox="0 0 24 24" fill="none" xmlns="http://www.w3.org/2000/svg">
<path fill-rule="evenodd" clip-rule="evenodd" d="M4 7.625C3.24061 7.625 2.625 8.24061 2.625 9V19C2.625 19.7594 3.24061 20.375 4 20.375H20C20.7594 20.375 21.375 19.7594 21.375 19V9C21.375 8.24061 20.7594 7.625 20 7.625H4ZM1.375 9C1.375 7.55025 2.55025 6.375 4 6.375H20C21.4497 6.375 22.625 7.55025 22.625 9V19C22.625 20.4497 21.4497 21.625 20 21.625H4C2.55025 21.625 1.375 20.4497 1.375 19V9Z" fill="#01ACED"/>
<path fill-rule="evenodd" clip-rule="evenodd" d="M8.14385 3.14384C8.63613 2.65156 9.30381 2.375 10 2.375H14C14.6962 2.375 15.3639 2.65156 15.8562 3.14384C16.3484 3.63613 16.625 4.30381 16.625 5V21C16.625 21.3452 16.3452 21.625 16 21.625C15.6548 21.625 15.375 21.3452 15.375 21V5C15.375 4.63533 15.2301 4.28559 14.9723 4.02773C14.7144 3.76987 14.3647 3.625 14 3.625H10C9.63533 3.625 9.28559 3.76987 9.02773 4.02773C8.76987 4.28559 8.625 4.63533 8.625 5V21C8.625 21.3452 8.34518 21.625 8 21.625C7.65482 21.625 7.375 21.3452 7.375 21V5C7.375 4.30381 7.65156 3.63613 8.14385 3.14384Z" fill="#01ACED"/>
</svg>
