<svg width="24" height="24" viewBox="0 0 24 24" fill="none" xmlns="http://www.w3.org/2000/svg">
<path fill-rule="evenodd" clip-rule="evenodd" d="M14 6.75079C14 6.33627 14.336 6.00024 14.7505 6.00024H15.7505C16.48 6.00024 17.1796 6.29003 17.6955 6.80586C18.2113 7.32169 18.5011 8.0213 18.5011 8.75079V14.7508C18.5011 15.4803 18.2113 16.1799 17.6955 16.6957C17.1796 17.2115 16.48 17.5013 15.7505 17.5013H13.7505C13.336 17.5013 13 17.1653 13 16.7508C13 16.3363 13.336 16.0002 13.7505 16.0002H15.7505C16.0819 16.0002 16.3997 15.8686 16.634 15.6343C16.8684 15.4 17 15.0822 17 14.7508V8.75079C17 8.41941 16.8684 8.10161 16.634 7.86729C16.3997 7.63297 16.0819 7.50134 15.7505 7.50134H14.7505C14.336 7.50134 14 7.1653 14 6.75079Z" fill="#01ACED"/>
<path fill-rule="evenodd" clip-rule="evenodd" d="M1.80562 6.80586C2.32144 6.29003 3.02106 6.00024 3.75055 6.00024H5.75055C6.16506 6.00024 6.50109 6.33627 6.50109 6.75079C6.50109 7.1653 6.16506 7.50134 5.75055 7.50134H3.75055C3.41917 7.50134 3.10137 7.63297 2.86705 7.86729C2.63273 8.10161 2.50109 8.41941 2.50109 8.75079V14.7508C2.50109 15.0822 2.63273 15.4 2.86705 15.6343C3.10137 15.8686 3.41917 16.0002 3.75055 16.0002H4.75055C5.16506 16.0002 5.50109 16.3363 5.50109 16.7508C5.50109 17.1653 5.16506 17.5013 4.75055 17.5013H3.75055C3.02106 17.5013 2.32144 17.2115 1.80562 16.6957C1.28979 16.1799 1 15.4803 1 14.7508V8.75079C1 8.0213 1.28979 7.32169 1.80562 6.80586Z" fill="#01ACED"/>
<path fill-rule="evenodd" clip-rule="evenodd" d="M11.1367 6.10707C11.4921 6.32034 11.6074 6.78137 11.3941 7.13681L9.07615 11.0001H11.7505C12.0209 11.0001 12.2704 11.1456 12.4037 11.3809C12.5369 11.6162 12.5333 11.9049 12.3941 12.1368L9.39413 17.1368C9.18087 17.4923 8.71984 17.6075 8.36439 17.3942C8.00895 17.181 7.89369 16.7199 8.10696 16.3645L10.4249 12.5012H7.75055C7.48014 12.5012 7.23065 12.3558 7.09742 12.1205C6.96419 11.8851 6.96784 11.5964 7.10696 11.3645L10.107 6.36451C10.3202 6.00906 10.7813 5.89381 11.1367 6.10707Z" fill="#01ACED"/>
<path fill-rule="evenodd" clip-rule="evenodd" d="M21.7505 9.75073C22.1651 9.75073 22.5011 10.0868 22.5011 10.5013V12.5013C22.5011 12.9158 22.1651 13.2518 21.7505 13.2518C21.336 13.2518 21 12.9158 21 12.5013V10.5013C21 10.0868 21.336 9.75073 21.7505 9.75073Z" fill="#01ACED"/>
</svg>
