<svg width="24" height="24" viewBox="0 0 24 24" fill="none" xmlns="http://www.w3.org/2000/svg">
<path fill-rule="evenodd" clip-rule="evenodd" d="M5.99844 2.5999C5.22524 2.5999 4.59844 3.2267 4.59844 3.9999V19.9999C4.59844 20.7731 5.22524 21.3999 5.99844 21.3999H17.9984C18.7716 21.3999 19.3984 20.7731 19.3984 19.9999V3.9999C19.3984 3.2267 18.7716 2.5999 17.9984 2.5999H5.99844ZM3.39844 3.9999C3.39844 2.56396 4.5625 1.3999 5.99844 1.3999H17.9984C19.4344 1.3999 20.5984 2.56396 20.5984 3.9999V19.9999C20.5984 21.4358 19.4344 22.5999 17.9984 22.5999H5.99844C4.5625 22.5999 3.39844 21.4358 3.39844 19.9999V3.9999Z" fill="#01ACED"/>
<path fill-rule="evenodd" clip-rule="evenodd" d="M7.35156 6.0001C7.35156 5.64111 7.64258 5.3501 8.00156 5.3501H16.0016C16.3605 5.3501 16.6516 5.64111 16.6516 6.0001C16.6516 6.35908 16.3605 6.6501 16.0016 6.6501H8.00156C7.64258 6.6501 7.35156 6.35908 7.35156 6.0001Z" fill="#01ACED"/>
<path fill-rule="evenodd" clip-rule="evenodd" d="M16.0016 13.3501C16.3605 13.3501 16.6516 13.6411 16.6516 14.0001V18.0001C16.6516 18.3591 16.3605 18.6501 16.0016 18.6501C15.6426 18.6501 15.3516 18.3591 15.3516 18.0001V14.0001C15.3516 13.6411 15.6426 13.3501 16.0016 13.3501Z" fill="#01ACED"/>
<path fill-rule="evenodd" clip-rule="evenodd" d="M15.3008 10C15.3008 9.61345 15.6142 9.30005 16.0008 9.30005H16.0108C16.3974 9.30005 16.7108 9.61345 16.7108 10C16.7108 10.3866 16.3974 10.7 16.0108 10.7H16.0008C15.6142 10.7 15.3008 10.3866 15.3008 10Z" fill="#01ACED"/>
<path fill-rule="evenodd" clip-rule="evenodd" d="M11.3008 10C11.3008 9.61345 11.6142 9.30005 12.0008 9.30005H12.0108C12.3974 9.30005 12.7108 9.61345 12.7108 10C12.7108 10.3866 12.3974 10.7 12.0108 10.7H12.0008C11.6142 10.7 11.3008 10.3866 11.3008 10Z" fill="#01ACED"/>
<path fill-rule="evenodd" clip-rule="evenodd" d="M7.30078 10C7.30078 9.61345 7.61418 9.30005 8.00078 9.30005H8.01078C8.39738 9.30005 8.71078 9.61345 8.71078 10C8.71078 10.3866 8.39738 10.7 8.01078 10.7H8.00078C7.61418 10.7 7.30078 10.3866 7.30078 10Z" fill="#01ACED"/>
<path fill-rule="evenodd" clip-rule="evenodd" d="M11.3008 14C11.3008 13.6134 11.6142 13.3 12.0008 13.3H12.0108C12.3974 13.3 12.7108 13.6134 12.7108 14C12.7108 14.3866 12.3974 14.7 12.0108 14.7H12.0008C11.6142 14.7 11.3008 14.3866 11.3008 14Z" fill="#01ACED"/>
<path fill-rule="evenodd" clip-rule="evenodd" d="M7.30078 14C7.30078 13.6134 7.61418 13.3 8.00078 13.3H8.01078C8.39738 13.3 8.71078 13.6134 8.71078 14C8.71078 14.3866 8.39738 14.7 8.01078 14.7H8.00078C7.61418 14.7 7.30078 14.3866 7.30078 14Z" fill="#01ACED"/>
<path fill-rule="evenodd" clip-rule="evenodd" d="M11.3008 18C11.3008 17.6134 11.6142 17.3 12.0008 17.3H12.0108C12.3974 17.3 12.7108 17.6134 12.7108 18C12.7108 18.3866 12.3974 18.7 12.0108 18.7H12.0008C11.6142 18.7 11.3008 18.3866 11.3008 18Z" fill="#01ACED"/>
<path fill-rule="evenodd" clip-rule="evenodd" d="M7.30078 18C7.30078 17.6134 7.61418 17.3 8.00078 17.3H8.01078C8.39738 17.3 8.71078 17.6134 8.71078 18C8.71078 18.3866 8.39738 18.7 8.01078 18.7H8.00078C7.61418 18.7 7.30078 18.3866 7.30078 18Z" fill="#01ACED"/>
</svg>
