<svg width="26" height="26" viewBox="0 0 26 26" fill="none" xmlns="http://www.w3.org/2000/svg">
<path fill-rule="evenodd" clip-rule="evenodd" d="M12.9984 2.6501C18.7146 2.6501 23.3484 7.28395 23.3484 13.0001C23.3484 18.7162 18.7146 23.3501 12.9984 23.3501C7.28229 23.3501 2.64844 18.7162 2.64844 13.0001C2.64844 7.28395 7.28229 2.6501 12.9984 2.6501ZM24.6484 13.0001C24.6484 6.56598 19.4326 1.3501 12.9984 1.3501C6.56432 1.3501 1.34844 6.56598 1.34844 13.0001C1.34844 19.4342 6.56432 24.6501 12.9984 24.6501C19.4326 24.6501 24.6484 19.4342 24.6484 13.0001Z" fill="#01ACED"/>
<path fill-rule="evenodd" clip-rule="evenodd" d="M11.9984 8.3501C11.6395 8.3501 11.3484 8.64111 11.3484 9.0001V15.0001C11.3484 15.3591 11.6395 15.6501 11.9984 15.6501H17.9984C18.3574 15.6501 18.6484 15.3591 18.6484 15.0001C18.6484 14.6411 18.3574 14.3501 17.9984 14.3501H12.6484V9.0001C12.6484 8.64111 12.3574 8.3501 11.9984 8.3501Z" fill="#01ACED"/>
</svg>
