<svg width="24" height="24" viewBox="0 0 24 24" fill="none" xmlns="http://www.w3.org/2000/svg">
<path fill-rule="evenodd" clip-rule="evenodd" d="M20.6779 3.32122C21.0528 3.69612 21.0528 4.30396 20.6779 4.67886L4.67788 20.6789C4.30298 21.0538 3.69514 21.0538 3.32024 20.6789C2.94534 20.304 2.94534 19.6961 3.32024 19.3212L19.3202 3.32122C19.6951 2.94631 20.303 2.94631 20.6779 3.32122Z" fill="#01ACED"/>
<path fill-rule="evenodd" clip-rule="evenodd" d="M3.32024 3.32122C3.69514 2.94631 4.30298 2.94631 4.67788 3.32122L20.6779 19.3212C21.0528 19.6961 21.0528 20.304 20.6779 20.6789C20.303 21.0538 19.6951 21.0538 19.3202 20.6789L3.32024 4.67886C2.94534 4.30396 2.94534 3.69612 3.32024 3.32122Z" fill="#01ACED"/>
</svg>
