<svg width="24" height="24" viewBox="0 0 24 24" fill="none" xmlns="http://www.w3.org/2000/svg">
<path fill-rule="evenodd" clip-rule="evenodd" d="M5 8.75C4.30964 8.75 3.75 9.30964 3.75 10V20C3.75 20.6904 4.30964 21.25 5 21.25H11C11.6904 21.25 12.25 20.6904 12.25 20V10C12.25 9.30964 11.6904 8.75 11 8.75H5ZM2.25 10C2.25 8.48122 3.48122 7.25 5 7.25H11C12.5188 7.25 13.75 8.48122 13.75 10V20C13.75 21.5188 12.5188 22.75 11 22.75H5C3.48122 22.75 2.25 21.5188 2.25 20V10Z" fill="black"/>
<path fill-rule="evenodd" clip-rule="evenodd" d="M7 2.75C6.66848 2.75 6.35054 2.8817 6.11612 3.11612C5.8817 3.35054 5.75 3.66848 5.75 4C5.75 4.41421 5.41421 4.75 5 4.75C4.58579 4.75 4.25 4.41421 4.25 4C4.25 3.27065 4.53973 2.57118 5.05546 2.05546C5.57118 1.53973 6.27065 1.25 7 1.25H19C19.7293 1.25 20.4288 1.53973 20.9445 2.05546C21.4603 2.57118 21.75 3.27065 21.75 4V20C21.75 20.7293 21.4603 21.4288 20.9445 21.9445C20.4288 22.4603 19.7293 22.75 19 22.75H16.6C16.1858 22.75 15.85 22.4142 15.85 22C15.85 21.5858 16.1858 21.25 16.6 21.25H19C19.3315 21.25 19.6495 21.1183 19.8839 20.8839C20.1183 20.6495 20.25 20.3315 20.25 20V4C20.25 3.66848 20.1183 3.35054 19.8839 3.11612C19.6495 2.8817 19.3315 2.75 19 2.75H7Z" fill="black"/>
<path fill-rule="evenodd" clip-rule="evenodd" d="M7.14844 17.9999C7.14844 17.5305 7.529 17.1499 7.99844 17.1499H8.00844C8.47788 17.1499 8.85844 17.5305 8.85844 17.9999C8.85844 18.4693 8.47788 18.8499 8.00844 18.8499H7.99844C7.529 18.8499 7.14844 18.4693 7.14844 17.9999Z" fill="black"/>
</svg>
