<svg width="24" height="24" viewBox="0 0 24 24" fill="none" xmlns="http://www.w3.org/2000/svg">
<path d="M20.9375 20H3.0625C1.92125 20 1 19.0787 1 17.9375V5.5625C1 4.42125 1.92125 3.5 3.0625 3.5H20.9375C22.0787 3.5 23 4.42125 23 5.5625V17.9375C23 19.0787 22.0787 20 20.9375 20ZM3.0625 4.875C2.6775 4.875 2.375 5.1775 2.375 5.5625V17.9375C2.375 18.3225 2.6775 18.625 3.0625 18.625H20.9375C21.3225 18.625 21.625 18.3225 21.625 17.9375V5.5625C21.625 5.1775 21.3225 4.875 20.9375 4.875H3.0625Z" fill="#01ACED"/>
<path d="M11.9987 14.4451C11.0362 14.4451 10.1562 14.0601 9.49623 13.3589L2.27748 5.68635C2.01623 5.41135 2.02998 4.97135 2.30498 4.7101C2.57998 4.44885 3.01998 4.4626 3.28123 4.7376L10.5 12.4101C11.2837 13.2489 12.7137 13.2489 13.4975 12.4101L20.7162 4.75135C20.9775 4.47635 21.4175 4.4626 21.6925 4.72385C21.9675 4.9851 21.9812 5.4251 21.72 5.7001L14.5012 13.3726C13.8412 14.0739 12.9612 14.4589 11.9987 14.4589V14.4451Z" fill="#01ACED"/>
</svg>
