<svg width="24" height="23" viewBox="0 0 24 23" fill="none" xmlns="http://www.w3.org/2000/svg">
<path fill-rule="evenodd" clip-rule="evenodd" d="M10.5001 3.3988C11.452 2.45594 12.7804 2 14.2926 2C14.9871 2 15.6887 2.06104 16.2106 2.12068C16.473 2.15066 16.6933 2.18068 16.8487 2.20332C16.9264 2.21465 16.9881 2.22415 17.0309 2.23091L17.0805 2.23889L17.0941 2.24112L17.098 2.24177L17.0991 2.24197C17.0992 2.24198 17.0998 2.24208 16.9832 2.9323L17.0991 2.24197C17.436 2.29885 17.6832 2.59069 17.6832 2.9323V5.85986C17.6832 6.24646 17.3698 6.55986 16.9832 6.55986H15.4675C14.8705 6.55986 14.5943 6.73726 14.4551 6.89656C14.3004 7.07362 14.2085 7.35058 14.2085 7.71756V9.24895H16.8426C17.047 9.24895 17.2412 9.33827 17.3742 9.49347C17.5072 9.64867 17.5657 9.85425 17.5344 10.0562L17.0011 13.4948C16.9482 13.8359 16.6546 14.0875 16.3094 14.0875H14.2085V21.7C14.2085 22.0866 13.8951 22.4 13.5085 22.4H9.75213C9.36553 22.4 9.05213 22.0866 9.05213 21.7V14.0875H6.7C6.3134 14.0875 6 13.7741 6 13.3875V9.94895C6 9.56235 6.3134 9.24895 6.7 9.24895H9.05213V7.32828C9.05213 5.69581 9.54659 4.34328 10.5001 3.3988ZM16.2832 3.53944C16.211 3.53034 16.1336 3.52099 16.0516 3.51163C15.557 3.45511 14.9133 3.4 14.2926 3.4C13.0591 3.4 12.1173 3.76752 11.4853 4.39345C10.855 5.01778 10.4521 5.97939 10.4521 7.32828V9.94895C10.4521 10.3355 10.1387 10.6489 9.75213 10.6489H7.4V12.6875H9.75213C10.1387 12.6875 10.4521 13.0009 10.4521 13.3875V21H12.8085V13.3875C12.8085 13.0009 13.1219 12.6875 13.5085 12.6875H15.7096L16.0257 10.6489H13.5085C13.1219 10.6489 12.8085 10.3355 12.8085 9.94895V7.71756C12.8085 7.14382 12.9495 6.49192 13.4009 5.97532C13.8679 5.44095 14.5712 5.15986 15.4675 5.15986H16.2832V3.53944Z" fill="#01ACED"/>
</svg>
