<svg width="24" height="24" viewBox="0 0 24 24" fill="none" xmlns="http://www.w3.org/2000/svg">
<path d="M11.9481 7.38503C9.40946 7.38503 7.36178 9.4455 7.36178 12C7.36178 14.5545 9.40946 16.615 11.9481 16.615C14.4867 16.615 16.5344 14.5545 16.5344 12C16.5344 9.4455 14.4867 7.38503 11.9481 7.38503ZM11.9481 15.0003C10.3076 15.0003 8.96639 13.6548 8.96639 12C8.96639 10.3452 10.3036 8.99967 11.9481 8.99967C13.5926 8.99967 14.9298 10.3452 14.9298 12C14.9298 13.6548 13.5886 15.0003 11.9481 15.0003ZM17.7917 7.19625C17.7917 7.79471 17.3128 8.27268 16.722 8.27268C16.1273 8.27268 15.6523 7.79069 15.6523 7.19625C15.6523 6.60181 16.1313 6.11983 16.722 6.11983C17.3128 6.11983 17.7917 6.60181 17.7917 7.19625ZM20.8293 8.28874C20.7615 6.84681 20.4342 5.56956 19.3844 4.51724C18.3386 3.46491 17.0693 3.13556 15.6363 3.06326C14.1594 2.97891 9.73277 2.97891 8.25589 3.06326C6.82691 3.13154 5.5576 3.46089 4.50781 4.51322C3.45803 5.56555 3.13472 6.8428 3.06287 8.28473C2.97904 9.77084 2.97904 14.2251 3.06287 15.7113C3.13072 17.1532 3.45803 18.4304 4.50781 19.4828C5.5576 20.5351 6.82292 20.8644 8.25589 20.9367C9.73277 21.0211 14.1594 21.0211 15.6363 20.9367C17.0693 20.8685 18.3386 20.5391 19.3844 19.4828C20.4302 18.4304 20.7575 17.1532 20.8293 15.7113C20.9131 14.2251 20.9131 9.77485 20.8293 8.28874ZM18.9214 17.3058C18.61 18.093 18.0073 18.6995 17.2209 19.0168C16.0434 19.4868 13.2493 19.3783 11.9481 19.3783C10.6468 19.3783 7.84875 19.4828 6.67523 19.0168C5.89289 18.7036 5.29016 18.0971 4.97483 17.3058C4.50781 16.1209 4.61559 13.3094 4.61559 12C4.61559 10.6906 4.51181 7.87504 4.97483 6.69419C5.28617 5.90695 5.88889 5.30046 6.67523 4.98315C7.85274 4.51322 10.6468 4.62167 11.9481 4.62167C13.2493 4.62167 16.0474 4.51724 17.2209 4.98315C18.0033 5.29644 18.606 5.90293 18.9214 6.69419C19.3884 7.87906 19.2806 10.6906 19.2806 12C19.2806 13.3094 19.3884 16.125 18.9214 17.3058Z" fill="#01ACED"/>
</svg>
