<svg width="24" height="24" viewBox="0 0 24 24" fill="none" xmlns="http://www.w3.org/2000/svg">
<path fill-rule="evenodd" clip-rule="evenodd" d="M22.9076 1.75139C22.9671 1.89493 23 2.05233 23 2.21739V21.7826C23 22.455 22.455 23 21.7826 23C21.1103 23 20.5652 22.455 20.5652 21.7826V5.15643L3.07822 22.6434C2.6028 23.1189 1.83199 23.1189 1.35657 22.6434C0.881145 22.168 0.881145 21.3972 1.35657 20.9218L18.8436 3.43478H2.21739C1.54504 3.43478 1 2.88974 1 2.21739C1 1.54504 1.54504 1 2.21739 1H21.7826C21.9477 1 22.1051 1.03285 22.2486 1.09237C22.3922 1.15178 22.5267 1.23985 22.6434 1.35657C22.7602 1.47328 22.8482 1.60781 22.9076 1.75139Z" fill="#01ACED"/>
</svg>
