<svg width="26" height="26" viewBox="0 0 26 26" fill="none" xmlns="http://www.w3.org/2000/svg">
<path d="M13.5 5C12.61 5 11.74 5.26392 10.9999 5.75839C10.2599 6.25285 9.68314 6.95566 9.34254 7.77792C9.00195 8.60019 8.91283 9.50499 9.08647 10.3779C9.2601 11.2508 9.68869 12.0526 10.318 12.682C10.9474 13.3113 11.7492 13.7399 12.6221 13.9135C13.495 14.0872 14.3998 13.998 15.2221 13.6575C16.0443 13.3169 16.7471 12.7401 17.2416 12.0001C17.7361 11.26 18 10.39 18 9.5C18 8.30652 17.5259 7.16193 16.682 6.31802C15.8381 5.47411 14.6935 5 13.5 5ZM13.5 12.4293C12.9206 12.4293 12.3543 12.2575 11.8726 11.9356C11.3908 11.6138 11.0154 11.1563 10.7937 10.621C10.572 10.0857 10.5139 9.49675 10.627 8.92852C10.74 8.36028 11.019 7.83833 11.4287 7.42866C11.8383 7.01898 12.3603 6.73999 12.9285 6.62697C13.4968 6.51394 14.0857 6.57195 14.621 6.79366C15.1563 7.01537 15.6138 7.39083 15.9356 7.87256C16.2575 8.35428 16.4293 8.92063 16.4293 9.5C16.4272 10.2755 16.1177 11.0186 15.5686 11.5663C15.0194 12.1139 14.2755 12.4215 13.5 12.4215V12.4293Z" fill="#01ACED"/>
<path d="M13.496 7.90235e-10C10.9851 0.00207679 8.57708 0.988021 6.79785 2.74249C5.01862 4.49696 4.01278 6.87738 4 9.36383C4 13.0918 6.11201 16.2131 7.65974 18.4882L7.94187 18.9033C9.48177 21.1134 11.1337 23.2449 12.8914 25.2895L13.504 26L14.1167 25.2895C15.8741 23.2447 17.5261 21.1133 19.0662 18.9033L19.3483 18.4802C20.888 16.2051 23 13.0918 23 9.36383C22.9872 6.87599 21.9803 4.49437 20.1993 2.73968C18.4183 0.98498 16.0082 -3.22155e-05 13.496 7.90235e-10ZM18.0021 17.5622L17.7119 17.9853C16.3254 20.0448 14.4875 22.3519 13.496 23.4934C12.5448 22.3519 10.6665 20.0448 9.28002 17.9853L8.99788 17.5622C7.57107 15.4547 5.61222 12.5729 5.61222 9.3319C5.61222 8.30665 5.81614 7.29143 6.21233 6.34422C6.60853 5.39701 7.18924 4.53635 7.92132 3.81139C8.65339 3.08642 9.52249 2.51135 10.479 2.119C11.4355 1.72665 12.4607 1.52472 13.496 1.52472C14.5313 1.52472 15.5564 1.72665 16.5129 2.119C17.4695 2.51135 18.3385 3.08642 19.0706 3.81139C19.8027 4.53635 20.3834 5.39701 20.7796 6.34422C21.1758 7.29143 21.3797 8.30665 21.3797 9.3319C21.3797 12.6049 19.4289 15.4866 18.0021 17.5622Z" fill="#01ACED"/>
</svg>
