<svg width="24" height="24" viewBox="0 0 24 24" fill="none" xmlns="http://www.w3.org/2000/svg">
<path fill-rule="evenodd" clip-rule="evenodd" d="M2.63272 9.41423C2.03716 9.57966 1.625 10.1219 1.625 10.74V13.74C1.625 14.385 2.07293 14.9434 2.7025 15.0833L3.21536 15.1972C3.2109 15.217 3.20684 15.237 3.20321 15.2571C3.10819 15.7844 3.11087 16.3262 3.21038 16.8527C3.30989 17.3793 3.50508 17.8845 3.78806 18.3392C4.07112 18.7941 4.43805 19.1921 4.87225 19.5064C5.30673 19.821 5.79978 20.0453 6.32454 20.161C6.84959 20.2768 7.39177 20.2805 7.9184 20.1708C8.44489 20.0612 8.9403 19.8416 9.37681 19.5291C9.81301 19.2167 10.1803 18.819 10.462 18.3632C10.7333 17.9241 10.921 17.438 11.0194 16.9315L20.7025 19.0833C21.1099 19.1738 21.5364 19.0745 21.862 18.8134C22.1876 18.5522 22.377 18.1574 22.377 17.74V5.74003C22.377 5.31003 22.176 4.90475 21.8337 4.64455C21.4913 4.38435 21.047 4.29914 20.6327 4.41423L2.63272 9.41423ZM10.066 15.31C10.0185 15.2961 9.96983 15.2845 9.92004 15.2755C9.90776 15.2733 9.89549 15.2713 9.88323 15.2694L3.001 13.74V10.74L21.001 5.74003V17.74L10.066 15.31ZM9.67545 16.6328C9.61014 16.993 9.47967 17.3352 9.29142 17.6398C9.10264 17.9454 8.85946 18.2071 8.57575 18.4103C8.29205 18.6134 7.97339 18.7539 7.63796 18.8237C7.30253 18.8936 6.9569 18.8914 6.62081 18.8173C6.28472 18.7432 5.96474 18.5986 5.67915 18.3919C5.39356 18.1851 5.14796 17.9202 4.95635 17.6123C4.76475 17.3043 4.6309 16.9594 4.56244 16.5972C4.49399 16.235 4.49228 15.8626 4.5574 15.5012L5.903 15.7979C5.90316 15.7968 5.90332 15.7957 5.90348 15.7946L9.67545 16.6328Z" fill="#01ACED"/>
</svg>
