<svg width="24" height="24" viewBox="0 0 24 24" fill="none" xmlns="http://www.w3.org/2000/svg">
<path fill-rule="evenodd" clip-rule="evenodd" d="M11.788 1.43789C11.924 1.38691 12.0738 1.38691 12.2097 1.43789L20.2097 4.43789C20.4441 4.52577 20.5993 4.74981 20.5993 5.00009V12.0001C20.5993 15.2682 18.4301 17.9206 16.3943 19.702C15.3637 20.6037 14.336 21.31 13.5671 21.7905C13.182 22.0312 12.8603 22.2162 12.6334 22.3418C12.52 22.4046 12.4301 22.4526 12.3678 22.4853C12.3367 22.5017 12.3124 22.5142 12.2955 22.5229L12.2757 22.5329L12.2701 22.5358L12.2684 22.5366L12.2678 22.5369C12.2676 22.537 12.2674 22.5371 11.9989 22.0001C11.7304 22.5371 11.7302 22.537 11.7299 22.5369L11.7276 22.5358L11.722 22.5329L11.7022 22.5229C11.6853 22.5142 11.6611 22.5017 11.6299 22.4853C11.5676 22.4526 11.4778 22.4046 11.3643 22.3418C11.1375 22.2162 10.8157 22.0312 10.4306 21.7905C9.66175 21.31 8.63404 20.6037 7.60348 19.702C5.56761 17.9206 3.39844 15.2682 3.39844 12.0001V5.00009C3.39844 4.74981 3.55369 4.52577 3.78805 4.43789L11.788 1.43789ZM11.9989 22.0001L11.7299 22.5369C11.899 22.6215 12.0988 22.6215 12.2678 22.5369L11.9989 22.0001ZM11.9989 21.3204C12.0158 21.3111 12.0335 21.3013 12.0518 21.2912C12.2625 21.1746 12.5657 21.0003 12.9306 20.7722C13.6618 20.3152 14.634 19.6465 15.6035 18.7982C17.5676 17.0796 19.3984 14.732 19.3984 12.0001V5.4162L11.9989 2.64136L4.59931 5.4162V12.0001C4.59931 14.732 6.43014 17.0796 8.39426 18.7982C9.36371 19.6465 10.336 20.3152 11.0671 20.7722C11.432 21.0003 11.7353 21.1746 11.9459 21.2912C11.9643 21.3013 11.9819 21.3111 11.9989 21.3204Z" fill="#01ACED"/>
<path fill-rule="evenodd" clip-rule="evenodd" d="M15.4234 9.57552C15.6579 9.81001 15.6579 10.1902 15.4234 10.4247L11.4234 14.4247C11.189 14.6592 10.8088 14.6592 10.5743 14.4247L8.5743 12.4247C8.33982 12.1902 8.33982 11.81 8.5743 11.5755C8.80879 11.341 9.18896 11.341 9.42345 11.5755L10.9989 13.1509L14.5743 9.57552C14.8088 9.34104 15.189 9.34104 15.4234 9.57552Z" fill="#01ACED"/>
</svg>
