<svg width="24" height="24" viewBox="0 0 24 24" fill="none" xmlns="http://www.w3.org/2000/svg">
<path fill-rule="evenodd" clip-rule="evenodd" d="M11.9962 10.1673C9.74024 10.1673 7.57417 11.0519 5.96306 12.6311C5.69069 12.898 5.25345 12.8937 4.98647 12.6213C4.71949 12.3489 4.72386 11.9117 4.99624 11.6447C6.86553 9.81243 9.37871 8.78613 11.9962 8.78613C14.6138 8.78613 17.1269 9.81243 18.9962 11.6447C19.2686 11.9117 19.273 12.3489 19.006 12.6213C18.739 12.8937 18.3018 12.898 18.0294 12.6311C16.4183 11.0519 14.2522 10.1673 11.9962 10.1673Z" fill="#01ACED"/>
<path fill-rule="evenodd" clip-rule="evenodd" d="M12.0036 14.7562C10.966 14.7562 9.9697 15.163 9.22869 15.8893C8.95631 16.1563 8.51908 16.152 8.2521 15.8796C7.98512 15.6072 7.98949 15.17 8.26186 14.903C9.26105 13.9236 10.6044 13.375 12.0036 13.375C13.4027 13.375 14.7461 13.9236 15.7453 14.903C16.0176 15.17 16.022 15.6072 15.755 15.8796C15.4881 16.152 15.0508 16.1563 14.7784 15.8893C14.0374 15.163 13.0412 14.7562 12.0036 14.7562Z" fill="#01ACED"/>
<path fill-rule="evenodd" clip-rule="evenodd" d="M12 5.38118C8.73501 5.38118 5.58456 6.58454 3.15099 8.7612C2.86671 9.01547 2.43013 8.99114 2.17586 8.70686C1.92159 8.42258 1.94592 7.986 2.2302 7.73173C4.91701 5.32858 8.39528 4 12 4C15.6047 4 19.083 5.32858 21.7698 7.73173C22.0541 7.986 22.0784 8.42258 21.8241 8.70686C21.5699 8.99114 21.1333 9.01547 20.849 8.7612C18.4154 6.58454 15.265 5.38118 12 5.38118Z" fill="#01ACED"/>
<path fill-rule="evenodd" clip-rule="evenodd" d="M10.7852 18.6542C10.7852 17.9812 11.3308 17.4355 12.0038 17.4355H12.0132C12.6862 17.4355 13.2318 17.9812 13.2318 18.6542C13.2318 19.3273 12.6862 19.8729 12.0132 19.8729H12.0038C11.3308 19.8729 10.7852 19.3273 10.7852 18.6542Z" fill="#01ACED"/>
</svg>
