<svg width="24" height="24" viewBox="0 0 24 24" fill="none" xmlns="http://www.w3.org/2000/svg">
<path fill-rule="evenodd" clip-rule="evenodd" d="M16.7071 9.29338C17.0976 9.68391 17.0976 10.3171 16.7071 10.7076L12.7071 14.7076C12.3166 15.0981 11.6834 15.0981 11.2929 14.7076C10.9024 14.3171 10.9024 13.6839 11.2929 13.2934L15.2929 9.29338C15.6834 8.90286 16.3166 8.90286 16.7071 9.29338Z" fill="black"/>
<path fill-rule="evenodd" clip-rule="evenodd" d="M12 5C10.4201 5 8.8681 5.41588 7.4999 6.20583C6.1317 6.99578 4.99556 8.13197 4.20566 9.5002C3.41576 10.8684 2.99994 12.4205 3 14.0003C3.00006 15.5802 3.416 17.1322 4.206 18.5004C4.48217 18.9787 4.31832 19.5903 3.84004 19.8664C3.36177 20.1426 2.75017 19.9788 2.474 19.5005C1.50844 17.8283 1.00007 15.9314 1 14.0004C0.999926 12.0695 1.50815 10.1725 2.47358 8.50024C3.43901 6.82796 4.82764 5.43929 6.49988 4.47379C8.17212 3.50829 10.069 3 12 3C13.931 3 15.8279 3.50829 17.5001 4.47379C19.1724 5.43929 20.561 6.82796 21.5264 8.50024C22.4919 10.1725 23.0001 12.0695 23 14.0004C22.9999 15.9314 22.4916 17.8283 21.526 19.5005C21.2498 19.9788 20.6382 20.1426 20.16 19.8664C19.6817 19.5903 19.5178 18.9787 19.794 18.5004C20.584 17.1322 20.9999 15.5802 21 14.0003C21.0001 12.4205 20.5842 10.8684 19.7943 9.5002C19.0044 8.13197 17.8683 6.99578 16.5001 6.20583C15.1319 5.41588 13.5799 5 12 5Z" fill="black"/>
</svg>
