<svg width="24" height="24" viewBox="0 0 24 24" fill="none" xmlns="http://www.w3.org/2000/svg">
<path fill-rule="evenodd" clip-rule="evenodd" d="M11.9989 2.60053C6.80764 2.60053 2.59931 6.80886 2.59931 12.0001C2.59931 17.1913 6.80764 21.3997 11.9989 21.3997C17.1901 21.3997 21.3984 17.1913 21.3984 12.0001C21.3984 6.80886 17.1901 2.60053 11.9989 2.60053ZM1.39844 12.0001C1.39844 6.14564 6.14441 1.39966 11.9989 1.39966C17.8533 1.39966 22.5993 6.14564 22.5993 12.0001C22.5993 17.8546 17.8533 22.6005 11.9989 22.6005C6.14441 22.6005 1.39844 17.8546 1.39844 12.0001Z" fill="#01ACED"/>
<path fill-rule="evenodd" clip-rule="evenodd" d="M4.50399 4.50545C4.73847 4.27097 5.11865 4.27097 5.35313 4.50545L9.59313 8.74545C9.82762 8.97994 9.82762 9.36011 9.59313 9.5946C9.35865 9.82908 8.97847 9.82908 8.74399 9.5946L4.50399 5.3546C4.2695 5.12011 4.2695 4.73994 4.50399 4.50545Z" fill="#01ACED"/>
<path fill-rule="evenodd" clip-rule="evenodd" d="M19.4955 4.50545C19.73 4.73994 19.73 5.12011 19.4955 5.3546L15.2555 9.5946C15.021 9.82908 14.6408 9.82908 14.4063 9.5946C14.1718 9.36011 14.1718 8.97994 14.4063 8.74545L18.6463 4.50545C18.8808 4.27097 19.261 4.27097 19.4955 4.50545Z" fill="#01ACED"/>
<path fill-rule="evenodd" clip-rule="evenodd" d="M14.4063 14.4054C14.6408 14.1709 15.021 14.1709 15.2555 14.4054L19.4955 18.6454C19.73 18.8798 19.73 19.26 19.4955 19.4945C19.261 19.729 18.8808 19.729 18.6463 19.4945L14.4063 15.2545C14.1718 15.02 14.1718 14.6398 14.4063 14.4054Z" fill="#01ACED"/>
<path fill-rule="evenodd" clip-rule="evenodd" d="M9.59313 14.4054C9.82762 14.6398 9.82762 15.02 9.59313 15.2545L5.35313 19.4945C5.11865 19.729 4.73847 19.729 4.50399 19.4945C4.2695 19.26 4.2695 18.8798 4.50399 18.6454L8.74399 14.4054C8.97847 14.1709 9.35865 14.1709 9.59313 14.4054Z" fill="#01ACED"/>
<path fill-rule="evenodd" clip-rule="evenodd" d="M11.9989 8.60053C10.1213 8.60053 8.59931 10.1226 8.59931 12.0001C8.59931 13.8776 10.1213 15.3997 11.9989 15.3997C13.8764 15.3997 15.3984 13.8776 15.3984 12.0001C15.3984 10.1226 13.8764 8.60053 11.9989 8.60053ZM7.39844 12.0001C7.39844 9.45934 9.45812 7.39966 11.9989 7.39966C14.5396 7.39966 16.5993 9.45934 16.5993 12.0001C16.5993 14.5408 14.5396 16.6005 11.9989 16.6005C9.45812 16.6005 7.39844 14.5408 7.39844 12.0001Z" fill="#01ACED"/>
</svg>
