<svg width="24" height="24" viewBox="0 0 24 24" fill="none" xmlns="http://www.w3.org/2000/svg">
<path fill-rule="evenodd" clip-rule="evenodd" d="M11.999 4.15361C7.71978 4.15361 4.25078 7.62261 4.25078 11.9018C4.25078 16.181 7.71978 19.65 11.999 19.65C16.2782 19.65 19.7472 16.181 19.7472 11.9018C19.7472 7.62261 16.2782 4.15361 11.999 4.15361ZM3.05078 11.9018C3.05078 6.95987 7.05703 2.95361 11.999 2.95361C16.941 2.95361 20.9472 6.95987 20.9472 11.9018C20.9472 16.8438 16.941 20.85 11.999 20.85C7.05703 20.85 3.05078 16.8438 3.05078 11.9018Z" fill="#01ACED"/>
<path fill-rule="evenodd" clip-rule="evenodd" d="M11.9012 6.5V1H12.0977V6.5H11.9012Z" fill="#01ACED"/>
<path fill-rule="evenodd" clip-rule="evenodd" d="M12.0977 0.5C12.3738 0.5 12.5977 0.723858 12.5977 1V6.5C12.5977 6.77614 12.3738 7 12.0977 7H11.9012C11.6251 7 11.4012 6.77614 11.4012 6.5V1C11.4012 0.723858 11.6251 0.5 11.9012 0.5H12.0977Z" fill="#01ACED"/>
<path fill-rule="evenodd" clip-rule="evenodd" d="M11.9012 23V17.5H12.0977V23H11.9012Z" fill="#01ACED"/>
<path fill-rule="evenodd" clip-rule="evenodd" d="M12.0977 17C12.3738 17 12.5977 17.2239 12.5977 17.5V23C12.5977 23.2761 12.3738 23.5 12.0977 23.5H11.9012C11.6251 23.5 11.4012 23.2761 11.4012 23V17.5C11.4012 17.2239 11.6251 17 11.9012 17H12.0977Z" fill="#01ACED"/>
<path fill-rule="evenodd" clip-rule="evenodd" d="M17.5 11.902L23 11.902L23 12.0984L17.5 12.0984L17.5 11.902Z" fill="#01ACED"/>
<path fill-rule="evenodd" clip-rule="evenodd" d="M23.5 12.0984C23.5 12.3745 23.2761 12.5984 23 12.5984L17.5 12.5984C17.2239 12.5984 17 12.3745 17 12.0984L17 11.902C17 11.6258 17.2239 11.402 17.5 11.402L23 11.402C23.2761 11.402 23.5 11.6258 23.5 11.902L23.5 12.0984Z" fill="#01ACED"/>
<path fill-rule="evenodd" clip-rule="evenodd" d="M1 11.902L6.5 11.902L6.5 12.0984L1 12.0984L1 11.902Z" fill="#01ACED"/>
<path fill-rule="evenodd" clip-rule="evenodd" d="M7 12.0984C7 12.3745 6.77614 12.5984 6.5 12.5984L1 12.5984C0.723857 12.5984 0.5 12.3745 0.5 12.0984L0.5 11.902C0.5 11.6258 0.723857 11.402 1 11.402L6.5 11.402C6.77614 11.402 7 11.6258 7 11.902L7 12.0984Z" fill="#01ACED"/>
<path d="M12.4927 11.8037C12.4927 12.0207 12.3169 12.1966 12.0999 12.1966C11.8829 12.1966 11.707 12.0207 11.707 11.8037C11.707 11.5868 11.8829 11.4109 12.0999 11.4109C12.3169 11.4109 12.4927 11.5868 12.4927 11.8037Z" fill="#01ACED"/>
<path fill-rule="evenodd" clip-rule="evenodd" d="M12.0991 11.9608C12.1859 11.9608 12.2563 11.8905 12.2563 11.8037C12.2563 11.7169 12.1859 11.6466 12.0991 11.6466C12.0123 11.6466 11.942 11.7169 11.942 11.8037C11.942 11.8905 12.0123 11.9608 12.0991 11.9608ZM11.1562 11.8037C11.1562 11.283 11.5784 10.8608 12.0991 10.8608C12.6198 10.8608 13.042 11.283 13.042 11.8037C13.042 12.3244 12.6198 12.7466 12.0991 12.7466C11.5784 12.7466 11.1562 12.3244 11.1562 11.8037Z" fill="#01ACED"/>
</svg>
