<svg width="24" height="24" viewBox="0 0 24 24" fill="none" xmlns="http://www.w3.org/2000/svg">
<path d="M6.02477 2.82587C5.94361 2.72146 5.84115 2.63551 5.72421 2.57374C5.60727 2.51196 5.47853 2.47578 5.34653 2.46759C5.21453 2.45939 5.0823 2.47938 4.95862 2.52622C4.83494 2.57306 4.72264 2.64568 4.62918 2.73925L3.20747 4.16234C2.54336 4.82782 2.29862 5.76968 2.58873 6.59603C3.79285 10.0164 5.75156 13.1218 8.31959 15.6818C10.8797 18.2498 13.985 20.2085 17.4054 21.4127C18.2317 21.7028 19.1736 21.458 19.8391 20.7939L21.2608 19.3722C21.3544 19.2788 21.427 19.1665 21.4738 19.0428C21.5206 18.9191 21.5406 18.7869 21.5324 18.6549C21.5242 18.5229 21.4881 18.3941 21.4263 18.2772C21.3645 18.1603 21.2786 18.0578 21.1742 17.9766L18.0021 15.5099C17.8906 15.4234 17.7608 15.3634 17.6227 15.3343C17.4845 15.3052 17.3416 15.3079 17.2046 15.3422L14.1935 16.0943C13.7915 16.1948 13.3704 16.1894 12.9712 16.0788C12.5719 15.9682 12.2081 15.7561 11.9151 15.4632L8.53821 12.0849C8.24503 11.7921 8.03267 11.4283 7.92183 11.0291C7.81099 10.6298 7.80544 10.2086 7.90573 9.80658L8.65921 6.7954C8.69346 6.65845 8.69615 6.51551 8.66709 6.37736C8.63804 6.23921 8.57798 6.10947 8.49146 5.99792L6.02477 2.82587ZM3.59108 1.70253C3.8317 1.46184 4.12076 1.27509 4.43908 1.15469C4.7574 1.03428 5.09769 0.982973 5.43736 1.00417C5.77703 1.02537 6.10831 1.11858 6.40919 1.27763C6.71007 1.43667 6.97367 1.65791 7.1825 1.92664L9.64919 5.09732C10.1016 5.67893 10.261 6.43653 10.0823 7.15152L9.33019 10.1627C9.29131 10.3187 9.29341 10.482 9.33629 10.6369C9.37918 10.7918 9.46138 10.933 9.57494 11.0468L12.9532 14.4251C13.0671 14.5389 13.2086 14.6212 13.3637 14.6641C13.5189 14.707 13.6825 14.709 13.8387 14.6698L16.8485 13.9177C17.2013 13.8295 17.5696 13.8227 17.9255 13.8977C18.2814 13.9727 18.6155 14.1277 18.9027 14.3508L22.0734 16.8175C23.2132 17.7044 23.3177 19.3887 22.2975 20.4076L20.8758 21.8293C19.8583 22.8468 18.3376 23.2936 16.92 22.7945C13.2917 21.5179 9.99743 19.4407 7.28149 16.7172C4.55808 14.0016 2.48095 10.7078 1.20414 7.08002C0.706405 5.6638 1.15327 4.14172 2.17074 3.12424L3.59246 1.70253H3.59108Z" fill="#01ACED"/>
</svg>
