<svg width="24" height="24" viewBox="0 0 24 24" fill="none" xmlns="http://www.w3.org/2000/svg">
<path fill-rule="evenodd" clip-rule="evenodd" d="M4 7.75C3.30964 7.75 2.75 8.30964 2.75 9V20C2.75 20.6904 3.30964 21.25 4 21.25H20C20.6904 21.25 21.25 20.6904 21.25 20V9C21.25 8.30964 20.6904 7.75 20 7.75H4ZM1.25 9C1.25 7.48122 2.48122 6.25 4 6.25H20C21.5188 6.25 22.75 7.48122 22.75 9V20C22.75 21.5188 21.5188 22.75 20 22.75H4C2.48122 22.75 1.25 21.5188 1.25 20V9Z" fill="black"/>
<path fill-rule="evenodd" clip-rule="evenodd" d="M6.46967 1.46967C6.76256 1.17678 7.23744 1.17678 7.53033 1.46967L12 5.93934L16.4697 1.46967C16.7626 1.17678 17.2374 1.17678 17.5303 1.46967C17.8232 1.76256 17.8232 2.23744 17.5303 2.53033L12.5303 7.53033C12.2374 7.82322 11.7626 7.82322 11.4697 7.53033L6.46967 2.53033C6.17678 2.23744 6.17678 1.76256 6.46967 1.46967Z" fill="black"/>
</svg>
