<svg width="24" height="24" viewBox="0 0 24 24" fill="none" xmlns="http://www.w3.org/2000/svg">
<path fill-rule="evenodd" clip-rule="evenodd" d="M5.67738 15.6766C6.5588 14.7952 7.75426 14.3 9.00078 14.3H15.0008C16.2473 14.3 17.4428 14.7952 18.3242 15.6766C19.2056 16.5581 19.7008 17.7535 19.7008 19V21C19.7008 21.3866 19.3874 21.7 19.0008 21.7C18.6142 21.7 18.3008 21.3866 18.3008 21V19C18.3008 18.1248 17.9531 17.2855 17.3342 16.6666C16.7154 16.0477 15.876 15.7 15.0008 15.7H9.00078C8.12557 15.7 7.2862 16.0477 6.66733 16.6666C6.04846 17.2855 5.70078 18.1248 5.70078 19V21C5.70078 21.3866 5.38738 21.7 5.00078 21.7C4.61418 21.7 4.30078 21.3866 4.30078 21V19C4.30078 17.7535 4.79596 16.5581 5.67738 15.6766Z" fill="#01ACED"/>
<path fill-rule="evenodd" clip-rule="evenodd" d="M12.0008 3.70005C10.1782 3.70005 8.70078 5.17751 8.70078 7.00005C8.70078 8.82259 10.1782 10.3 12.0008 10.3C13.8233 10.3 15.3008 8.82259 15.3008 7.00005C15.3008 5.17751 13.8233 3.70005 12.0008 3.70005ZM7.30078 7.00005C7.30078 4.40431 9.40504 2.30005 12.0008 2.30005C14.5965 2.30005 16.7008 4.40431 16.7008 7.00005C16.7008 9.59579 14.5965 11.7 12.0008 11.7C9.40504 11.7 7.30078 9.59579 7.30078 7.00005Z" fill="#01ACED"/>
</svg>
