<svg width="24" height="24" viewBox="0 0 24 24" fill="none" xmlns="http://www.w3.org/2000/svg">
<path d="M18.9701 3.85013C18.4993 3.416 16.5939 2.032 12.3457 2.01344C12.3457 2.01344 7.33757 1.71289 4.89837 3.95402C3.54161 5.31205 3.0634 7.30457 3.01151 9.77204C2.95961 12.2395 2.89659 16.8627 7.34869 18.1169H7.3524L7.34869 20.0315C7.34869 20.0315 7.31904 20.807 7.8306 20.9628C8.44596 21.1558 8.80925 20.5658 9.39866 19.9313C9.72117 19.5825 10.166 19.0705 10.5033 18.6809C13.5505 18.9369 15.8896 18.3506 16.1565 18.2653C16.7719 18.0649 20.2527 17.6197 20.8162 12.9964C21.4019 8.22477 20.5345 5.21187 18.9701 3.85013ZM19.4854 12.6477C19.0072 16.5065 16.1862 16.7514 15.6672 16.9184C15.4448 16.9889 13.3874 17.5009 10.8036 17.334C10.8036 17.334 8.87597 19.6604 8.27544 20.2653C8.07897 20.4619 7.86396 20.4434 7.86767 20.0538C7.86767 19.7977 7.8825 16.8739 7.8825 16.8739C7.87879 16.8739 7.87879 16.8739 7.8825 16.8739C4.10878 15.8275 4.3312 11.8907 4.37197 9.83141C4.41275 7.77209 4.80199 6.08383 5.95115 4.94843C8.01595 3.07464 12.2679 3.35292 12.2679 3.35292C15.86 3.36776 17.58 4.45122 17.9804 4.81485C19.3038 5.95025 19.9784 8.66632 19.4854 12.6477ZM14.3327 9.64959C14.3475 9.96869 13.8693 9.99096 13.8545 9.67186C13.8137 8.85555 13.4319 8.45853 12.646 8.41401C12.3272 8.39545 12.3568 7.9168 12.6719 7.93536C13.7062 7.99101 14.2808 8.58469 14.3327 9.64959ZM15.0852 10.0689C15.1223 8.49564 14.1399 7.26376 12.2753 7.12647C11.9602 7.10421 11.9936 6.62556 12.3087 6.64782C14.4587 6.80366 15.6042 8.28414 15.5634 10.08C15.5597 10.3991 15.0778 10.3843 15.0852 10.0689ZM16.8275 10.5661C16.8312 10.8852 16.3493 10.8889 16.3493 10.5698C16.327 7.54576 14.3141 5.89831 11.8712 5.87975C11.5561 5.87604 11.5561 5.4011 11.8712 5.4011C14.6033 5.41966 16.8015 7.30829 16.8275 10.5661ZM16.4086 14.2061V14.2135C16.0082 14.9185 15.2594 15.6977 14.4884 15.4491L14.481 15.4379C13.6988 15.219 11.8564 14.2691 10.6924 13.3415C10.0919 12.8666 9.54323 12.3063 9.12064 11.7683C8.73881 11.2896 8.35329 10.7219 7.97888 10.0392C7.18929 8.61066 7.01506 7.97246 7.01506 7.97246C6.76669 7.20068 7.54146 6.45117 8.24949 6.05044H8.25691C8.59795 5.87233 8.92416 5.9317 9.14288 6.19514C9.14288 6.19514 9.60255 6.74429 9.79902 7.01516C9.98437 7.26747 10.2327 7.67191 10.3625 7.89825C10.5886 8.30269 10.4477 8.71455 10.2253 8.88524L9.78048 9.24144C9.55435 9.42325 9.58401 9.76091 9.58401 9.76091C9.58401 9.76091 10.2439 12.2581 12.709 12.8888C12.709 12.8888 13.0463 12.9185 13.228 12.6922L13.5839 12.2469C13.7544 12.0243 14.1659 11.8833 14.5699 12.1096C15.1148 12.4176 15.8081 12.8963 16.2677 13.3304C16.5272 13.5419 16.5865 13.8647 16.4086 14.2061Z" fill="#01ACED"/>
</svg>
