<svg width="24" height="24" viewBox="0 0 24 24" fill="none" xmlns="http://www.w3.org/2000/svg">
<path fill-rule="evenodd" clip-rule="evenodd" d="M4.99887 3.60053C4.62769 3.60053 4.2717 3.74798 4.00923 4.01045C3.74676 4.27292 3.59931 4.62891 3.59931 5.00009C3.59931 5.37128 3.74676 5.72727 4.00923 5.98974C4.2717 6.2522 4.62769 6.39966 4.99887 6.39966H18.3984V3.60053H4.99887ZM19.5993 6.39966V3.00009C19.5993 2.66848 19.3305 2.39966 18.9989 2.39966H4.99887C4.3092 2.39966 3.64776 2.67363 3.16009 3.16131C2.67241 3.64898 2.39844 4.31042 2.39844 5.00009C2.39844 5.11377 2.40588 5.22668 2.4205 5.33817C2.40612 5.38966 2.39844 5.44393 2.39844 5.5V19.0001C2.39844 19.6897 2.67241 20.3512 3.16009 20.8388C3.64776 21.3265 4.3092 21.6005 4.99887 21.6005H20.9989C21.3305 21.6005 21.5993 21.3317 21.5993 21.0001V16.6005H21.9989C22.3305 16.6005 22.5993 16.3317 22.5993 16.0001V12.0001C22.5993 11.6685 22.3305 11.3997 21.9989 11.3997H21.5993V7.00009C21.5993 6.66848 21.3305 6.39966 20.9989 6.39966H19.5993ZM20.3984 11.3997V7.60053H4.99887C4.49906 7.60053 4.01407 7.45664 3.59931 7.19179V19.0001C3.59931 19.3712 3.74676 19.7272 4.00923 19.9897C4.2717 20.2522 4.62769 20.3996 4.99887 20.3996H20.3984V16.6005H17.9989C17.3092 16.6005 16.6478 16.3266 16.1601 15.8389C15.6724 15.3512 15.3984 14.6898 15.3984 14.0001C15.3984 13.3104 15.6724 12.649 16.1601 12.1613C16.6478 11.6736 17.3092 11.3997 17.9989 11.3997H20.3984ZM20.9926 15.3997H17.9989C17.6277 15.3997 17.2717 15.2522 17.0092 14.9897C16.7468 14.7273 16.5993 14.3713 16.5993 14.0001C16.5993 13.6289 16.7468 13.2729 17.0092 13.0105C17.2717 12.748 17.6277 12.6005 17.9989 12.6005H20.9989H21.3984V15.3997H21.0052C21.0031 15.3996 21.001 15.3996 20.9989 15.3996C20.9968 15.3996 20.9947 15.3996 20.9926 15.3997Z" fill="#01ACED"/>
</svg>
