<svg width="24" height="24" viewBox="0 0 24 24" fill="none" xmlns="http://www.w3.org/2000/svg">
<path fill-rule="evenodd" clip-rule="evenodd" d="M13.1996 1.54092C13.4034 1.62937 13.5244 1.84156 13.4969 2.06197L12.5672 9.49954H21.0004C21.1945 9.49954 21.3711 9.61185 21.4535 9.78767C21.5358 9.96349 21.5091 10.1711 21.3848 10.3202L11.3848 22.3202C11.2426 22.4909 11.0049 22.5473 10.8011 22.4589C10.5974 22.3704 10.4763 22.1583 10.5039 21.9378L11.4336 14.5003H3.00037C2.80622 14.5003 2.6296 14.388 2.54725 14.2121C2.4649 14.0363 2.49169 13.8287 2.61598 13.6796L12.616 1.67958C12.7582 1.50894 12.9959 1.45247 13.1996 1.54092ZM4.06867 13.4995H12.0004C12.1439 13.4995 12.2805 13.5612 12.3755 13.6688C12.4705 13.7764 12.5147 13.9196 12.4969 14.062L11.7086 20.3685L19.9321 10.5003H12.0004C11.8568 10.5003 11.7202 10.4386 11.6253 10.331C11.5303 10.2235 11.4861 10.0803 11.5039 9.93784L12.2922 3.63132L4.06867 13.4995Z" fill="#01ACED"/>
</svg>
