<svg width="777" height="469" viewBox="0 0 777 469" fill="none" xmlns="http://www.w3.org/2000/svg">
<rect x="329.66" y="380.66" width="39.7103" height="83.3586" rx="2.6383" fill="white" stroke="#092946" stroke-width="1.31915"/>
<path fill-rule="evenodd" clip-rule="evenodd" d="M362.001 416.228L366.122 422.876C358.434 435.027 349.548 443.676 340.648 431.801L346.309 424.218C349.087 427.062 349.548 427.457 353.497 428.773L362.001 416.228Z" fill="#01ACED"/>
<path fill-rule="evenodd" clip-rule="evenodd" d="M353.508 428.76C357.918 429.024 359.511 428.365 363.394 426.944C364.316 425.653 365.224 424.284 366.12 422.876L361.999 416.228L353.508 428.76Z" fill="#215686"/>
<path fill-rule="evenodd" clip-rule="evenodd" d="M337.331 425.89L333.395 419.124C341.412 407.197 350.535 398.798 359.105 410.909L353.155 418.281C350.456 415.359 350.074 415.003 346.164 413.595L337.331 425.89Z" fill="#01ACED"/>
<path fill-rule="evenodd" clip-rule="evenodd" d="M346.164 413.595C341.754 413.2 340.148 413.805 336.225 415.135C335.277 416.399 334.329 417.742 333.395 419.124L337.331 425.89L346.164 413.595Z" fill="#215686"/>
<path fill-rule="evenodd" clip-rule="evenodd" d="M343.464 412.502H348.73L355.352 423.218L363.106 412.476H365.107L353.509 428.773L348.691 420.98L342.951 428.773L332.906 412.502H338.172L344.807 423.218L347.743 419.44L343.464 412.502Z" fill="#CE4040"/>
<path d="M448.764 421.283C444.09 421.283 440.391 418.008 440.391 413.87V224.758C440.391 220.793 444.09 217.345 448.764 217.345H768.104C772.582 217.345 776.477 220.62 776.477 224.758V413.698C776.477 417.663 772.777 421.111 768.104 421.111H448.764V421.283Z" fill="#0A1F3E"/>
<path d="M768.102 217.862C772.386 217.862 775.891 220.965 775.891 224.758V413.698C775.891 417.491 772.386 420.594 768.102 420.594H448.762C444.479 420.594 440.974 417.491 440.974 413.698V224.758C440.974 220.965 444.479 217.862 448.762 217.862H768.102ZM768.102 217H448.762C443.894 217 440 220.448 440 224.758V413.698C440 418.008 443.894 421.456 448.762 421.456H768.102C772.97 421.456 776.865 418.008 776.865 413.698V224.758C776.865 220.62 772.97 217 768.102 217Z" fill="#C4C4C4"/>
<path d="M763.43 231.409H453.242V406.267H763.43V231.409Z" fill="white"/>
<path d="M645.046 454.752H570.469L574.363 421.455H641.152L645.046 454.752Z" fill="#BAC6CF"/>
<path d="M657.692 468.383H557.801L570.458 454.753H645.035L657.692 468.383Z" fill="#BAC6CF"/>
<path d="M645.6 307.036C641.762 294.299 629.896 285.051 615.937 285.051C606.166 285.051 597.442 289.587 591.683 296.567C590.637 296.218 589.415 295.869 588.194 295.869C583.308 295.869 579.295 299.882 579.295 304.768C579.295 305.64 579.469 306.513 579.644 307.211C573.537 309.305 569 315.237 569 322.042C569 330.767 575.98 337.746 584.704 337.746H641.936C650.661 337.746 657.64 330.767 657.64 322.042C657.64 315.063 652.58 308.781 645.6 307.036Z" fill="#01ACED"/>
<path d="M48.8412 455.927C42.3698 455.927 37.2852 450.688 37.2852 444.371V313.556C37.2852 307.085 42.5239 302 48.8412 302H255.926C262.398 302 267.482 307.239 267.482 313.556V444.217C267.482 450.688 262.244 455.773 255.926 455.773H48.8412V455.927Z" fill="#0A1F3E"/>
<path d="M304.926 450.997H0V457.623C0 461.475 3.08162 464.556 6.93365 464.556H297.993C301.845 464.556 304.926 461.475 304.926 457.623V450.997Z" fill="#BAC6CF"/>
<path d="M256.698 314.173H48.2266V441.444H256.698V314.173Z" fill="white"/>
<path d="M183.337 374.457C179.674 362.391 168.47 353.771 155.11 353.771C145.845 353.771 137.657 358.081 132.27 364.761C131.192 364.33 130.115 364.114 129.037 364.114C124.297 364.114 120.634 367.993 120.634 372.518C120.634 373.38 120.849 374.242 121.065 374.888C115.247 376.827 110.938 382.43 110.938 388.894C110.938 397.082 117.617 403.762 125.805 403.762H179.89C188.078 403.762 194.758 397.082 194.758 388.894C194.758 381.999 189.802 376.181 183.337 374.457Z" fill="#01ACED"/>
<path d="M167.766 245.897V176.676H330.03V133" stroke="#092946" stroke-width="4" stroke-miterlimit="10" stroke-linecap="round" stroke-linejoin="round"/>
<path d="M343 345L343 177" stroke="#092946" stroke-width="4" stroke-miterlimit="10" stroke-linecap="round" stroke-linejoin="round"/>
<path d="M330.031 176.677H503.414V194.544" stroke="#092946" stroke-width="4" stroke-miterlimit="10" stroke-linecap="round" stroke-linejoin="round"/>
<path d="M394.398 42.2206C386.854 17.7353 364.089 0 337.089 0C318.295 0 301.486 8.60293 290.501 22.2353C288.515 21.4412 286.265 20.9118 283.883 20.9118C274.354 20.9118 266.545 28.7206 266.545 38.25C266.545 39.9706 266.81 41.5588 267.207 43.1471C255.295 47.25 246.824 58.5 246.824 71.7353C246.824 88.4118 260.324 101.912 277.001 101.912H386.986C403.662 101.912 417.162 88.4118 417.162 71.7353C417.427 57.3088 407.633 45.3971 394.398 42.2206Z" fill="#01ACED"/>
</svg>
