<svg width="259" height="68" viewBox="0 0 259 68" fill="none" xmlns="http://www.w3.org/2000/svg">
<path d="M258.5 58.8098C258.5 63.8845 253.395 68 247.098 68H11.9049C5.60724 68.0004 0.5 63.8849 0.5 58.8098V9.18935C0.5 4.11509 5.60724 0 11.9049 0H247.097C253.394 0 258.499 4.11509 258.499 9.18935V58.8098H258.5Z" fill="black"/>
<path d="M71.3806 30.6681C71.344 26.6026 74.0765 24.2359 75.1976 23.4342C75.4429 23.2588 75.5179 22.916 75.3327 22.678C72.9917 19.6714 69.6291 19.2449 68.4113 19.2094C65.3614 18.8885 62.4029 21.0339 60.8492 21.0339C59.2646 21.0339 56.8721 19.2404 54.2935 19.2931C50.9753 19.3442 47.8711 21.2649 46.1685 24.2473C42.655 30.3286 45.2754 39.2652 48.6417 44.1807C50.3256 46.5896 52.2933 49.276 54.8687 49.1815C57.3884 49.0792 58.3296 47.5771 61.3702 47.5771C64.383 47.5771 65.2668 49.1815 67.8934 49.121C70.5976 49.0792 72.3001 46.7028 73.9251 44.2737C75.4405 42.1262 76.2497 40.0021 76.5482 39.1014C76.6316 38.8499 76.4999 38.5862 76.2623 38.4687C75.0144 37.8517 71.4244 35.6429 71.3806 30.6681ZM66.4188 15.9758C67.6796 14.3995 68.5699 12.2947 68.4807 10.1256C68.4694 9.8503 68.2296 9.64459 67.9566 9.6814C66.0905 9.93299 63.9146 11.1283 62.6169 12.6507C61.4455 14.0193 60.3913 16.2078 60.5011 18.3302C60.514 18.5783 60.7171 18.7712 60.9655 18.7693C63.0305 18.7535 65.0958 17.5363 66.4188 15.9758Z" fill="white"/>
<path d="M107.656 48.1518C107.766 48.4895 107.514 48.8356 107.159 48.8356H104.739C104.511 48.8356 104.309 48.6883 104.24 48.4713L102.543 43.1404C102.474 42.9234 102.273 42.7761 102.045 42.7761H96.1106C95.8802 42.7761 95.677 42.9268 95.6102 43.1473L93.9979 48.4645C93.931 48.6849 93.7278 48.8356 93.4975 48.8356H91.1748C90.8201 48.8356 90.5683 48.49 90.6771 48.1524L96.9844 28.5688C97.054 28.3528 97.2551 28.2063 97.4821 28.2063H100.824C101.05 28.2063 101.251 28.3524 101.321 28.5682L107.656 48.1518ZM101.127 40.2339C101.482 40.2339 101.734 39.8876 101.624 39.5499L100.102 34.8471C99.9179 34.2995 99.5731 33.0136 99.0686 30.991C99.0642 30.9735 99.0484 30.9609 99.0303 30.9609C99.012 30.9609 98.9962 30.9732 98.992 30.991C98.7869 31.8678 98.4621 33.1537 98.0191 34.8471L96.5212 39.5523C96.4138 39.8896 96.6655 40.2339 97.0194 40.2339H101.127ZM124.931 41.2151C124.931 43.7449 124.244 45.7446 122.868 47.2126C121.637 48.5194 120.107 49.172 118.282 49.172C117.085 49.172 116.093 48.9132 115.305 48.395C114.864 48.1048 114.033 48.3919 114.033 48.9199V54.3444C114.033 54.6331 113.799 54.8672 113.51 54.8672H111.25C110.962 54.8672 110.727 54.6331 110.727 54.3444V38.8496C110.727 37.4349 110.694 35.9883 110.63 34.5086C110.617 34.2102 110.855 33.9604 111.154 33.9604H113.029C113.302 33.9604 113.529 34.1704 113.55 34.4425L113.694 36.2796C113.695 36.3014 113.714 36.3182 113.736 36.3182C113.75 36.3182 113.764 36.3106 113.771 36.2983C114.874 34.5351 116.543 33.6535 118.78 33.6535C120.535 33.6535 122 34.3464 123.172 35.7338C124.343 37.1243 124.931 38.9503 124.931 41.2151ZM121.563 41.336C121.563 39.8882 121.237 38.6946 120.583 37.7536C119.868 36.7755 118.908 36.2856 117.705 36.2856C116.889 36.2856 116.148 36.5585 115.486 37.0964C114.823 37.6389 114.388 38.3473 114.185 39.2247C114.095 39.5528 114.043 39.8905 114.032 40.2308V42.7125C114.032 43.793 114.364 44.706 115.027 45.4532C115.691 46.1973 116.553 46.5709 117.614 46.5709C118.859 46.5709 119.828 46.0888 120.521 45.1323C121.215 44.1728 121.563 42.9079 121.563 41.336ZM142.044 41.2151C142.044 43.7449 141.357 45.7446 139.982 47.2126C138.749 48.5194 137.22 49.172 135.394 49.172C134.197 49.172 133.205 48.9132 132.417 48.395C131.976 48.1048 131.145 48.3919 131.145 48.9199V54.3444C131.145 54.6331 130.911 54.8672 130.622 54.8672H128.362C128.074 54.8672 127.839 54.6331 127.839 54.3444V38.8496C127.839 37.4349 127.806 35.9883 127.742 34.5086C127.729 34.2102 127.967 33.9604 128.266 33.9604H130.141C130.414 33.9604 130.641 34.1704 130.662 34.4425L130.806 36.2796C130.807 36.3014 130.826 36.3182 130.847 36.3182C130.862 36.3182 130.875 36.3106 130.883 36.2983C131.984 34.5351 133.653 33.6535 135.891 33.6535C137.645 33.6535 139.11 34.3464 140.286 35.7338C141.455 37.1243 142.044 38.9503 142.044 41.2151ZM138.675 41.336C138.675 39.8882 138.348 38.6946 137.693 37.7536C136.978 36.7755 136.022 36.2856 134.819 36.2856C134.003 36.2856 133.262 36.5585 132.597 37.0964C131.933 37.6389 131.5 38.3473 131.297 39.2247C131.196 39.6339 131.142 39.9672 131.142 40.2308V42.7125C131.142 43.793 131.476 44.706 132.136 45.4532C132.8 46.1957 133.662 46.5709 134.725 46.5709C135.972 46.5709 136.941 46.0888 137.633 45.1323C138.327 44.1728 138.675 42.9079 138.675 41.336ZM161.178 43.0489C161.178 44.8052 160.564 46.2329 159.344 47.3351C158.001 48.538 156.126 49.141 153.723 49.141C151.681 49.141 150.011 48.7791 148.711 48.054C148.511 47.9421 148.422 47.7048 148.483 47.4834L148.961 45.7595C149.054 45.4277 149.436 45.2744 149.744 45.428C151.03 46.0686 152.422 46.3879 153.92 46.3879C155.166 46.3879 156.136 46.1058 156.827 45.5462C157.52 44.9851 157.871 44.2348 157.871 43.2985C157.871 42.4599 157.581 41.7576 157.012 41.1856C156.439 40.6152 155.494 40.0835 154.165 39.5952C150.552 38.2481 148.744 36.2779 148.744 33.686C148.744 31.9933 149.383 30.6074 150.657 29.5239C151.932 28.4419 153.622 27.9009 155.725 27.9009C157.411 27.9009 158.844 28.1646 160.019 28.691C160.248 28.7939 160.355 29.0549 160.281 29.2954L159.767 30.9653C159.67 31.2806 159.309 31.4273 159.006 31.2953C157.984 30.8491 156.854 30.626 155.615 30.626C154.449 30.626 153.534 30.9128 152.879 31.4833C152.329 31.9933 152.05 32.6149 152.05 33.3527C152.05 34.1666 152.368 34.8424 153 35.3726C153.549 35.8609 154.551 36.3926 155.999 36.963C157.776 37.6792 159.082 38.5132 159.917 39.4712C160.759 40.4292 161.178 41.6243 161.178 43.0489ZM172.136 35.9177C172.136 36.2065 171.902 36.4406 171.613 36.4406H169.015C168.726 36.4406 168.492 36.6747 168.492 36.9635V43.6628C168.492 45.4997 169.134 46.4158 170.421 46.4158C170.721 46.4158 170.996 46.403 171.244 46.3768C171.578 46.3414 171.901 46.5825 171.913 46.9183L171.967 48.3952C171.975 48.6202 171.839 48.8277 171.622 48.8881C171.025 49.0543 170.287 49.1379 169.41 49.1379C168.104 49.1379 167.084 48.7395 166.348 47.9427C165.614 47.146 165.245 45.8113 165.245 43.9325V36.9573C165.245 36.6685 165.011 36.4344 164.722 36.4344H163.597C163.308 36.4344 163.074 36.2003 163.074 35.9115V34.4771C163.074 34.1883 163.308 33.9542 163.597 33.9542H164.722C165.011 33.9542 165.245 33.7201 165.245 33.4313V31.619C165.245 31.3884 165.396 31.185 165.617 31.1184L167.818 30.4543C168.154 30.353 168.492 30.6042 168.492 30.9549V33.4313C168.492 33.7201 168.726 33.9542 169.015 33.9542H171.613C171.902 33.9542 172.136 34.1883 172.136 34.4771V35.9177ZM188.544 41.2756C188.544 43.562 187.889 45.4392 186.584 46.9072C185.218 48.4186 183.401 49.172 181.135 49.172C178.949 49.172 177.211 48.4481 175.915 47.0018C174.618 45.5524 173.97 43.7263 173.97 41.5236C173.97 39.2185 174.64 37.3304 175.975 35.8624C177.313 34.3929 179.115 33.6581 181.38 33.6581C183.563 33.6581 185.317 34.3836 186.644 35.8314C187.913 37.2359 188.544 39.0495 188.544 41.2756ZM185.117 41.3515C185.117 39.9889 184.822 38.8201 184.232 37.842C183.539 36.6608 182.546 36.0702 181.261 36.0702C179.937 36.0702 178.921 36.6608 178.229 37.842C177.637 38.8201 177.343 40.0091 177.343 41.4135C177.343 42.7776 177.637 43.9496 178.229 44.9246C178.944 46.1058 179.941 46.6964 181.233 46.6964C182.497 46.6964 183.487 46.0934 184.204 44.8951C184.812 43.8938 185.117 42.7172 185.117 41.3515ZM199.293 36.2406C199.294 36.5668 198.998 36.8121 198.673 36.7894C198.533 36.7796 198.392 36.775 198.252 36.7755C197.089 36.7755 196.19 37.2126 195.557 38.0931C195.008 38.8682 194.732 39.8479 194.732 41.0306V48.3127C194.732 48.6015 194.498 48.8356 194.209 48.8356H191.949C191.66 48.8356 191.426 48.6015 191.426 48.3127V38.645C191.429 37.2654 191.404 35.8859 191.352 34.5074C191.341 34.21 191.578 33.962 191.876 33.962H193.708C193.989 33.962 194.219 34.1828 194.231 34.4626L194.328 36.7553C194.329 36.7848 194.354 36.808 194.383 36.808C194.406 36.808 194.427 36.7934 194.435 36.7715C194.786 35.8102 195.331 35.0335 196.075 34.4503C196.765 33.9342 197.603 33.6547 198.464 33.6535C198.598 33.6535 198.725 33.6576 198.847 33.6655C199.104 33.6821 199.291 33.9031 199.291 34.1602L199.293 36.2406ZM214.078 40.6942C214.084 41.0508 214.066 41.4072 214.023 41.7608C213.992 42.0121 213.773 42.1932 213.52 42.1932H204.576C204.282 42.1932 204.044 42.436 204.075 42.7283C204.204 43.9387 204.673 44.8851 205.479 45.5633C206.315 46.2546 207.396 46.6019 208.723 46.6019C209.962 46.6019 211.11 46.4361 212.163 46.1019C212.468 46.0051 212.799 46.1803 212.869 46.4923L213.158 47.7706C213.214 48.0153 213.088 48.2663 212.853 48.3559C211.534 48.8604 210.005 49.1115 208.265 49.1115C205.958 49.1115 204.147 48.4326 202.829 47.0778C201.514 45.7214 200.855 43.8984 200.855 41.615C200.855 39.3735 201.468 37.5056 202.694 36.0159C203.978 34.4254 205.713 33.6302 207.896 33.6302C210.041 33.6302 211.664 34.4254 212.767 36.0159C213.64 37.2762 214.078 38.8387 214.078 40.6942ZM210.415 39.8368C210.699 39.8369 210.935 39.6098 210.916 39.3263C210.865 38.5594 210.653 37.8838 210.284 37.2963C209.712 36.3755 208.831 35.9167 207.651 35.9167C206.571 35.9167 205.69 36.3647 205.02 37.2638C204.578 37.8379 204.28 38.5052 204.127 39.2623C204.066 39.5657 204.31 39.834 204.62 39.8342L210.415 39.8368Z" fill="white"/>
<path d="M94.7676 20.9131C94.0537 20.9131 93.4146 20.886 92.8546 20.8384C92.5898 20.8158 92.3906 20.5916 92.3906 20.3259V11.2669C92.3906 11.0089 92.5787 10.7887 92.8345 10.7557C93.6152 10.6549 94.4019 10.6055 95.1894 10.6077C98.9805 10.6077 100.726 12.4726 100.726 15.5124C100.726 19.0188 98.6642 20.9131 94.7676 20.9131ZM95.3227 11.8866C94.996 11.8866 94.7003 11.8993 94.4351 11.9278C94.1884 11.9543 94.0141 12.1701 94.0141 12.4182V19.1273C94.0141 19.3845 94.2018 19.599 94.4588 19.6087C94.6391 19.6155 94.8579 19.6188 95.1119 19.6188C97.5958 19.6188 99.01 18.205 99.01 15.5574C99.01 13.1965 97.7307 11.8866 95.3227 11.8866ZM106.167 20.9891C104.031 20.9891 102.646 19.394 102.646 17.2284C102.646 14.9714 104.06 13.3624 106.288 13.3624C108.394 13.3624 109.81 14.8815 109.81 17.1091C109.81 19.394 108.351 20.9891 106.167 20.9891ZM106.229 14.5498C105.056 14.5498 104.304 15.6473 104.304 17.1819C104.304 18.6871 105.071 19.7846 106.214 19.7846C107.357 19.7846 108.124 18.6112 108.124 17.1509C108.124 15.6628 107.372 14.5498 106.229 14.5498ZM121.282 13.5134C121.635 13.5131 121.887 13.8555 121.781 14.1924L119.822 20.4565C119.753 20.6747 119.551 20.8232 119.323 20.8232H118.606C118.375 20.8232 118.171 20.6714 118.105 20.4499L117.269 17.6485C117.035 16.8768 116.84 16.0938 116.685 15.3025C116.683 15.2939 116.675 15.2876 116.667 15.2876C116.657 15.2876 116.65 15.2943 116.648 15.3033C116.528 16.0949 116.303 16.8878 116.065 17.6485L115.172 20.4585C115.104 20.6757 114.902 20.8232 114.674 20.8232H113.942C113.71 20.8232 113.506 20.6705 113.441 20.448L111.596 14.1833C111.498 13.8484 111.749 13.5127 112.098 13.5127H112.656C112.898 13.5127 113.108 13.6789 113.165 13.9144L113.897 16.9882C114.091 17.8102 114.254 18.5864 114.39 19.3198C114.392 19.3287 114.4 19.3351 114.409 19.3351C114.418 19.3351 114.425 19.3288 114.427 19.32C114.547 18.7071 114.741 17.9431 115.026 17.0037L115.953 13.888C116.019 13.6663 116.223 13.5143 116.454 13.5143H116.996C117.229 13.5143 117.433 13.6678 117.498 13.891L118.383 16.9292C118.621 17.7496 118.815 18.5547 118.966 19.316C118.969 19.328 118.979 19.3366 118.991 19.3366C119.004 19.3366 119.015 19.3272 119.017 19.3146C119.122 18.5692 119.287 17.7781 119.51 16.9292L120.297 13.9051C120.357 13.6749 120.564 13.5141 120.802 13.5139L121.282 13.5134ZM130.414 20.3005C130.413 20.5892 130.179 20.8232 129.891 20.8232H129.311C129.023 20.8232 128.788 20.5891 128.788 20.3003V16.6254C128.788 15.3326 128.292 14.6846 127.314 14.6846C126.351 14.6846 125.689 15.5124 125.689 16.4751V20.3003C125.689 20.5891 125.455 20.8232 125.166 20.8232H124.587C124.298 20.8232 124.064 20.5891 124.064 20.3003V15.6023C124.064 15.1179 124.055 14.6074 124.032 14.0655C124.019 13.7648 124.257 13.5112 124.559 13.5112H124.944C125.219 13.5112 125.447 13.7244 125.466 13.9989L125.507 14.6121C125.508 14.6276 125.521 14.6397 125.537 14.6397C125.547 14.6397 125.557 14.6339 125.562 14.6246C126.003 13.852 126.885 13.3624 127.872 13.3624C129.407 13.3624 130.415 14.5358 130.415 16.4456L130.414 20.3005ZM134.895 20.3003C134.895 20.5891 134.66 20.8232 134.372 20.8232H133.791C133.502 20.8232 133.268 20.5891 133.268 20.3003V10.6811C133.268 10.3923 133.502 10.1582 133.791 10.1582H134.372C134.66 10.1582 134.895 10.3923 134.895 10.6811V20.3003ZM140.819 20.9891C138.684 20.9891 137.298 19.394 137.298 17.2284C137.298 14.9714 138.712 13.3624 140.939 13.3624C143.046 13.3624 144.46 14.8815 144.46 17.1091C144.461 19.394 143.001 20.9891 140.819 20.9891ZM140.88 14.5498C139.706 14.5498 138.954 15.6473 138.954 17.1819C138.954 18.6871 139.723 19.7846 140.863 19.7846C142.007 19.7846 142.773 18.6112 142.773 17.1509C142.774 15.6628 142.024 14.5498 140.88 14.5498ZM151.292 20.8237C151.048 20.8234 150.842 20.6438 150.808 20.4026L150.753 20.0087C150.751 19.9931 150.737 19.9815 150.722 19.9815C150.712 19.9815 150.702 19.9863 150.696 19.9944C150.2 20.6631 149.479 20.9891 148.567 20.9891C147.257 20.9891 146.327 20.0714 146.327 18.8375C146.327 17.0635 147.839 16.1316 150.464 16.1007C150.539 16.0998 150.6 16.0395 150.6 15.9651C150.6 15.0024 150.09 14.5203 149.082 14.5203C148.614 14.5203 148.183 14.5967 147.786 14.7491C147.463 14.8735 147.07 14.7338 146.968 14.4024L146.961 14.3797C146.89 14.1529 146.98 13.9038 147.195 13.801C147.804 13.5086 148.527 13.3624 149.352 13.3624C151.262 13.3624 152.227 14.37 152.227 16.3867V19.0793C152.227 19.5114 152.238 19.8866 152.262 20.2108C152.285 20.5334 152.037 20.8245 151.714 20.8241L151.292 20.8237ZM150.644 17.7048C150.644 17.416 150.409 17.1796 150.12 17.1957C148.664 17.2771 147.933 17.7246 147.933 18.6561C147.933 19.4234 148.4 19.7986 149.048 19.7986C149.874 19.7986 150.644 19.1677 150.644 18.3104V17.7048ZM160.608 20.8232C160.332 20.8232 160.104 20.6092 160.086 20.3341L160.043 19.6771C160.042 19.6617 160.03 19.6498 160.014 19.6498C160.003 19.6498 159.993 19.6559 159.988 19.6654C159.521 20.5418 158.739 20.9891 157.649 20.9891C155.886 20.9891 154.58 19.4389 154.58 17.2579C154.58 14.9714 155.934 13.3608 157.782 13.3608C158.756 13.3608 159.447 13.6876 159.838 14.3442C159.842 14.3505 159.849 14.3545 159.856 14.3545C159.868 14.3545 159.877 14.3452 159.877 14.3337V10.6811C159.877 10.3923 160.111 10.1582 160.4 10.1582H160.981C161.27 10.1582 161.504 10.3923 161.504 10.6811V18.853C161.504 19.3464 161.512 19.8179 161.532 20.2622C161.545 20.5655 161.306 20.8232 161.002 20.8232H160.608ZM159.877 16.5216C159.877 15.4985 159.2 14.6257 158.165 14.6257C156.961 14.6257 156.224 15.6938 156.224 17.1974C156.224 18.6716 156.988 19.6808 158.133 19.6808C159.155 19.6808 159.877 18.7925 159.877 17.74V16.5216ZM171.816 20.9891C169.681 20.9891 168.297 19.394 168.297 17.2284C168.297 14.9714 169.711 13.3624 171.937 13.3624C174.045 13.3624 175.459 14.8815 175.459 17.1091C175.46 19.394 174.001 20.9891 171.816 20.9891ZM171.877 14.5498C170.705 14.5498 169.953 15.6473 169.953 17.1819C169.953 18.6871 170.72 19.7846 171.861 19.7846C173.006 19.7846 173.772 18.6112 173.772 17.1509C173.775 15.6628 173.023 14.5498 171.877 14.5498ZM184.198 20.3003C184.198 20.5891 183.964 20.8232 183.675 20.8232H183.094C182.805 20.8232 182.571 20.5891 182.571 20.3003V16.6254C182.571 15.3326 182.075 14.6846 181.097 14.6846C180.134 14.6846 179.473 15.5124 179.473 16.4751V20.3003C179.473 20.5891 179.239 20.8232 178.95 20.8232H178.369C178.081 20.8232 177.847 20.5891 177.847 20.3003V15.6023C177.847 15.1179 177.838 14.6074 177.815 14.0655C177.802 13.7648 178.04 13.5112 178.341 13.5112H178.727C179.002 13.5112 179.23 13.7244 179.249 13.9989L179.29 14.6121C179.291 14.6276 179.304 14.6397 179.319 14.6397C179.33 14.6397 179.34 14.6339 179.345 14.6246C179.784 13.852 180.667 13.3608 181.653 13.3608C183.188 13.3608 184.198 14.5343 184.198 16.4441V20.3003ZM195.131 14.2082C195.131 14.497 194.897 14.7311 194.608 14.7311H193.866C193.577 14.7311 193.343 14.9652 193.343 15.254V18.281C193.343 19.1847 193.656 19.6358 194.289 19.6358C194.32 19.6358 194.351 19.6354 194.381 19.6347C194.71 19.6269 195.021 19.8649 195.033 20.1934L195.041 20.4205C195.049 20.6438 194.915 20.8512 194.696 20.8963C194.441 20.9488 194.14 20.9751 193.794 20.9751C192.513 20.9751 191.747 20.2683 191.747 18.4174V15.254C191.747 14.9652 191.513 14.7311 191.224 14.7311H191.203C190.915 14.7311 190.681 14.497 190.681 14.2082V14.0356C190.681 13.7468 190.915 13.5127 191.203 13.5127H191.224C191.513 13.5127 191.747 13.2786 191.747 12.9898V12.5616C191.747 12.3311 191.898 12.1278 192.119 12.0611L192.669 11.895C193.004 11.7936 193.343 12.0448 193.343 12.3955V12.9883C193.343 13.2771 193.577 13.5112 193.866 13.5112H194.608C194.897 13.5112 195.131 13.7453 195.131 14.0341V14.2082ZM203.733 20.3003C203.733 20.5891 203.499 20.8232 203.21 20.8232H202.633C202.344 20.8232 202.11 20.5891 202.11 20.3003V16.6564C202.11 15.3481 201.615 14.6862 200.635 14.6862C199.793 14.6862 199.009 15.2582 199.009 16.4162V20.3003C199.009 20.5891 198.774 20.8232 198.486 20.8232H197.908C197.619 20.8232 197.385 20.5891 197.385 20.3003V10.6811C197.385 10.3923 197.619 10.1582 197.908 10.1582H198.486C198.774 10.1582 199.009 10.3923 199.009 10.6811V14.5287C199.009 14.5403 199.018 14.5498 199.03 14.5498C199.037 14.5498 199.043 14.5461 199.047 14.54C199.559 13.7498 200.298 13.3608 201.24 13.3608C202.787 13.3608 203.733 14.5637 203.733 16.4751V20.3003ZM212.6 17.1321C212.586 17.3816 212.366 17.5586 212.116 17.5586H208.205C207.911 17.5586 207.669 17.8027 207.731 18.0894C207.958 19.1409 208.802 19.7242 209.974 19.7242C210.468 19.7242 210.934 19.6675 211.368 19.5597C211.677 19.4826 212.007 19.6578 212.077 19.9692L212.103 20.0855C212.158 20.3301 212.032 20.582 211.794 20.6608C211.195 20.859 210.514 20.9581 209.745 20.9581C207.458 20.9581 206.104 19.5133 206.104 17.2734C206.104 15.0319 207.49 13.3469 209.562 13.3469C211.43 13.3469 212.602 14.7311 212.602 16.8223C212.607 16.9256 212.606 17.029 212.6 17.1321ZM210.534 16.4006C210.822 16.4006 211.063 16.1644 211.012 15.8802C210.86 15.0348 210.319 14.4754 209.448 14.4754C208.681 14.4754 208.046 15.0244 207.785 15.8382C207.691 16.1318 207.938 16.4006 208.246 16.4006H210.534Z" fill="white"/>
</svg>
