<svg width="259" height="68" viewBox="0 0 259 68" fill="none" xmlns="http://www.w3.org/2000/svg">
<path d="M258.5 58.8098C258.5 63.8845 253.395 68 247.098 68H11.9049C5.60724 68.0004 0.5 63.8849 0.5 58.8098V9.18935C0.5 4.11509 5.60724 0 11.9049 0H247.097C253.394 0 258.499 4.11509 258.499 9.18935V58.8098H258.5Z" fill="black"/>
<mask id="mask0_3710_5514" style="mask-type:luminance" maskUnits="userSpaceOnUse" x="46" y="13" width="40" height="46">
<path d="M76.1388 30.1155L66.7078 24.6707C66.7078 24.6707 49.5265 14.7497 48.5164 14.1666C47.5064 13.5835 46.5 13.9368 46.5 15.1554V57.9498C46.5 58.8633 47.2193 59.2571 48.0968 58.7508C48.974 58.2438 66.7078 48.0047 66.7078 48.0047L76.1384 42.5603C76.1384 42.5603 84.1403 37.9407 85.2038 37.3269C86.2675 36.7122 86.1652 35.8699 85.2677 35.3865C84.3705 34.9028 76.1388 30.1155 76.1388 30.1155Z" fill="white"/>
</mask>
<g mask="url(#mask0_3710_5514)">
<path d="M46.5 13.1714V59.5037L69.8635 36.3378L46.5 13.1714Z" fill="url(#paint0_linear_3710_5514)"/>
</g>
<mask id="mask1_3710_5514" style="mask-type:luminance" maskUnits="userSpaceOnUse" x="46" y="13" width="40" height="46">
<path d="M76.1388 30.1155L66.7078 24.6707C66.7078 24.6707 49.5265 14.7497 48.5164 14.1666C47.5064 13.5835 46.5 13.9368 46.5 15.1554V57.9498C46.5 58.8633 47.2193 59.2571 48.0968 58.7508C48.974 58.2438 66.7078 48.0047 66.7078 48.0047L76.1384 42.5603C76.1384 42.5603 84.1403 37.9407 85.2038 37.3269C86.2675 36.7122 86.1652 35.8699 85.2677 35.3865C84.3705 34.9028 76.1388 30.1155 76.1388 30.1155Z" fill="white"/>
</mask>
<g mask="url(#mask1_3710_5514)">
<path d="M76.1384 30.1152L66.7074 24.6704L46.5 13.0029V13.1714L69.8635 36.3378L76.1384 30.1152Z" fill="url(#paint1_linear_3710_5514)"/>
</g>
<mask id="mask2_3710_5514" style="mask-type:luminance" maskUnits="userSpaceOnUse" x="46" y="13" width="40" height="46">
<path d="M76.1388 30.1155L66.7078 24.6707C66.7078 24.6707 49.5265 14.7497 48.5164 14.1666C47.5064 13.5835 46.5 13.9368 46.5 15.1554V57.9498C46.5 58.8633 47.2193 59.2571 48.0968 58.7508C48.974 58.2438 66.7078 48.0047 66.7078 48.0047L76.1384 42.5603C76.1384 42.5603 84.1403 37.9407 85.2038 37.3269C86.2675 36.7122 86.1652 35.8699 85.2677 35.3865C84.3705 34.9028 76.1388 30.1155 76.1388 30.1155Z" fill="white"/>
</mask>
<g mask="url(#mask2_3710_5514)">
<path d="M46.5 59.5039V59.6723L66.7074 48.0045L76.138 42.5597L69.8635 36.3379L46.5 59.5039Z" fill="url(#paint2_linear_3710_5514)"/>
</g>
<mask id="mask3_3710_5514" style="mask-type:luminance" maskUnits="userSpaceOnUse" x="46" y="13" width="40" height="46">
<path d="M76.1388 30.1155L66.7078 24.6707C66.7078 24.6707 49.5265 14.7497 48.5164 14.1666C47.5064 13.5835 46.5 13.9368 46.5 15.1554V57.9498C46.5 58.8633 47.2193 59.2571 48.0968 58.7508C48.974 58.2438 66.7078 48.0047 66.7078 48.0047L76.1384 42.5603C76.1384 42.5603 84.1403 37.9407 85.2038 37.3269C86.2675 36.7122 86.1652 35.8699 85.2677 35.3865C84.3705 34.9028 76.1388 30.1155 76.1388 30.1155Z" fill="white"/>
</mask>
<g mask="url(#mask3_3710_5514)">
<path d="M76.1382 30.1152L69.8633 36.3378L76.1378 42.5596L86.9158 36.3374L76.1382 30.1152Z" fill="url(#paint3_linear_3710_5514)"/>
</g>
<path d="M193.59 45.395C192.712 45.395 191.912 45.233 191.187 44.9096C190.462 44.5857 189.852 44.0876 189.36 43.4162H189.213C189.311 44.203 189.36 44.9489 189.36 45.6534V51.198H187.321V31.6747H188.98L189.262 33.519H189.36C189.885 32.7809 190.496 32.2489 191.193 31.9209C191.889 31.593 192.689 31.429 193.59 31.429C195.377 31.429 196.756 32.0399 197.727 33.261C198.698 34.482 199.184 36.1954 199.184 38.3995C199.184 40.6126 198.69 42.3313 197.703 43.5577C196.715 44.7828 195.345 45.395 193.59 45.395ZM193.295 33.1624C191.918 33.1624 190.922 33.5439 190.308 34.3058C189.693 35.068 189.377 36.2813 189.36 37.9452V38.3995C189.36 40.2932 189.676 41.6476 190.308 42.4634C190.939 43.2793 191.951 43.6861 193.344 43.6861C194.508 43.6861 195.42 43.2154 196.08 42.2729C196.74 41.3307 197.07 40.0315 197.07 38.375C197.07 36.6955 196.74 35.4058 196.08 34.5086C195.421 33.6106 194.492 33.1624 193.295 33.1624ZM203.909 45.1488H201.869V26.0193H203.909V45.1488ZM215.642 45.1488L215.236 43.231H215.138C214.466 44.0758 213.796 44.6479 213.128 44.946C212.46 45.2457 211.626 45.395 210.627 45.395C209.291 45.395 208.244 45.0507 207.485 44.3624C206.727 43.6742 206.348 42.6952 206.348 41.4243C206.348 38.7037 208.524 37.2774 212.876 37.1457L215.164 37.0717V36.2359C215.164 35.1784 214.936 34.3974 214.481 33.894C214.026 33.3893 213.298 33.1375 212.299 33.1375C211.175 33.1375 209.905 33.4818 208.487 34.17L207.86 32.6087C208.525 32.248 209.251 31.9655 210.043 31.7606C210.834 31.5557 211.626 31.4531 212.422 31.4531C214.028 31.4531 215.218 31.8093 215.993 32.5225C216.767 33.2356 217.155 34.379 217.155 35.9529V45.1484H215.642L215.642 45.1488ZM211.032 43.711C212.302 43.711 213.3 43.3626 214.026 42.6662C214.75 41.9698 215.114 40.9941 215.114 39.7395V38.5226L213.072 38.608C211.449 38.6665 210.28 38.9176 209.562 39.3654C208.845 39.8119 208.487 40.5067 208.487 41.4493C208.487 42.1865 208.71 42.7484 209.157 43.1328C209.604 43.5184 210.228 43.711 211.032 43.711ZM218.339 31.6747H220.527L223.478 39.3588C224.125 41.1131 224.527 42.3792 224.683 43.1581H224.782C224.888 42.7394 225.112 42.025 225.451 41.0117C225.792 39.9992 226.905 36.8877 228.789 31.6747H230.978L225.187 47.018C224.614 48.5343 223.944 49.6101 223.176 50.2464C222.411 50.8811 221.47 51.198 220.356 51.198C219.733 51.198 219.118 51.1285 218.511 50.9895V49.3545C218.962 49.4527 219.466 49.5022 220.024 49.5022C221.425 49.5022 222.424 48.7154 223.024 47.1415L223.773 45.224L218.339 31.6747ZM155.785 32.9269C156.433 33.4629 157.786 34.5891 157.786 36.7323C157.786 38.8166 156.602 39.805 155.418 40.7336C155.052 41.0996 154.629 41.4954 154.629 42.1162C154.629 42.7349 155.051 43.0735 155.362 43.3274L156.377 44.115C157.617 45.1582 158.743 46.1171 158.743 48.0623C158.743 50.7114 156.179 53.3878 151.332 53.3878C147.245 53.3878 145.273 51.4437 145.273 49.357C145.273 48.3429 145.778 46.9063 147.443 45.9188C149.189 44.8478 151.558 44.7083 152.826 44.6217C152.43 44.115 151.98 43.5793 151.98 42.7071C151.98 42.2287 152.122 41.9465 152.262 41.6067C151.951 41.6353 151.641 41.6635 151.359 41.6635C148.373 41.6635 146.682 39.4369 146.682 37.2398C146.682 35.9431 147.274 34.5049 148.485 33.4634C150.092 32.1389 152.008 31.9127 153.531 31.9127H159.336L157.532 32.9273H155.785L155.785 32.9269ZM153.784 45.4408C153.558 45.4113 153.417 45.4113 153.136 45.4113C152.883 45.4113 151.359 45.469 150.177 45.8644C149.557 46.0881 147.752 46.7645 147.752 48.7665C147.752 50.7666 149.698 52.206 152.714 52.206C155.418 52.206 156.857 50.9069 156.857 49.1612C156.857 47.7209 155.926 46.9632 153.784 45.4408ZM154.601 40.0851C155.249 39.4361 155.304 38.5353 155.304 38.0274C155.304 35.9987 154.093 32.8422 151.755 32.8422C151.021 32.8422 150.233 33.2082 149.781 33.7725C149.303 34.3642 149.161 35.1244 149.161 35.858C149.161 37.746 150.26 40.8747 152.685 40.8747C153.389 40.8747 154.149 40.5365 154.601 40.0851ZM138.043 44.9897C133.569 44.9897 131.178 41.5004 131.178 38.3484C131.178 34.6619 134.188 31.512 138.466 31.512C142.6 31.512 145.189 34.7466 145.189 38.1521C145.19 41.4709 142.63 44.9897 138.043 44.9897ZM141.559 42.7108C142.236 41.8095 142.404 40.6846 142.404 39.5862C142.404 37.1093 141.223 32.383 137.733 32.383C136.805 32.383 135.877 32.7494 135.202 33.3415C134.104 34.325 133.906 35.5636 133.906 36.7749C133.906 39.5584 135.285 44.1437 138.691 44.1437C139.788 44.1437 140.914 43.61 141.559 42.7108ZM122.792 44.9897C118.318 44.9897 115.925 41.5004 115.925 38.3484C115.925 34.6619 118.937 31.512 123.214 31.512C127.35 31.512 129.938 34.7466 129.938 38.1521C129.938 41.4709 127.379 44.9897 122.792 44.9897ZM126.309 42.7108C126.984 41.8095 127.154 40.6846 127.154 39.5862C127.154 37.1093 125.971 32.383 122.482 32.383C121.554 32.383 120.625 32.7494 119.95 33.3415C118.852 34.325 118.656 35.5636 118.656 36.7749C118.656 39.5584 120.034 44.1437 123.44 44.1437C124.537 44.1437 125.662 43.61 126.309 42.7108ZM113.776 44.5485L109.73 45.4821C108.089 45.7372 106.618 45.9617 105.063 45.9617C97.2544 45.9617 94.2852 40.2188 94.2852 35.7206C94.2852 30.2333 98.4995 25.1426 105.714 25.1426C107.242 25.1426 108.712 25.3683 110.041 25.7363C112.163 26.3305 113.153 27.0653 113.776 27.4902L111.427 29.725L110.437 29.9503L111.144 28.8184C110.183 27.8856 108.427 26.1604 105.091 26.1604C100.621 26.1604 97.2536 29.5565 97.2536 34.5065C97.2536 39.8234 101.102 44.8306 107.267 44.8306C109.08 44.8306 110.011 44.4635 110.86 44.1232V39.5698L106.59 39.796L108.852 38.5782H114.85L114.115 39.2853C113.915 39.4558 113.888 39.513 113.831 39.7371C113.802 39.9923 113.775 40.8134 113.775 41.096V44.5485H113.776V44.5485Z" fill="#F9F9F9"/>
<path d="M164.724 43.7343C163.79 43.6492 163.594 43.4803 163.594 42.3758V26.3648C163.6 26.3039 163.603 26.2413 163.609 26.1824C163.723 25.1928 164.006 25.0231 164.884 24.5132H160.837L158.715 25.5318H160.878V25.5445L160.876 25.5343V42.999C160.876 43.5637 160.764 43.6496 160.113 44.4973H165.121L166.167 43.8766C165.687 43.8181 165.205 43.7907 164.724 43.7343ZM176.235 43.9943C175.927 44.1632 175.618 44.3607 175.31 44.5002C174.381 44.9214 173.426 45.0342 172.582 45.0342C171.685 45.0342 170.279 44.9762 168.845 43.9379C166.852 42.532 165.981 40.1161 165.981 38.0097C165.981 33.6559 169.521 31.5209 172.414 31.5209C173.426 31.5209 174.467 31.7732 175.309 32.3081C176.713 33.2335 177.078 34.4415 177.273 35.088L170.673 37.7579L168.509 37.9263C169.211 41.4942 171.627 43.5715 174.296 43.5715C175.729 43.5715 176.769 43.0669 177.724 42.5901L176.235 43.9943ZM173.595 35.6212C174.128 35.4253 174.408 35.256 174.408 34.8631C174.408 33.7402 173.145 32.4471 171.627 32.4471C170.502 32.4471 168.396 33.3186 168.396 36.352C168.396 36.8296 168.452 37.335 168.482 37.8425L173.595 35.6212ZM178.946 31.7131V33.5668H178.721V31.7131H178.108V31.5209H179.559V31.7131H178.946ZM181.473 33.5668V31.6959H181.463L180.892 33.5668H180.716L180.14 31.6959H180.133V33.5668H179.929V31.5209H180.279L180.8 33.1746H180.807L181.321 31.5209H181.676V33.5668H181.473Z" fill="#F9F9F9"/>
<path d="M99.9024 19.6346H98.4965C98.4965 19.4412 98.3632 18.8936 98.0966 17.9916H96.0671C95.7919 18.8789 95.6541 19.4264 95.6541 19.6346H94.332C94.332 19.5205 94.6739 18.5832 95.3576 16.8233C96.0413 15.0632 96.3832 14.0937 96.3832 13.9154H98.0438C98.0438 14.0822 98.3534 15.0375 98.9729 16.7815C99.5924 18.5256 99.9024 19.4764 99.9024 19.6346ZM97.8729 17.1524C97.372 15.6414 97.1217 14.8244 97.1217 14.7013H97.0514C97.0514 14.8154 96.7921 15.6324 96.274 17.1524H97.8729ZM105.567 19.6346H104.482C104.482 19.5144 104.079 18.8806 103.274 17.7327C102.431 16.5231 101.95 15.6963 101.833 15.251H101.763C101.836 15.8921 101.873 16.472 101.873 16.9905C101.873 17.7139 101.894 18.5956 101.934 19.6351H100.854C100.897 18.7272 100.919 17.7303 100.919 16.6438C100.919 15.5749 100.897 14.6654 100.854 13.9158H102.158C102.158 14.0712 102.52 14.6908 103.243 15.774C104.013 16.9247 104.455 17.7053 104.57 18.1155H104.635C104.565 17.4624 104.53 16.8768 104.53 16.3583C104.53 15.5651 104.509 14.7505 104.469 13.9158H105.567C105.526 14.6421 105.506 15.5515 105.506 16.6438C105.505 17.7442 105.526 18.7411 105.567 19.6346ZM111.933 16.5771C111.933 17.4088 111.667 18.1351 111.134 18.7559C110.601 19.377 109.854 19.687 108.893 19.687C108.46 19.687 107.863 19.6694 107.101 19.6342C107.139 18.7497 107.158 17.7523 107.158 16.643C107.158 15.5773 107.139 14.6679 107.101 13.915H107.87C107.996 13.915 108.183 13.9105 108.432 13.9019C108.681 13.8933 108.844 13.8888 108.92 13.8888C109.977 13.8888 110.743 14.1526 111.219 14.6797C111.695 15.2068 111.933 15.839 111.933 16.5771ZM110.734 16.766C110.734 16.2037 110.57 15.7302 110.242 15.3446C109.914 14.9598 109.414 14.7672 108.74 14.7672C108.614 14.7672 108.442 14.7803 108.222 14.8069C108.251 15.3928 108.265 16.0046 108.265 16.6429C108.265 17.343 108.28 18.0369 108.309 18.7252C108.497 18.763 108.688 18.7822 108.88 18.7824C109.51 18.7824 109.976 18.5866 110.279 18.1956C110.582 17.8047 110.734 17.3282 110.734 16.766ZM117.804 19.6346H116.504C116.164 18.598 115.904 17.958 115.722 17.7151C115.541 17.4718 115.248 17.3504 114.844 17.3504C114.674 17.3504 114.511 17.352 114.356 17.3549C114.356 18.1077 114.369 18.8675 114.396 19.6346H113.175C113.213 18.7501 113.232 17.7527 113.232 16.6433C113.232 15.5777 113.213 14.6682 113.175 13.9154H113.935C114.023 13.9154 114.206 13.9109 114.486 13.9023C114.766 13.8937 115.024 13.8892 115.261 13.8892C116.605 13.8892 117.278 14.3488 117.278 15.2685C117.278 15.9976 116.894 16.5055 116.127 16.793V16.8588C116.423 16.9406 116.682 17.1717 116.904 17.5503C117.126 17.9294 117.426 18.6242 117.804 19.6346ZM116.157 15.5932C116.157 15.0105 115.782 14.7189 115.033 14.7189C114.757 14.7189 114.514 14.7394 114.303 14.7803C114.336 15.2342 114.352 15.8259 114.352 16.555C114.513 16.5611 114.649 16.5636 114.76 16.5636C115.691 16.564 116.157 16.2405 116.157 15.5932ZM124.101 16.6695C124.101 17.5683 123.826 18.3138 123.275 18.9055C122.724 19.4968 122.043 19.7928 121.232 19.7928C120.459 19.7928 119.812 19.5213 119.291 18.9778C118.769 18.4348 118.509 17.7442 118.509 16.9071C118.509 16.0082 118.784 15.2628 119.335 14.6711C119.885 14.0798 120.566 13.7837 121.377 13.7837C122.151 13.7837 122.798 14.0544 123.319 14.5962C123.84 15.1381 124.101 15.8288 124.101 16.6695ZM122.889 16.7967C122.889 16.1845 122.732 15.6881 122.419 15.3074C122.105 14.9267 121.719 14.7365 121.259 14.7365C120.832 14.7365 120.468 14.9283 120.17 15.3119C119.871 15.6954 119.721 16.1801 119.721 16.766C119.721 17.3749 119.879 17.8705 120.194 18.2529C120.508 18.6352 120.894 18.8262 121.351 18.8262C121.779 18.8262 122.142 18.6336 122.441 18.2484C122.739 17.8636 122.889 17.3794 122.889 16.7967ZM126.585 19.6346H125.342C125.38 18.7268 125.399 17.7298 125.399 16.6433C125.399 15.5744 125.38 14.665 125.342 13.9154H126.585C126.547 14.6535 126.527 15.5625 126.527 16.6433C126.527 17.747 126.547 18.7444 126.585 19.6346ZM132.952 16.5771C132.952 17.4088 132.685 18.1351 132.152 18.7559C131.619 19.377 130.872 19.687 129.912 19.687C129.478 19.687 128.881 19.6694 128.119 19.6342C128.157 18.7497 128.177 17.7523 128.177 16.643C128.177 15.5773 128.157 14.6679 128.119 13.915H128.888C129.014 13.915 129.201 13.9105 129.45 13.9019C129.699 13.8933 129.862 13.8888 129.938 13.8888C130.995 13.8888 131.761 14.1526 132.238 14.6797C132.714 15.2068 132.952 15.839 132.952 16.5771ZM131.753 16.766C131.753 16.2037 131.589 15.7302 131.261 15.3446C130.933 14.9598 130.432 14.7672 129.758 14.7672C129.632 14.7672 129.46 14.7803 129.24 14.8069C129.269 15.3928 129.284 16.0046 129.284 16.6429C129.284 17.343 129.298 18.0369 129.327 18.7252C129.515 18.763 129.706 18.7822 129.898 18.7824C130.528 18.7824 130.994 18.5866 131.297 18.1956C131.6 17.8047 131.753 17.3282 131.753 16.766ZM141.398 19.6346H139.993C139.993 19.4412 139.859 18.8936 139.592 17.9916H137.563C137.287 18.8789 137.15 19.4264 137.15 19.6346H135.828C135.828 19.5205 136.17 18.5832 136.854 16.8233C137.537 15.0632 137.879 14.0937 137.879 13.9154H139.54C139.54 14.0822 139.85 15.0375 140.469 16.7815C141.088 18.5256 141.398 19.4764 141.398 19.6346ZM139.369 17.1524C138.868 15.6414 138.617 14.8244 138.617 14.7013H138.547C138.547 14.8154 138.288 15.6324 137.77 17.1524H139.369ZM146.522 15.4129C146.522 16.113 146.262 16.6298 145.742 16.9635C145.223 17.2972 144.585 17.4644 143.829 17.4644C143.692 17.4644 143.594 17.4616 143.535 17.4558C143.535 18.0067 143.551 18.7325 143.583 19.6346H142.349C142.387 18.7886 142.406 17.7911 142.406 16.6433C142.406 15.5891 142.387 14.6797 142.349 13.9154H143.113C143.221 13.9154 143.429 13.9109 143.737 13.9023C144.044 13.8937 144.31 13.8892 144.536 13.8892C145.092 13.8892 145.562 14.0151 145.946 14.267C146.33 14.519 146.522 14.9005 146.522 15.4129ZM145.389 15.6546C145.389 15.028 144.973 14.7144 144.141 14.7144C143.933 14.7144 143.714 14.7365 143.483 14.7803C143.515 15.334 143.531 15.9604 143.531 16.6605C143.604 16.6666 143.689 16.6691 143.786 16.6691C144.855 16.6695 145.389 16.3313 145.389 15.6546ZM151.791 15.4129C151.791 16.113 151.531 16.6298 151.011 16.9635C150.492 17.2972 149.854 17.4644 149.098 17.4644C148.96 17.4644 148.863 17.4616 148.804 17.4558C148.804 18.0067 148.82 18.7325 148.852 19.6346H147.617C147.655 18.7886 147.675 17.7911 147.675 16.6433C147.675 15.5891 147.655 14.6797 147.617 13.9154H148.382C148.49 13.9154 148.698 13.9109 149.005 13.9023C149.313 13.8937 149.579 13.8892 149.805 13.8892C150.361 13.8892 150.831 14.0151 151.215 14.267C151.598 14.519 151.791 14.9005 151.791 15.4129ZM150.658 15.6546C150.658 15.028 150.242 14.7144 149.41 14.7144C149.202 14.7144 148.982 14.7365 148.751 14.7803C148.784 15.334 148.8 15.9604 148.8 16.6605C148.873 16.6666 148.958 16.6691 149.054 16.6691C150.123 16.6695 150.658 16.3313 150.658 15.6546ZM160.405 16.6695C160.405 17.5683 160.13 18.3138 159.579 18.9055C159.028 19.4972 158.347 19.7928 157.536 19.7928C156.763 19.7928 156.116 19.5213 155.595 18.9778C155.074 18.4348 154.813 17.7442 154.813 16.9071C154.813 16.0082 155.088 15.2628 155.639 14.6711C156.19 14.0793 156.87 13.7837 157.681 13.7837C158.455 13.7837 159.102 14.0544 159.623 14.5962C160.144 15.1381 160.405 15.8288 160.405 16.6695ZM159.192 16.7967C159.192 16.1845 159.036 15.6881 158.722 15.3074C158.409 14.9267 158.022 14.7365 157.563 14.7365C157.135 14.7365 156.772 14.9283 156.473 15.3119C156.175 15.6954 156.025 16.1801 156.025 16.766C156.025 17.3749 156.183 17.8705 156.498 18.2529C156.812 18.6352 157.198 18.8262 157.655 18.8262C158.083 18.8262 158.446 18.6336 158.744 18.2484C159.043 17.8636 159.192 17.3794 159.192 16.7967ZM166.359 19.6346H165.274C165.274 19.5144 164.871 18.8806 164.066 17.7327C163.223 16.5231 162.742 15.6963 162.625 15.251H162.555C162.628 15.8921 162.665 16.472 162.665 16.9905C162.665 17.7139 162.685 18.5956 162.726 19.6351H161.646C161.689 18.7272 161.711 17.7303 161.711 16.6438C161.711 15.5749 161.689 14.6654 161.646 13.9158H162.95C162.95 14.0712 163.312 14.6908 164.035 15.774C164.805 16.9247 165.247 17.7053 165.361 18.1155H165.427C165.357 17.4624 165.322 16.8768 165.322 16.3583C165.322 15.5651 165.301 14.7505 165.26 13.9158H166.359C166.317 14.6421 166.297 15.5515 166.297 16.6438C166.297 17.7442 166.318 18.7411 166.359 19.6346Z" fill="#F9F9FA"/>
<defs>
<linearGradient id="paint0_linear_3710_5514" x1="58.1817" y1="13.1715" x2="58.1817" y2="59.5038" gradientUnits="userSpaceOnUse">
<stop stop-color="#257CB0"/>
<stop offset="0.286" stop-color="#4A93B5"/>
<stop offset="0.767" stop-color="#78BCBB"/>
<stop offset="1" stop-color="#89CFBD"/>
</linearGradient>
<linearGradient id="paint1_linear_3710_5514" x1="46.5004" y1="24.67" x2="76.1388" y2="24.67" gradientUnits="userSpaceOnUse">
<stop stop-color="#52C1AD"/>
<stop offset="1" stop-color="#DEE89A"/>
</linearGradient>
<linearGradient id="paint2_linear_3710_5514" x1="61.319" y1="36.338" x2="61.319" y2="59.6724" gradientUnits="userSpaceOnUse">
<stop stop-color="#EC413D"/>
<stop offset="0.167" stop-color="#DA4452"/>
<stop offset="0.575" stop-color="#B0487A"/>
<stop offset="0.862" stop-color="#954A92"/>
<stop offset="1" stop-color="#8A4A9D"/>
</linearGradient>
<linearGradient id="paint3_linear_3710_5514" x1="78.3897" y1="30.1153" x2="78.3897" y2="42.5593" gradientUnits="userSpaceOnUse">
<stop stop-color="#F58879"/>
<stop offset="0.119" stop-color="#F69079"/>
<stop offset="0.713" stop-color="#FCB877"/>
<stop offset="1" stop-color="#FEC874"/>
</linearGradient>
</defs>
</svg>
