<svg width="895" height="919" viewBox="0 0 895 919" fill="none" xmlns="http://www.w3.org/2000/svg">
<circle cx="442" cy="494" r="395" fill="#EAF0F2"/>
<path d="M738.473 477.499C734.237 475.818 737.866 472.03 738.291 462.724C738.562 458.747 737.644 452.828 735.746 449.787C732.913 445.396 729.661 442.471 724.048 442.203C715.077 441.746 710.326 447.539 712.041 455.571C712.671 458.925 715.362 463.261 715.178 468.253C715.033 476.853 709.966 490.852 709.818 498.636C709.74 500.892 710.116 504.472 709.612 505.742C706.791 505.439 703.162 509.227 701.762 512.755C697.672 523.058 702.665 533.535 702.667 534.353L692.87 551.212C684.112 566.686 673.463 581.574 654.969 584.525C642.733 586.529 631.076 583.372 619.141 581.738C609.83 580.493 601.959 580.146 594.555 585.212C586.898 590.504 584.021 600.635 591.884 608.821C599.663 616.81 615.923 621.957 627.067 623.114C634.148 623.801 644.865 623.153 651.599 620.599C657.15 618.554 661.094 616.853 665.851 613.513C673.058 608.532 672.944 607.997 678.459 603.161C683.523 598.637 691.873 588.718 695.891 583.125C696.621 582.108 715.638 553.551 716.59 551.152C720.826 552.833 723.427 555.336 730.536 555.544C732.313 555.596 735.753 555.164 737.218 554.766C743.502 552.523 748.844 546.475 748.602 540.497C748.486 539.144 748.172 537.876 748.282 536.776L761.066 529.271C765.6 526.496 777.3 524.606 782.712 523.323C790.857 521.329 807.01 518.102 813.569 513.517C818.524 510.093 819.846 508.821 822.087 503.175C824.384 497.389 822.56 490.457 816.126 489.373C826.538 480.436 821.614 464.432 806.896 466.105C808.688 461.588 808.937 459.727 808.025 456.261C806.97 451.921 802.846 449.957 798.893 448.388C793.387 446.202 785.468 448.45 781.382 450.096L776.564 451.941C776.508 452.082 776.17 452.111 776.17 452.111L775.72 452.422C762.594 459.138 761.438 459.169 748.831 469.521C745.707 472.039 743.936 474.44 742.22 475.883C741.742 476.673 739.602 477.948 738.473 477.499Z" fill="#232021"/>
<path d="M724.904 530.35C722.387 529.677 716.394 522.075 715.256 519.991C711.074 512.781 711.429 509.821 710.09 507.005C701.131 506.876 695.905 529.121 711.905 544.939C727.819 560.56 747.881 552.528 747.181 539.845C747.033 538.155 747.004 537.816 746.379 536.915C742.544 539.147 730.932 539.924 731.568 536.259C732.839 535.947 735.501 537.494 737.14 537.492C739.062 537.602 740.277 537.431 742.084 537.006C750.384 535.078 754.289 528.956 767.441 524.711C772.944 522.815 780.034 521.875 786.189 520.401C792.682 518.898 798.357 517.397 804.624 515.641C824.355 510.089 825.108 492.924 816.933 490.821C815.32 490.344 813.345 491.193 811.877 491.589C799.989 493.889 791.014 496.691 780.264 501.074C778.74 501.612 776.824 503.137 775.942 501.644C777.881 498.823 804.982 491.627 809.33 490.578C812.408 489.841 813.313 490.037 815.903 487.638C826.012 478.267 819.347 457.504 791.968 473.24L770.03 485.587C767.041 487.338 767.719 487.281 766.841 486.606C766.92 485.168 768.332 484.913 769.629 484.122C778.088 479.319 794.101 469.517 801.892 467.223C803.416 466.686 804.321 466.882 805.361 465.499C810.928 458.079 804.088 436.104 764.787 460.002C757.908 464.127 750.864 469.492 745.094 475.362C742.898 477.591 740.788 480.018 737.477 478.867C732.271 477.127 736.372 470.921 736.732 461.76C737.222 442.368 719.269 440.138 714.38 447.501C710.756 452.918 715.247 459.76 716.112 464.184C719.487 481.682 700.968 501.099 719.906 523.959C720.814 524.972 721.808 526.183 723.055 527.167C723.565 527.533 725.378 528.742 725.382 529.56C725.388 531.194 725.158 530.124 724.904 530.35Z" fill="#FCFBFB"/>
<path d="M738.187 487.565C737.861 488.386 739.29 493.704 739.154 497.926C738.941 505.442 737.22 507.451 737.1 509.304C737.095 510.094 736.992 509.578 737.228 510.146C737.814 510.221 738.183 510.842 738.949 508.137C739.25 506.99 739.606 505.706 739.853 504.696C740.269 502.486 740.576 500.549 740.671 498.37C740.791 496.517 740.62 494.232 740.365 492.547C740.159 491.515 740.111 490.863 739.904 489.831L739.541 488.42C738.537 487.071 738.187 487.565 738.187 487.565Z" fill="#232021"/>
<path d="M608.297 918.624C616.66 918.624 624.111 908.262 628.065 901.863C628.977 900.339 629.89 898.815 630.65 897.139C631.258 895.92 635.364 888.301 634.908 887.082C634.604 885.711 634.908 886.32 633.691 885.711C632.931 885.254 632.475 885.254 631.562 884.796C635.668 877.178 642.511 866.664 646.921 858.435C650.114 852.493 653.612 846.855 656.805 840.455C662.736 828.722 665.929 820.037 665.929 804.951C665.929 794.133 662.431 789.257 653.612 785.142C651.483 784.076 649.962 783.923 647.377 783.314C645.096 782.857 642.207 783.466 640.23 782.4C626.544 775.695 611.794 779.352 600.694 788.495C590.201 797.18 583.054 808.913 583.054 825.674C576.363 825.674 575.603 827.198 570.585 830.398C569.825 829.179 568.912 828.265 568.152 827.046C563.438 820.189 560.245 815.465 555.835 808.304C551.577 801.142 541.389 783.009 538.5 775.847L534.698 767.314C533.329 764.267 532.265 761.524 531.048 758.477C529.832 755.429 528.767 752.534 527.703 749.486C523.293 736.534 519.34 724.497 516.45 711.088C515.234 705.602 514.93 702.097 510.064 698.898C505.958 696.155 498.963 697.069 495.618 700.726C490.752 706.059 492.576 711.392 494.097 717.487C496.834 728.763 500.027 740.801 503.829 751.62L509.607 767.314C514.169 778.59 517.971 786.819 523.293 797.485L527.095 804.647C531.2 812.875 538.347 824.151 543.366 831.77L557.051 850.969C559.788 854.626 558.268 853.255 557.964 859.502C557.508 868.949 558.876 876.416 567.24 882.358C568.456 883.12 569.368 883.882 570.737 884.339C573.322 885.558 573.322 884.644 574.235 886.32C575.603 888.758 575.603 889.825 578.188 893.33L583.206 899.272C586.248 902.32 585.639 902.015 589.137 904.301C591.57 905.824 591.418 911.767 600.085 915.272L608.297 918.624Z" fill="#232021"/>
<path d="M428.713 702.702C428.713 706.675 434.181 725.013 435.397 728.986C437.827 737.544 439.954 745.643 442.385 754.201C442.993 756.34 456.057 802.337 456.057 804.935C453.323 804.935 442.537 808.144 442.537 813.798C442.537 815.479 443.6 816.396 444.36 817.466C442.081 821.744 443.6 821.439 442.081 829.843C441.625 832.136 441.17 833.817 440.562 836.109C438.587 843.138 429.168 837.331 422.18 837.331H416.711C404.558 837.331 393.164 845.431 388.455 855.822C384.809 863.768 386.024 869.422 386.48 876.299C385.113 876.605 383.594 878.286 383.594 879.202V894.178C383.594 895.706 389.974 899.985 391.493 900.902C400.608 906.862 413.673 911.446 425.522 911.446C437.372 911.446 441.929 911.293 453.778 907.931C459.247 906.403 461.83 904.875 465.932 901.819C467.147 901.055 466.236 901.208 467.755 901.36C483.402 902.43 473.527 904.264 490.39 898.61L504.214 893.873C505.581 893.414 508.012 893.108 508.012 891.58V872.173C508.012 870.186 507.101 869.422 507.101 868.505C507.101 867.436 508.012 866.366 508.012 864.532C508.012 858.42 507.101 857.044 507.556 851.543C507.86 847.57 504.518 839.776 502.999 836.262C502.087 834.275 499.809 830.608 499.353 828.621C500.872 826.482 502.239 825.412 502.239 822.05C502.239 820.216 501.48 818.535 500.416 817.618C507.404 807.227 486.592 804.171 480.06 803.712L475.958 789.042C468.97 765.05 462.438 738.919 455.45 714.622C453.475 707.592 451.955 697.354 447.55 693.992C439.043 687.421 428.713 693.992 428.713 702.702Z" fill="#232021"/>
<path d="M181.433 424.513L182.468 428.342L178.263 428.21C175.217 428.478 172.79 429.558 170.561 431.683C164.834 437.414 167.73 446.154 172.28 450.556C167.348 451.491 165.047 454.869 165.028 459.672C165.03 465.4 168.264 470.206 172.41 473.291L174.749 475.015C178.248 477.139 181.784 478.636 185.618 480.077C187.61 480.783 189.274 481.397 191.415 482.075L215.212 489.176C220.86 491.202 226.145 493.761 230.973 497.181C232.574 498.271 233.867 500.194 235.923 500.423C236.235 502.067 231.626 515.327 249.213 519.89C253.766 521.039 262.406 519.247 266.223 516.51C266.805 517.948 267.423 518.76 268.127 520.02L278.18 537.933C285.448 550.954 297.799 568.74 309.106 577.745C309.667 578.257 309.995 578.35 310.556 578.863C311.296 579.497 311.324 579.646 312.064 580.28L315.264 582.461L315.442 582.582L319.83 585.311C331.28 591.811 345.432 593.773 358.584 591.28C364.563 590.147 369.858 588.678 375.254 586.107L380.081 583.799C381.192 583.124 382.965 581.859 384.168 580.856C385.493 579.676 386.426 578.88 387.544 577.43C394.598 567.267 386.902 555.256 375.86 552.549C371.962 551.585 369.308 551.469 364.682 551.572C352.656 551.839 339.112 554.716 327.849 553.29C324.662 552.81 320.557 551.575 317.854 550.385C316.161 549.622 315.122 549.045 313.401 548.132L311.324 546.978C307.946 544.676 305.202 541.635 302.309 538.623C298.825 534.948 296.04 530.057 293.461 525.436L281.989 503.303C280.639 501.082 280.76 500.904 281.68 498.407C286.087 487.353 283.311 472.706 275.021 472.265C275.949 468.992 275.932 464.815 275.579 461.321L273.166 446.141C269.709 427.907 277.731 425.302 276.343 417.979C275.663 414.392 273.836 412.106 271.582 410.83C267.428 408.521 260.504 408.75 256.623 411.963C254.487 413.761 252.948 415.446 251.907 418.121C249.953 422.517 249.651 425.826 249.831 431.675C249.921 434.6 250.673 436.934 250.763 439.859C251.031 442.905 248.931 444.077 246.47 442.531C245.076 441.711 235.458 430.993 230.274 427.331L216.612 418.154C211.392 415.118 205.873 412.139 199.946 411.095C194.468 409.965 186.219 411.374 182.977 416.324C181.637 419.055 180.866 421.524 181.433 424.513Z" fill="#232021"/>
<path d="M220.545 451.162C218.844 451.175 216.569 448.974 214.819 447.912C213.013 446.551 210.936 445.397 208.86 444.242C207.793 443.515 207.11 443.18 206.043 442.453C205.005 441.876 204.386 441.064 203.348 440.487C201.392 439.155 199.194 438.178 197.388 436.817C190.398 431.794 176.826 425.542 170.62 434.46C167.685 438.577 168.726 444.883 172.415 448.828C176.283 452.895 179.122 452.356 185.397 454.418C191.998 456.573 201.986 460.254 208.337 463.54C209.731 464.359 210.927 464.133 210.94 465.833C209.296 466.145 205.235 463.509 202.738 462.588C190.645 457.604 188.916 457.467 176.218 453.371C172.263 452.108 169.758 451.964 167.691 455.762C166.08 458.699 166.369 462.67 168.123 466.208C171.135 472.295 176.981 475.367 182.331 477.45C196.771 483.383 215.96 485.784 226.692 492.574L232.232 496.479C235.432 498.659 238.454 500.718 242.26 502.01C244.729 502.78 247.411 503.046 250.045 502.237C252.678 501.428 251.753 501.449 252.614 501.905C252.606 502.68 253.168 503.193 249.282 503.93C244.2 504.893 241.206 502.983 237.756 501.934C233.397 514.063 251.609 527.642 270.772 511.933C279.075 505.095 284.322 493.572 282.048 482.391C281.077 478.085 278.127 474.773 274.818 474.471C273.802 480.547 269.071 488.257 264.733 492.33C263.95 493.098 263.167 493.866 262.234 494.662C261.842 495.046 261.03 495.665 260.76 495.871C260.219 496.283 259.621 496.396 258.966 496.211C259.103 494.482 259.301 495.528 261.68 493.374C268.723 487.239 273.519 479.053 274.453 469.277C275.454 455.772 267.753 441.284 271.99 429.333C273.403 425.349 277.892 417.996 272.061 413.372C267.887 410.138 260.487 410.302 256.234 414.824C248.877 422.567 252.226 433.699 252.547 440.296C252.751 443.818 250.372 445.972 246.716 444.653C244.724 443.946 238.738 436.875 235.368 433.798C226.409 425.742 205.822 411.065 193.275 412.669C181.476 414.132 181.338 424.841 184.523 428.573C185.319 429.506 186.6 429.727 188.086 430.22C190.583 431.14 193.492 432.601 195.42 433.784C196.664 434.632 197.497 434.939 198.741 435.787C199.957 436.485 200.725 437.268 201.941 437.967L218.306 448.335C219.579 449.332 221.158 449.497 220.545 451.162Z" fill="#FCFBFB"/>
<path d="M419.806 840.206H418.746H416.625C416.17 840.508 416.625 840.357 415.867 840.508C415.413 840.66 414.959 840.508 414.504 840.508H413.747C413.747 840.508 413.595 840.508 413.595 840.66C413.595 840.811 413.444 840.811 413.292 840.811C412.838 840.962 412.838 840.962 412.232 840.962H411.777C411.323 841.265 412.383 841.265 410.717 841.265H409.96L409.202 841.567H408.445L408.142 841.87C401.931 842.626 394.054 850.039 391.024 856.393C388.601 861.536 387.389 873.034 389.358 876.513C389.813 877.269 392.994 879.236 394.054 879.841C416.019 894.061 444.346 892.549 467.977 879.539C477.52 874.244 480.701 874.698 491.911 871.823C509.028 867.587 505.393 867.436 505.09 854.124C504.635 841.265 501 840.054 497.213 830.221C494.941 831.28 486.003 835.97 483.125 834.457L482.974 833.096C484.337 832.339 486.912 832.037 488.73 831.432C490.851 830.675 492.517 830.07 494.335 829.011C497.061 827.65 502.06 823.716 498.576 819.329C497.213 819.632 494.941 820.993 493.123 821.447C491.154 822.052 489.033 822.657 486.761 823.111C482.065 824.019 477.217 824.321 472.37 824.321C465.856 824.321 458.131 823.565 451.768 821.598C449.648 820.993 447.981 819.934 446.315 819.329C443.285 824.624 448.739 827.952 452.677 829.767C454.192 830.373 456.616 830.826 455.101 832.49C454.798 832.793 455.707 832.944 453.889 832.793C451.314 832.642 446.618 828.86 444.8 827.65C443.588 836.272 442.831 841.113 436.166 842.021C436.166 842.021 436.317 842.021 436.317 842.172L440.104 845.047C441.468 846.106 442.68 847.165 443.74 848.224C445.255 849.585 449.799 853.67 449.345 856.241C446.921 856.998 447.073 855.031 443.285 851.249C442.377 850.341 441.468 849.283 440.407 848.375C434.954 843.534 428.743 839.752 419.806 840.206Z" fill="#FCFBFB"/>
<path d="M588.269 901.876C586.739 893.972 590.716 884.396 594.846 878.164C596.376 875.884 597.753 874.364 599.129 871.932C619.78 836.059 606.319 813.259 624.522 793.195C630.793 786.355 632.17 787.571 637.218 784.683C621.31 777.995 607.39 786.355 598.671 794.107C590.257 801.555 583.221 816.299 585.209 833.019C587.198 850.347 594.387 845.331 586.892 850.955C572.207 861.9 568.995 881.812 581.844 895.492C583.221 896.708 586.433 900.812 588.269 901.876Z" fill="#FCFBFB"/>
<path d="M604.914 875.698L629.471 883.93L641.825 862.587C646.096 855.421 650.062 848.408 654.027 840.785C657.993 833.467 661.196 825.54 662.721 815.782C663.484 810.751 663.942 805.11 663.027 799.927C661.806 792.609 660.434 792.304 654.79 790.932C646.554 788.95 638.012 796.725 634.047 802.823C629.776 809.684 626.725 818.527 624.895 827.826C622.76 839.261 616.964 861.824 608.88 870.819C608.117 872.039 605.524 874.631 604.914 875.698Z" fill="#FCFBFB"/>
<path d="M479.805 885.334C480.562 887.457 480.108 895.646 480.108 898.679L505.55 890.035C505.55 887.608 505.852 871.23 505.247 870.169C504.641 869.107 505.55 869.562 502.218 870.775C500.855 871.23 499.795 871.685 498.432 871.989C492.223 873.808 477.837 876.538 474.505 878.206C469.356 880.632 467.084 882.452 460.876 885.03C436.343 895.494 410.447 894.281 389.549 879.268C385.308 876.235 386.066 878.813 386.066 883.362C386.066 894.584 384.854 892.158 392.275 897.314C399.846 902.622 410.901 906.716 422.259 907.626C433.314 908.536 448.609 906.716 457.695 902.773C462.541 900.65 466.176 897.617 469.356 894.433C471.173 892.613 472.536 891.4 474.505 889.428C475.414 888.518 475.868 887.76 476.776 886.698C477.988 885.637 477.685 885.03 479.805 885.334Z" fill="#FCFBFB"/>
<path d="M599.181 912.643C597.967 909.442 596.6 908.375 596.145 904.108C594.627 891.305 601.762 884.446 604.95 878.045C603.584 877.74 601.61 877.435 600.699 876.064C601.003 874.54 602.825 873.32 604.646 871.491C610.264 865.7 611.326 863.109 614.514 855.031C618.006 845.734 620.132 838.265 622.257 827.597C624.838 814.184 629.544 800.62 640.019 792.847C643.359 790.408 647.306 787.817 652.772 788.122C652.316 787.665 653.075 788.122 651.861 787.512C646.851 784.769 638.349 785.531 632.884 788.732C628.33 791.323 623.471 796.809 620.891 801.839C615.425 812.051 615.577 830.797 612.693 843.752C610.264 854.269 607.227 861.737 602.673 870.882C599.333 877.435 591.742 884.294 590.68 896.487C589.769 903.193 594.323 910.966 599.181 912.643Z" fill="#FCFBFB"/>
<path d="M632.423 888.059L608.398 879.145C603.807 882.219 595.697 898.509 600.288 908.806C601.512 911.726 603.807 915.108 606.715 915.876C617.886 919.411 629.056 895.589 632.423 888.059Z" fill="#FCFBFB"/>
<path d="M572.108 882.734C569.377 868.41 573.321 859.515 583.332 850.167C584.091 849.413 584.242 849.262 585.001 848.659C585.911 847.905 586.214 847.905 586.973 847.001C584.091 840.668 582.422 837.502 582.27 828.908C565.282 828.305 555.877 858.61 560.731 871.727C562.552 876.552 566.95 880.925 572.108 882.734Z" fill="#FCFBFB"/>
<path d="M484.506 820.525C489.134 820.072 502.707 816.747 499.005 812.062C496.229 808.436 486.512 806.925 480.496 806.169L484.506 820.525Z" fill="#FCFBFB"/>
<path d="M461.358 820.525C460.71 817.983 458.442 808.861 457.146 807.365C453.582 807.963 441.593 811.104 445.319 815.291C447.749 817.833 456.498 820.375 461.358 820.525Z" fill="#FCFBFB"/>
<path fill-rule="evenodd" clip-rule="evenodd" d="M579.202 523.31L618.086 586.047C545.535 700.712 461.679 782.331 377.699 670.275L431.118 598.718C457.331 625.552 461.679 629.279 498.948 641.702L579.202 523.31Z" fill="#01ACED"/>
<path fill-rule="evenodd" clip-rule="evenodd" d="M499.066 641.577C540.684 644.061 555.716 637.85 592.364 624.433C601.06 612.258 609.632 599.338 618.08 586.046L579.195 523.309L499.066 641.577Z" fill="#215686"/>
<path fill-rule="evenodd" clip-rule="evenodd" d="M346.379 614.497L309.234 550.643C384.891 438.09 470.983 358.831 551.857 473.123L495.705 542.692C470.237 515.113 466.635 511.759 429.738 498.466L346.379 614.497Z" fill="#01ACED"/>
<path fill-rule="evenodd" clip-rule="evenodd" d="M429.738 498.464C388.121 494.737 372.965 500.452 335.944 512.999C326.999 524.925 318.055 537.597 309.234 550.641L346.379 614.496L429.738 498.464Z" fill="#215686"/>
<path fill-rule="evenodd" clip-rule="evenodd" d="M404.278 488.156H453.97L516.458 589.28L589.63 487.907H608.513L499.066 641.705L453.597 568.16L399.433 641.705L304.645 488.156H354.337L416.949 589.28L444.653 553.625L404.278 488.156Z" fill="#CE4040"/>
<path d="M449.705 10.7808C484.984 10.7808 512.836 16.9763 533.26 29.3673C554.056 41.4142 568.911 61.0333 577.823 88.2248C587.107 115.416 591.749 151.213 591.749 195.614C591.749 240.015 587.107 275.811 577.823 303.003C568.911 330.194 554.056 349.986 533.26 362.377C512.836 374.423 484.984 380.447 449.705 380.447C414.798 380.447 386.946 374.423 366.15 362.377C345.726 349.986 330.871 330.194 321.588 303.003C312.675 275.811 308.219 240.015 308.219 195.614C308.219 151.213 312.675 115.416 321.588 88.2248C330.871 61.0333 345.726 41.4142 366.15 29.3673C386.946 16.9763 414.798 10.7808 449.705 10.7808ZM449.705 62.9264C435.594 62.9264 423.896 65.1637 414.612 69.6382C405.328 74.1127 397.901 81.3408 392.331 91.3225C386.761 101.304 382.861 114.9 380.633 132.11C378.405 148.975 377.291 170.143 377.291 195.614C377.291 220.74 378.405 241.908 380.633 259.118C382.861 276.328 386.761 289.923 392.331 299.905C397.901 309.887 405.328 317.115 414.612 321.589C423.896 326.064 435.594 328.301 449.705 328.301C463.446 328.301 475.143 326.064 484.799 321.589C494.454 317.115 502.067 309.887 507.637 299.905C513.207 289.923 517.107 276.328 519.335 259.118C521.563 241.908 522.677 220.74 522.677 195.614C522.677 170.143 521.563 148.975 519.335 132.11C517.107 114.9 513.207 101.304 507.637 91.3225C502.067 81.3408 494.454 74.1127 484.799 69.6382C475.143 65.1637 463.446 62.9264 449.705 62.9264Z" fill="#092946"/>
<path d="M449.705 0.780762C484.984 0.780762 512.836 6.97628 533.26 19.3673C554.056 31.4142 568.911 51.0333 577.823 78.2248C587.107 105.416 591.749 141.213 591.749 185.614C591.749 230.015 587.107 265.811 577.823 293.003C568.911 320.194 554.056 339.986 533.26 352.377C512.836 364.423 484.984 370.447 449.705 370.447C414.798 370.447 386.946 364.423 366.15 352.377C345.726 339.986 330.871 320.194 321.588 293.003C312.675 265.811 308.219 230.015 308.219 185.614C308.219 141.213 312.675 105.416 321.588 78.2248C330.871 51.0333 345.726 31.4142 366.15 19.3673C386.946 6.97628 414.798 0.780762 449.705 0.780762ZM449.705 52.9264C435.594 52.9264 423.896 55.1637 414.612 59.6382C405.328 64.1127 397.901 71.3408 392.331 81.3225C386.761 91.3042 382.861 104.9 380.633 122.11C378.405 138.975 377.291 160.143 377.291 185.614C377.291 210.74 378.405 231.908 380.633 249.118C382.861 266.328 386.761 279.923 392.331 289.905C397.901 299.887 405.328 307.115 414.612 311.589C423.896 316.064 435.594 318.301 449.705 318.301C463.446 318.301 475.143 316.064 484.799 311.589C494.454 307.115 502.067 299.887 507.637 289.905C513.207 279.923 517.107 266.328 519.335 249.118C521.563 231.908 522.677 210.74 522.677 185.614C522.677 160.143 521.563 138.975 519.335 122.11C517.107 104.9 513.207 91.3042 507.637 81.3225C502.067 71.3408 494.454 64.1127 484.799 59.6382C475.143 55.1637 463.446 52.9264 449.705 52.9264Z" fill="#215686"/>
<path d="M103.569 119.868L70.3657 344.041C69.6015 350.315 70.8064 354.812 73.9804 357.531C77.3911 359.83 81.5409 360.325 86.4298 359.015L282.964 306.354L293.54 345.825L252.124 363.349L57.5459 415.486C48.4199 417.931 39.9283 417.529 32.071 414.279C24.4503 410.609 18.5912 405.039 14.4936 397.569C10.3067 389.765 8.89022 381.22 10.2441 371.932L44.9023 135.588L103.569 119.868ZM199.598 165.36L274.168 443.66L217.456 458.856L157.881 236.516L153.153 177.805L199.598 165.36Z" fill="#092946"/>
<path d="M94.5692 112.868L61.3657 337.041C60.6015 343.315 61.8064 347.812 64.9804 350.531C68.3911 352.83 72.5409 353.325 77.4298 352.015L273.964 299.354L284.54 338.825L243.124 356.349L48.5459 408.486C39.4199 410.931 30.9283 410.529 23.071 407.279C15.4503 403.609 9.59118 398.039 5.49357 390.569C1.3067 382.765 -0.109783 374.22 1.24411 364.932L35.9023 128.588L94.5692 112.868ZM190.598 158.36L265.168 436.66L208.456 451.856L148.881 229.516L144.153 170.805L190.598 158.36Z" fill="#215686"/>
<path d="M831.442 106.615L691 284.469C687.213 289.529 686.018 294.028 687.416 297.967C689.228 301.66 692.58 304.155 697.472 305.454L894.124 357.674L883.636 397.169L838.995 391.737L644.3 340.037C635.168 337.613 628.005 333.034 622.81 326.303C618.03 319.325 615.724 311.577 615.891 303.058C616.147 294.206 619.175 286.09 624.975 278.711L772.74 91.0273L831.442 106.615ZM892.055 193.891L818.111 472.357L761.365 457.289L820.441 234.816L845.583 181.551L892.055 193.891Z" fill="#092946"/>
<path d="M827.442 96.6152L687 274.469C683.213 279.529 682.018 284.028 683.416 287.967C685.228 291.66 688.58 294.155 693.472 295.454L890.124 347.674L879.636 387.169L834.995 381.737L640.3 330.037C631.168 327.613 624.005 323.034 618.81 316.303C614.03 309.325 611.724 301.577 611.891 293.058C612.147 284.206 615.175 276.09 620.975 268.711L768.74 81.0273L827.442 96.6152ZM888.055 183.891L814.111 462.357L757.365 447.289L816.441 224.816L841.583 171.551L888.055 183.891Z" fill="#215686"/>
</svg>
