<svg width="450" height="447" viewBox="0 0 450 447" fill="none" xmlns="http://www.w3.org/2000/svg">
<path d="M224.5 447C348.488 447 449 346.936 449 223.5C449 100.064 348.488 0 224.5 0C100.512 0 0 100.064 0 223.5C0 346.936 100.512 447 224.5 447Z" fill="#215686"/>
<path fill-rule="evenodd" clip-rule="evenodd" d="M80.3142 242.986L104.569 243.29L104.131 277.97L192.266 279.073L191.88 309.672C191.863 311.032 192.183 312.737 192.853 313.765L103.693 312.649L103.259 346.988L79.0039 346.685L80.3142 242.986ZM192.224 309.677L192.86 259.357C192.92 254.597 196.73 250.564 201.854 250.629L233.283 251.022C238.065 251.082 242.113 255.213 242.053 259.973L241.417 310.292C241.353 315.392 237.206 319.081 232.424 319.021L200.995 318.628C197.578 318.585 194.53 316.507 193.198 313.77C192.531 312.401 192.207 311.037 192.224 309.677Z" fill="#EAF0F2"/>
<path opacity="0.43" d="M192.863 259.357L192.227 309.677C192.21 311.037 192.535 312.401 193.201 313.769C194.533 316.506 197.582 318.585 200.998 318.628L203.731 318.662C204.384 266.982 204.743 265.627 216.699 265.776L241.979 266.093L242.052 260.313C242.112 255.553 238.064 251.422 233.282 251.362L201.853 250.968C196.733 250.564 192.923 254.597 192.863 259.357Z" fill="#BAC6CF"/>
<path d="M297.536 184.319C291.151 230.124 302.906 269.508 323.887 272.405C325.58 272.639 327.318 272.535 329.057 272.432L343.355 271.317C341.324 271.037 339.341 270.419 337.743 269.512C322.006 261.16 313.851 228.109 319.11 190.388C320.706 178.937 323.224 168.299 326.616 158.813C318.165 160.049 307.375 168.171 303.428 171.745C301.454 173.532 300.251 174.739 299.095 175.609C298.72 178.304 297.959 181.288 297.536 184.319Z" fill="#BAC6CF"/>
<path d="M319.155 190.051C313.897 227.773 322.051 260.824 337.788 269.176C339.725 270.13 341.37 270.7 343.4 270.98C360.32 273.317 377.857 248.963 386.077 214.74C387.073 210.071 388.162 204.729 388.867 199.677L389.008 198.667C389.336 196.309 389.618 194.289 389.608 191.884C390.49 183.081 390.602 174.857 389.99 166.878C389.472 158.224 388.136 150.487 385.982 143.668C383.623 145.745 381.217 148.159 379.102 150.956C381.905 163.015 382.744 179.265 380.115 198.126C374.528 238.204 357.132 261.548 346.021 262.074C345.683 262.027 345.006 261.934 344.668 261.887C333.839 260.392 322.179 232.692 328.001 190.93C329.738 178.468 332.594 167.877 335.939 158.728C333.909 158.447 331.878 158.167 330.186 157.933C329.509 157.84 329.171 157.793 328.494 157.7C327.817 157.606 327.432 157.896 326.755 157.803C323.269 167.963 320.752 178.6 319.155 190.051Z" fill="#EAF0F2"/>
<path d="M127.653 160.862C121.268 206.666 133.024 246.05 154.005 248.947L323.884 272.405C302.903 269.508 291.147 230.124 297.532 184.319C297.955 181.288 298.377 178.257 299.138 175.272C297.55 176.769 296.441 177.303 294.993 177.79C293.593 177.939 255.015 172.612 216.775 167.332C212.714 166.772 208.315 166.164 204.254 165.603C170.075 160.884 139.327 156.295 139.327 156.295C139.327 156.295 133.565 153.096 131.063 143.825C129.635 149.121 128.498 154.8 127.653 160.862Z" fill="#EAF0F2"/>
<path d="M327.618 191.219C321.796 232.982 333.409 261.018 344.238 262.513C344.576 262.56 345.253 262.653 345.591 262.7C356.702 262.174 374.098 238.83 379.685 198.752C382.314 179.891 381.475 163.641 378.334 151.536L335.17 159.307C332.211 168.167 329.355 178.757 327.618 191.219Z" fill="#215686"/>
<path d="M341.15 193.088C338.897 209.254 343.11 223.567 350.893 224.642C358.338 225.67 366.599 213.422 368.9 196.919C371.2 180.416 366.94 166.44 359.157 165.365C351.373 164.291 343.451 176.585 341.15 193.088Z" fill="#01ACED"/>
<path d="M131.1 143.599C133.263 152.823 139.364 156.068 139.364 156.068C139.364 156.068 170.112 160.657 204.291 165.377C208.352 165.937 212.751 166.545 216.812 167.106C255.39 172.432 293.968 177.759 295.03 177.563C296.431 177.413 297.587 176.543 299.175 175.046C300.331 174.175 301.534 172.968 303.508 171.181C307.841 167.317 318.631 159.195 326.696 158.249C327.419 158.006 327.758 158.052 328.435 158.146C329.111 158.239 329.45 158.286 330.127 158.379C331.48 158.566 333.511 158.847 335.88 159.174C345.693 160.529 360.536 162.922 363.243 163.295C366.966 163.809 368.94 162.022 372.502 158.738C374.569 156.277 376.975 153.863 379.043 151.403C381.449 148.989 383.855 146.575 385.923 144.114C400.265 130.303 412.747 122.415 422.297 118.241C431.508 114.021 437.834 113.178 439.526 113.411C439.526 113.411 434.112 112.664 426.667 111.636C419.222 110.608 410.085 109.346 402.978 108.365C346.079 100.851 204.918 81.7029 186.061 78.4125C154.345 73.3465 133.999 107.955 130.853 130.52C129.811 135.525 130.216 140.044 131.1 143.599Z" fill="#EAF0F2"/>
<path d="M385.937 144.005C388.091 150.824 389.427 158.561 389.945 167.215C389.945 167.215 410.738 171.459 413.972 170.532C417.205 169.606 431.538 153.391 440.184 140.854C450.944 125.519 448.415 121.393 446.516 117.698C445.444 115.491 443.508 114.537 439.494 113.639C438.14 113.452 431.814 114.295 422.264 118.469C412.761 122.306 399.941 130.148 385.937 144.005Z" fill="#BAC6CF"/>
<path opacity="0.43" d="M128.486 162.349C130.649 171.573 136.75 174.819 136.75 174.819C136.75 174.819 167.498 179.408 201.677 184.127C205.738 184.688 210.137 185.295 214.198 185.856C252.776 191.183 291.354 196.51 292.416 196.313C293.817 196.164 294.973 195.293 296.514 194.133C297.67 193.263 298.873 192.056 300.847 190.269C304.409 186.984 312.324 184.645 320.191 182.641C321.854 175.662 324.757 164.735 326.617 158.812C325.555 159.009 324.493 159.206 323.431 159.402C322.322 159.936 321.259 160.132 320.15 160.666C319.041 161.199 317.932 161.733 316.823 162.266C311.23 165.27 306.174 169.378 303.429 171.745C301.456 173.532 300.253 174.739 299.097 175.609C298.711 175.899 298.326 176.189 297.941 176.479C297.555 176.769 297.17 177.06 296.831 177.013C296.061 177.593 295.722 177.546 294.999 177.79C293.598 177.939 255.02 172.613 216.78 167.332L204.259 165.603C170.08 160.884 139.332 156.295 139.332 156.295C139.332 156.295 133.57 153.096 131.068 143.825C129.687 148.784 128.936 154.173 128.138 159.898C127.997 160.909 128.241 161.629 128.486 162.349Z" fill="#808080"/>
<path opacity="0.43" d="M368.23 162.156C371.952 162.67 375.966 163.567 380.995 164.605C383.655 165.316 386.654 166.073 389.944 167.214C389.426 158.56 388.09 150.824 385.936 144.004C383.53 146.418 381.124 148.832 379.057 151.293C376.989 153.754 374.583 156.168 372.515 158.628C370.927 160.125 369.724 161.332 368.23 162.156Z" fill="#808080"/>
<path opacity="0.43" d="M321.279 177.3C325.377 175.12 328.845 172.509 331.881 170.525C338 166.221 343.639 162.881 352.09 161.644C346.675 160.897 340.584 160.056 335.555 159.018L329.802 158.224C329.125 158.13 328.787 158.083 328.11 157.99C327.433 157.897 327.048 158.187 326.371 158.093C324.802 164.399 322.895 170.658 321.279 177.3Z" fill="#808080"/>
</svg>
