<svg width="256" height="451" viewBox="0 0 256 451" fill="none" xmlns="http://www.w3.org/2000/svg">
<path d="M207.599 379.856C211.319 426.766 124.271 482.315 101.952 420.593C79.6317 358.87 3.00033 371.831 3.00033 371.831" stroke="#BAC6CF" stroke-width="6" stroke-linecap="round"/>
<path d="M218.876 351.328H196.551V327.72H218.876V351.328ZM193.257 354.7H222.262V324.347H193.257V354.7Z" fill="#CE4040"/>
<path d="M194.903 340.554V350.578H220.614V340.554H225.738V360.04C225.738 366.317 214.941 375.029 214.941 379.62V387.864H200.576C200.576 387.864 200.576 384.117 200.576 379.62C200.576 375.123 189.779 366.317 189.779 360.04V340.554C189.688 340.554 194.903 340.554 194.903 340.554Z" fill="#CE4040"/>
<path d="M216.953 334.84H213.659V327.157H216.953V334.84Z" fill="#092946"/>
<path d="M211.918 334.84H208.624V327.157H211.918V334.84Z" fill="#092946"/>
<path d="M206.891 334.84H203.597V327.157H206.891V334.84Z" fill="#092946"/>
<path d="M201.855 334.84H198.562V327.157H201.855V334.84Z" fill="#092946"/>
<rect x="2.5" y="2.5" width="243.442" height="58.9146" transform="matrix(4.37114e-08 1 1 -4.37114e-08 169.645 28.8643)" fill="white" stroke="white" stroke-width="5"/>
<rect x="2.5" y="2.5" width="300.141" height="102.212" transform="matrix(4.37114e-08 1 1 -4.37114e-08 147.996 -1.09278e-07)" stroke="white" stroke-width="5"/>
<rect width="29.8955" height="25.772" transform="matrix(4.37114e-08 1 1 -4.37114e-08 192.324 54.636)" fill="#092946"/>
<rect width="13.4014" height="6.18528" transform="matrix(4.37114e-08 1 1 -4.37114e-08 186.141 62.8828)" fill="#092946"/>
<rect width="29.8955" height="25.772" transform="matrix(4.37114e-08 1 1 -4.37114e-08 192.324 110.305)" fill="#092946"/>
<rect width="13.4014" height="6.18528" transform="matrix(4.37114e-08 1 1 -4.37114e-08 186.141 118.551)" fill="#092946"/>
<rect width="29.8955" height="25.772" transform="matrix(4.37114e-08 1 1 -4.37114e-08 192.324 165.972)" fill="#092946"/>
<rect width="13.4014" height="6.18528" transform="matrix(4.37114e-08 1 1 -4.37114e-08 186.141 174.218)" fill="#092946"/>
<rect width="29.8955" height="25.772" transform="matrix(4.37114e-08 1 1 -4.37114e-08 192.324 221.64)" fill="#092946"/>
<rect width="13.4014" height="6.18528" transform="matrix(4.37114e-08 1 1 -4.37114e-08 186.141 229.887)" fill="#092946"/>
</svg>
