<svg xmlns="http://www.w3.org/2000/svg" width="120" height="35" fill="none"><path fill="#01ACED" d="M59.241.291c-.833.496-1.17 1.667-.731 2.523.1.214.382.54.619.731.383.304.529.35 1.148.35.62 0 .766-.046 1.149-.35.833-.664 1.047-1.61.563-2.533-.518-.98-1.768-1.306-2.748-.72ZM47.578 3.85c-1.228.292-1.667.968-1.69 2.578-.01.935.023 1.126.248 1.487.338.54 1.07.89 2.669 1.272 2.083.507 3.322 1.25 4.29 2.567l.484.653.135-.484c.17-.642.068-2.849-.18-3.806-.484-1.869-1.385-3.074-2.815-3.783-1.148-.563-2.15-.72-3.141-.484ZM70.865 3.838c-2.916.62-4.482 2.95-4.47 6.644 0 .71.045 1.441.1 1.632l.102.327.36-.507c.552-.81 1.577-1.677 2.455-2.083.44-.203 1.408-.53 2.162-.71 1.486-.37 1.858-.528 2.24-.934.372-.394.485-.81.485-1.79 0-1.306-.304-1.937-1.137-2.365-.484-.236-1.655-.36-2.297-.214ZM55.732 4.492c-.575.282-.834.71-.834 1.295.012.281.102.642.214.8.552.855 1.937.833 2.455-.046.417-.709.079-1.779-.664-2.094-.507-.203-.71-.203-1.171.045ZM62.937 4.48c-.563.281-.822.765-.765 1.43.1 1.103 1.238 1.666 2.195 1.08.383-.236.698-.81.698-1.26 0-.338-.371-.935-.709-1.16a1.425 1.425 0 0 0-1.419-.09ZM43.737 10.324c-2.252.406-3.952 1.633-4.358 3.13-.27.991.147 2.478.924 3.31.945 1.014 2.24 1.127 5.382.485 1.576-.315 2.038-.371 3.04-.326 1.036.033 1.284.078 1.835.349.743.371 1.532 1.103 1.97 1.858l.305.518.101-.338c.158-.552 0-2.275-.315-3.367-.36-1.216-1.149-2.77-1.813-3.524-.968-1.115-2.578-1.903-4.38-2.151-1.081-.158-1.576-.146-2.691.056ZM73.394 10.324c-3.356.597-5.383 2.882-6.126 6.857-.281 1.464-.079 2.838.304 2.06.327-.697 1.194-1.53 1.982-1.913.732-.36.788-.372 2.218-.372 1.205 0 1.734.056 2.984.338 1.126.236 1.824.326 2.702.338 1.093 0 1.228-.023 1.7-.304 1.037-.608 1.6-1.6 1.656-2.917.034-.675 0-.968-.18-1.373-.62-1.408-2.365-2.466-4.583-2.782-1.014-.146-1.61-.123-2.657.068ZM61.064 11.754c-.09 1.104.067 2.781.461 4.864.597 3.13.62 3.48.248 4.223-.304.597-.71.856-1.588.99-1.193.192-1.936-.123-2.285-.956-.214-.496-.203-2.151.022-3.31.101-.519.383-1.78.63-2.805.462-1.914.665-3.625.451-3.76-.27-.17-2.883 4.616-3.614 6.632-.654 1.801-.912 3.006-.912 4.29 0 1.542.225 2.162 1.148 3.152 1.419 1.51 3.57 2.072 5.765 1.51 1.194-.305 2.128-.834 2.95-1.645.81-.81 1.227-1.599 1.475-2.803.147-.755.158-1.047.045-2.005-.247-2.015-1.283-4.582-2.78-6.868-.778-1.182-1.735-2.444-1.87-2.444-.034 0-.101.428-.146.935ZM20.424 12.836c-1.059.653-1.34 1.745-.833 3.119.236.63.675 1.137 1.891 2.196.777.675.53 1.34-.495 1.34-.417 0-.518-.057-1.002-.62-.698-.81-2.883-2.804-4.031-3.67-1.723-1.318-3.21-2.016-4.29-2.016-.642 0-1.352.371-1.723.923-.282.394-.327.574-.327 1.216 0 .653.045.811.338 1.239.18.27.563.642.833.833.924.653 1.149.946 1.115 1.464-.022.383-.09.473-.326.563-.248.079-.383.045-.789-.237-3.209-2.207-7.882-2.68-9.762-.99-.8.72-1.08 1.418-1.013 2.59.112 1.981 1.238 2.938 3.772 3.197 2.578.27 5.832-.574 7.375-1.892l.462-.394.202.26c.462.562.192 1.035-.9 1.62-1.34.71-1.757 2.478-.834 3.57.507.608 1.093.845 2.117.833.8 0 1.002-.045 1.78-.416a12.125 12.125 0 0 0 1.632-.946c1.002-.71 2.973-2.635 4.087-3.975l.901-1.103.417.112c.912.248 1.092.856.416 1.408-1.126.9-1.43 1.227-1.768 1.925-.473.969-.563 2.027-.202 2.59.281.462 1.013.8 1.7.81 1.948.012 5.056-2.195 8.287-5.877l.957-1.08.462.157c.653.225.98.574.98 1.002 0 .462-.27.687-.901.765-.665.09-1.16.609-1.419 1.498-.507 1.745.35 2.995 2.027 2.984 1.711-.011 3.85-1.317 6.497-3.952 1.385-1.385 3.029-3.254 3.029-3.457 0-.236-3.716-3.907-4.977-4.887-2.489-1.97-4.335-2.702-5.529-2.196-.495.203-1.07.879-1.16 1.374-.247 1.329.575 2.871 1.678 3.13.698.17.991.957.53 1.42-.17.168-.372.224-.755.213-.53 0-.552-.022-1.272-.844-.957-1.104-2.905-2.984-4.076-3.93-2.219-1.78-4.122-2.477-5.101-1.87ZM97.437 12.88c-.89.339-1.802.902-2.962 1.825-1.17.946-3.119 2.826-4.076 3.93-.72.822-.743.844-1.261.844-.394.011-.597-.045-.766-.214-.461-.462-.168-1.25.53-1.419 1.103-.259 1.925-1.801 1.677-3.13-.09-.495-.664-1.17-1.16-1.373-1.193-.507-3.04.225-5.528 2.195-1.261.98-4.977 4.65-4.977 4.887 0 .203 1.644 2.072 3.029 3.457 2.646 2.635 4.785 3.94 6.497 3.952 1.678.011 2.533-1.239 2.027-2.984-.26-.89-.755-1.407-1.419-1.498-.63-.078-.9-.303-.9-.765 0-.428.326-.777.979-1.002l.461-.158.958 1.081c3.231 3.682 6.339 5.889 8.287 5.878.687-.012 1.419-.35 1.7-.811.36-.563.27-1.621-.203-2.59-.337-.698-.641-1.024-1.767-1.925-.676-.552-.496-1.16.416-1.408l.417-.112.901 1.103c1.114 1.34 3.085 3.265 4.087 3.975.417.293 1.137.72 1.633.946.777.371.979.416 1.779.416 1.024.012 1.61-.225 2.117-.833.923-1.092.506-2.86-.834-3.57-1.092-.585-1.362-1.058-.901-1.62l.203-.26.462.394c1.542 1.318 4.797 2.162 7.375 1.892 2.534-.259 3.659-1.216 3.772-3.198.068-1.17-.214-1.869-1.013-2.59-1.881-1.689-6.554-1.216-9.763.991-.405.282-.54.316-.788.237-.236-.09-.304-.18-.326-.563-.034-.518.191-.81 1.114-1.464.271-.191.653-.563.834-.833.292-.428.337-.586.337-1.239 0-.642-.045-.822-.326-1.216-1.036-1.509-3.097-1.137-6.013 1.092-1.148.867-3.333 2.86-4.031 3.671-.484.563-.585.62-1.002.62-1.025 0-1.272-.665-.496-1.34 1.217-1.059 1.656-1.566 1.892-2.196.406-1.092.293-2.06-.304-2.691-.664-.71-1.486-.822-2.668-.383ZM46.432 19.568c-.552.09-1.87.755-2.5 1.25-1.565 1.25-2.51 3.322-2.184 4.797.428 1.925 3.119 2.871 4.729 1.655.676-.495 1.059-.99 2.15-2.77.462-.743 1.025-1.554 1.262-1.813.563-.608 1.418-1.058 2.173-1.137.338-.034.62-.101.62-.158 0-.337-1.6-1.216-2.838-1.565-.811-.236-2.725-.383-3.412-.259ZM71.291 19.613c-1.396.237-2.916.89-3.558 1.532l-.315.315.676.079c1.373.157 2.195.867 3.569 3.13 1.115 1.835 1.678 2.488 2.488 2.883.552.27.71.292 1.385.236 1.374-.113 2.568-.912 2.838-1.903.214-.8.067-1.982-.372-2.871-.439-.924-1.869-2.41-2.747-2.872-1.126-.608-2.455-.776-3.964-.529Z"/><path fill="#01ACED" d="M51.964 23.892c-.675.755-1.452 2.354-1.756 3.592-.698 2.939.247 5.1 2.736 6.294 1.205.575 2.004.744 2.86.586 1.058-.191 2.207-.833 3.198-1.78l.878-.832.62.394c1.857 1.193 3.062 1.587 4.796 1.587 1.238 0 1.329-.01 2.05-.371 1.767-.867 2.882-3.063 2.77-5.428-.046-.934-.113-1.182-.463-1.947-.427-.912-1.43-2.05-2.173-2.466l-.349-.203-.079.845c-.259 2.87-1.97 4.988-4.74 5.866-3.75 1.193-7.882-.608-9.075-3.952-.136-.372-.304-1.126-.372-1.678s-.18-1.025-.248-1.047c-.067-.023-.371.225-.653.54Z"/></svg>