<svg xmlns="http://www.w3.org/2000/svg" width="120" height="35" fill="none"><path fill="#FFDA79" fill-rule="evenodd" d="M50.208 27.484c.304-1.239 1.08-2.837 1.756-3.592.282-.315.586-.563.653-.54.068.022.18.495.248 1.047.068.552.236 1.306.372 1.678 1.193 3.344 5.325 5.145 9.075 3.952 2.77-.878 4.481-2.995 4.74-5.866l.08-.845.348.203c.743.416 1.746 1.553 2.173 2.466.35.765.417 1.013.462 1.948.113 2.364-1.002 4.56-2.77 5.427-.72.36-.81.371-2.05.371-1.733 0-2.938-.394-4.796-1.587l-.62-.394-.877.833c-.991.946-2.14 1.587-3.198 1.779-.856.158-1.655-.011-2.86-.586-2.489-1.193-3.434-3.355-2.736-6.294ZM19.59 15.954c-.507-1.373-.226-2.465.833-3.118.98-.608 2.882.09 5.1 1.869 1.172.946 3.12 2.826 4.077 3.93.72.822.743.844 1.272.844.383.011.585-.045.754-.214.462-.462.17-1.25-.529-1.419-1.103-.259-1.925-1.801-1.677-3.13.09-.495.664-1.17 1.16-1.373 1.193-.507 3.04.225 5.528 2.195 1.26.98 4.977 4.65 4.977 4.887 0 .203-1.644 2.072-3.03 3.457-2.645 2.635-4.785 3.94-6.496 3.952-1.678.011-2.534-1.239-2.027-2.984.259-.89.755-1.407 1.419-1.498.63-.078.9-.303.9-.765 0-.428-.326-.777-.979-1.002l-.462-.158-.957 1.081c-3.231 3.682-6.34 5.889-8.287 5.878-.687-.012-1.419-.35-1.7-.811-.36-.563-.27-1.621.202-2.59.338-.698.642-1.024 1.768-1.925.676-.552.496-1.16-.416-1.408l-.417-.112-.9 1.103c-1.116 1.34-3.086 3.265-4.088 3.975-.417.293-1.137.72-1.633.946-.777.371-.98.416-1.779.416-1.024.012-1.61-.225-2.117-.833-.923-1.092-.506-2.86.834-3.57 1.092-.585 1.362-1.058.9-1.62l-.202-.26-.462.394c-1.543 1.318-4.797 2.162-7.375 1.892-2.534-.259-3.66-1.216-3.772-3.198-.068-1.17.214-1.869 1.013-2.59 1.88-1.689 6.553-1.216 9.762.991.406.282.54.316.789.237.236-.09.304-.18.326-.563.034-.518-.191-.81-1.115-1.464-.27-.191-.653-.563-.833-.833-.293-.428-.338-.586-.338-1.239 0-.642.045-.822.327-1.216.371-.552 1.08-.923 1.723-.923 1.08 0 2.567.698 4.29 2.015 1.148.867 3.333 2.86 4.03 3.671.485.563.586.62 1.003.62 1.025 0 1.272-.665.495-1.34-1.216-1.059-1.655-1.566-1.891-2.196Zm41.473-4.2c-.09 1.104.067 2.781.461 4.864.597 3.13.62 3.48.248 4.223-.304.597-.71.856-1.588.99-1.193.192-1.936-.123-2.285-.956-.214-.496-.203-2.151.022-3.31.101-.519.383-1.78.63-2.805.462-1.914.665-3.625.451-3.76-.27-.17-2.883 4.616-3.614 6.632-.654 1.801-.912 3.006-.912 4.29 0 1.542.225 2.162 1.148 3.152 1.419 1.51 3.57 2.072 5.765 1.51 1.194-.305 2.128-.834 2.95-1.645.81-.81 1.227-1.599 1.475-2.803.147-.755.158-1.047.045-2.005-.247-2.015-1.283-4.582-2.78-6.868-.778-1.182-1.735-2.444-1.87-2.444-.034 0-.101.428-.146.935Zm-17.327-1.43c-2.252.406-3.952 1.633-4.358 3.13-.27.991.147 2.478.924 3.31.945 1.014 2.24 1.127 5.382.485 1.576-.315 2.038-.371 3.04-.326 1.036.033 1.284.078 1.835.349.743.371 1.532 1.103 1.97 1.858l.305.518.101-.338c.158-.552 0-2.275-.315-3.367-.36-1.216-1.149-2.77-1.813-3.524-.968-1.115-2.578-1.903-4.38-2.151-1.081-.158-1.576-.146-2.691.056Zm22.658.158c-.012-3.694 1.553-6.024 4.47-6.644.642-.146 1.813-.022 2.297.214.833.428 1.137 1.059 1.137 2.365 0 .98-.113 1.396-.484 1.79-.383.406-.755.563-2.24.935-.755.18-1.724.506-2.163.71-.878.405-1.903 1.271-2.454 2.082l-.36.507-.102-.327c-.056-.191-.101-.923-.101-1.632ZM47.578 3.85c-1.228.292-1.667.968-1.69 2.578-.01.935.023 1.126.248 1.487.338.54 1.07.89 2.669 1.272 2.083.507 3.322 1.25 4.29 2.567l.484.653.135-.484c.17-.642.068-2.849-.18-3.806-.484-1.869-1.385-3.074-2.815-3.783-1.148-.563-2.15-.72-3.141-.484ZM59.24.29c-.833.496-1.17 1.667-.731 2.523.1.214.382.54.619.731.383.304.529.35 1.148.35.62 0 .766-.046 1.149-.35.833-.664 1.047-1.61.563-2.533-.518-.98-1.768-1.306-2.748-.72Zm-3.51 4.201c-.574.282-.833.71-.833 1.295.012.281.102.642.214.8.552.855 1.937.833 2.455-.046.417-.709.079-1.779-.664-2.094-.507-.203-.71-.203-1.171.045Zm6.44 1.418c-.056-.665.203-1.149.766-1.43.44-.226.991-.192 1.419.09.338.225.71.822.71 1.16 0 .45-.316 1.024-.699 1.26-.957.586-2.094.023-2.195-1.08Zm5.097 11.271c.743-3.975 2.77-6.26 6.126-6.857 1.047-.191 1.643-.214 2.657-.068 2.218.316 3.963 1.374 4.583 2.781.18.406.214.699.18 1.374-.056 1.318-.62 2.309-1.655 2.917-.473.281-.608.304-1.7.304-.879-.012-1.577-.102-2.703-.338-1.25-.282-1.779-.338-2.984-.338-1.43 0-1.486.011-2.218.372-.788.382-1.655 1.216-1.982 1.914-.383.777-.585-.597-.304-2.06Zm30.169-4.3c-.89.338-1.802.9-2.962 1.824-1.17.946-3.119 2.826-4.076 3.93-.72.822-.743.844-1.261.844-.394.011-.597-.045-.766-.214-.461-.462-.168-1.25.53-1.419 1.103-.259 1.925-1.801 1.677-3.13-.09-.495-.664-1.17-1.16-1.373-1.193-.507-3.04.225-5.528 2.195-1.261.98-4.977 4.65-4.977 4.887 0 .203 1.644 2.072 3.029 3.457 2.646 2.635 4.785 3.94 6.497 3.952 1.678.011 2.533-1.239 2.027-2.984-.26-.89-.755-1.407-1.419-1.498-.63-.078-.9-.303-.9-.765 0-.428.326-.777.979-1.002l.461-.158.958 1.081c3.231 3.682 6.339 5.889 8.287 5.878.687-.012 1.419-.35 1.7-.811.36-.563.27-1.621-.203-2.59-.337-.698-.641-1.024-1.767-1.925-.676-.552-.496-1.16.416-1.408l.417-.112.901 1.103c1.114 1.34 3.085 3.265 4.087 3.975.417.293 1.137.72 1.633.946.777.371.979.416 1.779.416 1.024.012 1.61-.225 2.116-.833.924-1.092.507-2.86-.833-3.57-1.092-.585-1.362-1.058-.901-1.62l.203-.26.462.394c1.542 1.318 4.797 2.162 7.375 1.892 2.534-.259 3.659-1.216 3.772-3.198.068-1.17-.214-1.869-1.013-2.59-1.881-1.689-6.554-1.216-9.763.991-.405.282-.54.316-.788.237-.236-.09-.304-.18-.326-.563-.034-.518.191-.81 1.114-1.464.271-.191.653-.563.834-.833.292-.428.337-.586.337-1.239 0-.642-.045-.822-.326-1.216-1.036-1.509-3.097-1.137-6.013 1.092-1.148.867-3.333 2.86-4.031 3.671-.484.563-.585.62-1.002.62-1.025 0-1.272-.665-.496-1.34 1.217-1.059 1.656-1.566 1.892-2.196.406-1.092.293-2.06-.304-2.691-.664-.71-1.486-.822-2.668-.383Zm-53.505 7.937c.63-.495 1.948-1.16 2.5-1.25.687-.124 2.601.023 3.412.26 1.238.348 2.837 1.227 2.837 1.564 0 .057-.281.124-.62.158-.754.079-1.61.53-2.172 1.137-.237.26-.8 1.07-1.261 1.813-1.093 1.78-1.475 2.275-2.151 2.77-1.61 1.216-4.301.27-4.73-1.655-.326-1.475.62-3.547 2.185-4.797Zm27.36-1.205c-1.397.237-2.917.89-3.559 1.532l-.315.315.676.079c1.373.157 2.195.867 3.569 3.13 1.115 1.835 1.678 2.488 2.488 2.883.552.27.71.292 1.385.236 1.374-.113 2.568-.912 2.838-1.903.214-.8.067-1.982-.372-2.871-.439-.924-1.869-2.41-2.747-2.872-1.126-.608-2.455-.776-3.964-.529Z" clip-rule="evenodd"/></svg>