<svg width="62" height="60" viewBox="0 0 62 60" fill="none" xmlns="http://www.w3.org/2000/svg">
<path fill-rule="evenodd" clip-rule="evenodd" d="M53.768 20.7495L61.3833 33.0362C47.1746 55.4928 30.7518 71.4776 14.3047 49.5319L24.7666 35.5178C29.9002 40.7731 30.7518 41.503 38.0508 43.936L53.768 20.7495Z" fill="#01ACED"/>
<path fill-rule="evenodd" clip-rule="evenodd" d="M38.0781 43.9117C46.2287 44.3983 49.1726 43.1818 56.35 40.5542C58.0531 38.1698 59.7318 35.6395 61.3863 33.0362L53.771 20.7495L38.0781 43.9117Z" fill="#215686"/>
<path fill-rule="evenodd" clip-rule="evenodd" d="M8.17702 38.6081L0.902344 26.1025C15.7193 4.05948 32.58 -11.4631 48.4189 10.9205L37.4217 24.5454C32.4341 19.1441 31.7285 18.4872 24.5025 15.8839L8.17702 38.6081Z" fill="#01ACED"/>
<path fill-rule="evenodd" clip-rule="evenodd" d="M24.5025 15.8838C16.3519 15.1539 13.3836 16.273 6.1333 18.7304C4.38154 21.0661 2.62978 23.5477 0.902344 26.1024L8.17702 38.608L24.5025 15.8838Z" fill="#215686"/>
<path fill-rule="evenodd" clip-rule="evenodd" d="M19.5127 13.8651H29.2447L41.4827 33.6697L55.8131 13.8164H59.5112L38.0765 43.937L29.1717 29.5336L18.5638 43.937L0 13.8651H9.73201L21.9943 33.6697L27.4199 26.687L19.5127 13.8651Z" fill="#CE4040"/>
</svg>
